<svg xmlns="http://www.w3.org/2000/svg" xmlns:xlink="http://www.w3.org/1999/xlink" width="500" zoomAndPan="magnify" viewBox="0 0 375 374.999991" height="500" preserveAspectRatio="xMidYMid meet" version="1.0"><defs><g/><clipPath id="e87500dc57"><path d="M 67.746094 21.007812 L 114.199219 21.007812 L 114.199219 72.371094 L 67.746094 72.371094 Z M 67.746094 21.007812 " clip-rule="nonzero"/></clipPath><clipPath id="31ec717a2d"><path d="M 111.023438 51.875 L 76.855469 71.449219 C 74.972656 72.527344 72.65625 72.523438 70.78125 71.433594 C 68.902344 70.347656 67.746094 68.339844 67.746094 66.171875 L 67.746094 27.140625 C 67.746094 24.972656 68.902344 22.964844 70.78125 21.878906 C 72.65625 20.789062 74.972656 20.78125 76.855469 21.863281 L 111.023438 41.4375 C 112.894531 42.507812 114.046875 44.5 114.046875 46.65625 C 114.046875 48.8125 112.894531 50.804688 111.023438 51.875 Z M 111.023438 51.875 " clip-rule="nonzero"/></clipPath><clipPath id="dd6183b1c4"><path d="M 0.746094 0.0078125 L 47.199219 0.0078125 L 47.199219 51.371094 L 0.746094 51.371094 Z M 0.746094 0.0078125 " clip-rule="nonzero"/></clipPath><clipPath id="fd3f14a649"><path d="M 44.023438 30.875 L 9.855469 50.449219 C 7.972656 51.527344 5.65625 51.523438 3.78125 50.433594 C 1.902344 49.347656 0.746094 47.339844 0.746094 45.171875 L 0.746094 6.140625 C 0.746094 3.972656 1.902344 1.964844 3.78125 0.878906 C 5.65625 -0.210938 7.972656 -0.21875 9.855469 0.863281 L 44.023438 20.4375 C 45.894531 21.507812 47.046875 23.5 47.046875 25.65625 C 47.046875 27.8125 45.894531 29.804688 44.023438 30.875 Z M 44.023438 30.875 " clip-rule="nonzero"/></clipPath><clipPath id="59db7ecb10"><rect x="0" width="48" y="0" height="52"/></clipPath><clipPath id="23ff97a247"><rect x="0" width="121" y="0" height="91"/></clipPath></defs><g transform="matrix(1, 0, 0, 1, 133, 142)"><g clip-path="url(#23ff97a247)"><g clip-path="url(#e87500dc57)"><g clip-path="url(#31ec717a2d)"><g transform="matrix(1, 0, 0, 1, 67, 21)"><g clip-path="url(#59db7ecb10)"><g clip-path="url(#dd6183b1c4)"><g clip-path="url(#fd3f14a649)"><path fill="#000000" d="M 0.746094 55.671875 L 0.746094 -4.289062 L 53.132812 -4.289062 L 53.132812 55.671875 Z M 0.746094 55.671875 " fill-opacity="1" fill-rule="nonzero"/></g></g></g></g></g></g><g fill="#000000" fill-opacity="1"><g transform="translate(3.386485, 69.543788)"><g><path d="M 16.59375 0 L 5.046875 0 L 5.046875 -50.484375 L 16.59375 -50.484375 Z M 16.59375 0 "/></g></g></g><g fill="#000000" fill-opacity="1"><g transform="translate(18.173371, 69.543788)"><g/></g></g><g fill="#000000" fill-opacity="1"><g transform="translate(30.796312, 69.543788)"><g><path d="M 16.59375 0 L 5.046875 0 L 5.046875 -50.484375 L 16.59375 -50.484375 Z M 16.59375 0 "/></g></g></g></g></g></svg>