<svg xmlns="http://www.w3.org/2000/svg" xmlns:xlink="http://www.w3.org/1999/xlink" width="500" zoomAndPan="magnify" viewBox="0 0 375 374.999991" height="500" preserveAspectRatio="xMidYMid meet" version="1.0"><defs><g/><clipPath id="420933ffff"><path d="M 78.847656 113.417969 L 296.460938 113.417969 L 296.460938 261.582031 L 78.847656 261.582031 Z M 78.847656 113.417969 " clip-rule="nonzero"/></clipPath><clipPath id="ea4b63d7bb"><path d="M 85.902344 113.417969 L 289.097656 113.417969 C 292.996094 113.417969 296.152344 116.578125 296.152344 120.472656 L 296.152344 254.527344 C 296.152344 258.421875 292.996094 261.582031 289.097656 261.582031 L 85.902344 261.582031 C 82.003906 261.582031 78.847656 258.421875 78.847656 254.527344 L 78.847656 120.472656 C 78.847656 116.578125 82.003906 113.417969 85.902344 113.417969 Z M 85.902344 113.417969 " clip-rule="nonzero"/></clipPath><clipPath id="1985cdd6ec"><path d="M 0.847656 0.417969 L 218 0.417969 L 218 148.582031 L 0.847656 148.582031 Z M 0.847656 0.417969 " clip-rule="nonzero"/></clipPath><clipPath id="36b7e631f3"><path d="M 7.902344 0.417969 L 211.097656 0.417969 C 214.996094 0.417969 218.152344 3.578125 218.152344 7.472656 L 218.152344 141.527344 C 218.152344 145.421875 214.996094 148.582031 211.097656 148.582031 L 7.902344 148.582031 C 4.003906 148.582031 0.847656 145.421875 0.847656 141.527344 L 0.847656 7.472656 C 0.847656 3.578125 4.003906 0.417969 7.902344 0.417969 Z M 7.902344 0.417969 " clip-rule="nonzero"/></clipPath><clipPath id="af6a326a46"><rect x="0" width="219" y="0" height="149"/></clipPath><clipPath id="c2d120c169"><rect x="0" width="161" y="0" height="20"/></clipPath><clipPath id="d03d0a459f"><rect x="0" width="58" y="0" height="10"/></clipPath><clipPath id="952348d569"><rect x="0" width="83" y="0" height="10"/></clipPath></defs><g clip-path="url(#420933ffff)"><g clip-path="url(#ea4b63d7bb)"><g transform="matrix(1, 0, 0, 1, 78, 113)"><g clip-path="url(#af6a326a46)"><g clip-path="url(#1985cdd6ec)"><g clip-path="url(#36b7e631f3)"><path fill="#817b54" d="M 0.847656 0.417969 L 217.882812 0.417969 L 217.882812 148.582031 L 0.847656 148.582031 Z M 0.847656 0.417969 " fill-opacity="1" fill-rule="nonzero"/></g></g></g></g></g></g><g transform="matrix(1, 0, 0, 1, 106, 140)"><g clip-path="url(#c2d120c169)"><g fill="#ffffff" fill-opacity="1"><g transform="translate(0.46977, 15.583589)"><g><path d="M 0.765625 -9.734375 L 2.109375 -9.734375 L 2.109375 -8.328125 L 0.765625 -8.328125 Z M 0.765625 -7.25 L 2.109375 -7.25 L 2.109375 0 L 0.765625 0 Z M 0.765625 -7.25 "/></g></g></g><g fill="#ffffff" fill-opacity="1"><g transform="translate(5.213505, 15.583589)"><g><path d="M 0.671875 -7.25 L 2.015625 -7.25 L 2.015625 -6.53125 C 2.597656 -7.082031 3.191406 -7.359375 3.796875 -7.359375 C 4.179688 -7.359375 4.457031 -7.210938 4.625 -6.921875 C 4.789062 -6.640625 4.875 -6.289062 4.875 -5.875 L 4.875 0 L 3.53125 0 L 3.53125 -5.484375 C 3.53125 -5.753906 3.488281 -5.957031 3.40625 -6.09375 C 3.320312 -6.226562 3.175781 -6.296875 2.96875 -6.296875 C 2.695312 -6.296875 2.378906 -6.144531 2.015625 -5.84375 L 2.015625 0 L 0.671875 0 Z M 0.671875 -7.25 "/></g></g></g><g fill="#ffffff" fill-opacity="1"><g transform="translate(12.592094, 15.583589)"><g><path d="M 2.359375 0.09375 C 1.734375 0.09375 1.273438 -0.128906 0.984375 -0.578125 C 0.691406 -1.035156 0.546875 -1.789062 0.546875 -2.84375 L 0.546875 -4.25 C 0.546875 -5.21875 0.671875 -5.976562 0.921875 -6.53125 C 1.179688 -7.082031 1.648438 -7.359375 2.328125 -7.359375 C 2.753906 -7.359375 3.15625 -7.164062 3.53125 -6.78125 L 3.53125 -10.15625 L 4.875 -10.15625 L 4.875 0 L 3.53125 0 L 3.53125 -0.46875 C 3.175781 -0.09375 2.785156 0.09375 2.359375 0.09375 Z M 2.703125 -0.953125 C 2.960938 -0.953125 3.238281 -1.046875 3.53125 -1.234375 L 3.53125 -5.984375 C 3.21875 -6.191406 2.929688 -6.296875 2.671875 -6.296875 C 2.140625 -6.296875 1.875 -5.789062 1.875 -4.78125 L 1.875 -2.734375 C 1.875 -2.148438 1.925781 -1.707031 2.03125 -1.40625 C 2.144531 -1.101562 2.367188 -0.953125 2.703125 -0.953125 Z M 2.703125 -0.953125 "/></g></g></g><g fill="#ffffff" fill-opacity="1"><g transform="translate(20.008325, 15.583589)"><g><path d="M 2.6875 0.09375 C 2.125 0.09375 1.6875 -0.0078125 1.375 -0.21875 C 1.070312 -0.4375 0.859375 -0.753906 0.734375 -1.171875 C 0.609375 -1.585938 0.546875 -2.128906 0.546875 -2.796875 L 0.546875 -4.453125 C 0.546875 -5.453125 0.703125 -6.1875 1.015625 -6.65625 C 1.328125 -7.125 1.882812 -7.359375 2.6875 -7.359375 C 3.269531 -7.359375 3.707031 -7.234375 4 -6.984375 C 4.300781 -6.742188 4.5 -6.40625 4.59375 -5.96875 C 4.695312 -5.53125 4.75 -4.9375 4.75 -4.1875 L 4.75 -3.59375 L 1.875 -3.59375 L 1.875 -2.140625 C 1.875 -1.703125 1.9375 -1.382812 2.0625 -1.1875 C 2.195312 -0.988281 2.410156 -0.890625 2.703125 -0.890625 C 2.984375 -0.890625 3.171875 -0.988281 3.265625 -1.1875 C 3.367188 -1.382812 3.421875 -1.679688 3.421875 -2.078125 L 3.421875 -2.515625 L 4.734375 -2.515625 L 4.734375 -2.25 C 4.734375 -1.488281 4.566406 -0.90625 4.234375 -0.5 C 3.910156 -0.101562 3.394531 0.09375 2.6875 0.09375 Z M 3.421875 -4.328125 L 3.421875 -4.984375 C 3.421875 -5.472656 3.375 -5.820312 3.28125 -6.03125 C 3.1875 -6.25 2.984375 -6.359375 2.671875 -6.359375 C 2.453125 -6.359375 2.285156 -6.304688 2.171875 -6.203125 C 2.054688 -6.109375 1.976562 -5.945312 1.9375 -5.71875 C 1.894531 -5.488281 1.875 -5.15625 1.875 -4.71875 L 1.875 -4.328125 Z M 3.421875 -4.328125 "/></g></g></g><g fill="#ffffff" fill-opacity="1"><g transform="translate(27.161071, 15.583589)"><g><path d="M 0.671875 -7.25 L 2.015625 -7.25 L 2.015625 -6.671875 C 2.410156 -7.128906 2.875 -7.359375 3.40625 -7.359375 C 4.0625 -7.359375 4.5 -7.070312 4.71875 -6.5 C 4.945312 -5.9375 5.0625 -5.3125 5.0625 -4.625 L 5.0625 -2.875 C 5.0625 -1.988281 4.921875 -1.269531 4.640625 -0.71875 C 4.367188 -0.175781 3.90625 0.09375 3.25 0.09375 C 2.820312 0.09375 2.410156 -0.117188 2.015625 -0.546875 L 2.015625 2.390625 L 0.671875 2.390625 Z M 2.984375 -0.953125 C 3.296875 -0.953125 3.492188 -1.109375 3.578125 -1.421875 C 3.671875 -1.734375 3.71875 -2.21875 3.71875 -2.875 L 3.71875 -4.625 C 3.71875 -5.164062 3.664062 -5.578125 3.5625 -5.859375 C 3.457031 -6.148438 3.25 -6.296875 2.9375 -6.296875 C 2.625 -6.296875 2.316406 -6.171875 2.015625 -5.921875 L 2.015625 -1.28125 C 2.304688 -1.0625 2.628906 -0.953125 2.984375 -0.953125 Z M 2.984375 -0.953125 "/></g></g></g><g fill="#ffffff" fill-opacity="1"><g transform="translate(34.627493, 15.583589)"><g><path d="M 2.6875 0.09375 C 2.125 0.09375 1.6875 -0.0078125 1.375 -0.21875 C 1.070312 -0.4375 0.859375 -0.753906 0.734375 -1.171875 C 0.609375 -1.585938 0.546875 -2.128906 0.546875 -2.796875 L 0.546875 -4.453125 C 0.546875 -5.453125 0.703125 -6.1875 1.015625 -6.65625 C 1.328125 -7.125 1.882812 -7.359375 2.6875 -7.359375 C 3.269531 -7.359375 3.707031 -7.234375 4 -6.984375 C 4.300781 -6.742188 4.5 -6.40625 4.59375 -5.96875 C 4.695312 -5.53125 4.75 -4.9375 4.75 -4.1875 L 4.75 -3.59375 L 1.875 -3.59375 L 1.875 -2.140625 C 1.875 -1.703125 1.9375 -1.382812 2.0625 -1.1875 C 2.195312 -0.988281 2.410156 -0.890625 2.703125 -0.890625 C 2.984375 -0.890625 3.171875 -0.988281 3.265625 -1.1875 C 3.367188 -1.382812 3.421875 -1.679688 3.421875 -2.078125 L 3.421875 -2.515625 L 4.734375 -2.515625 L 4.734375 -2.25 C 4.734375 -1.488281 4.566406 -0.90625 4.234375 -0.5 C 3.910156 -0.101562 3.394531 0.09375 2.6875 0.09375 Z M 3.421875 -4.328125 L 3.421875 -4.984375 C 3.421875 -5.472656 3.375 -5.820312 3.28125 -6.03125 C 3.1875 -6.25 2.984375 -6.359375 2.671875 -6.359375 C 2.453125 -6.359375 2.285156 -6.304688 2.171875 -6.203125 C 2.054688 -6.109375 1.976562 -5.945312 1.9375 -5.71875 C 1.894531 -5.488281 1.875 -5.15625 1.875 -4.71875 L 1.875 -4.328125 Z M 3.421875 -4.328125 "/></g></g></g><g fill="#ffffff" fill-opacity="1"><g transform="translate(41.780239, 15.583589)"><g><path d="M 0.671875 -7.25 L 2.015625 -7.25 L 2.015625 -6.53125 C 2.597656 -7.082031 3.191406 -7.359375 3.796875 -7.359375 C 4.179688 -7.359375 4.457031 -7.210938 4.625 -6.921875 C 4.789062 -6.640625 4.875 -6.289062 4.875 -5.875 L 4.875 0 L 3.53125 0 L 3.53125 -5.484375 C 3.53125 -5.753906 3.488281 -5.957031 3.40625 -6.09375 C 3.320312 -6.226562 3.175781 -6.296875 2.96875 -6.296875 C 2.695312 -6.296875 2.378906 -6.144531 2.015625 -5.84375 L 2.015625 0 L 0.671875 0 Z M 0.671875 -7.25 "/></g></g></g><g fill="#ffffff" fill-opacity="1"><g transform="translate(49.158828, 15.583589)"><g><path d="M 2.359375 0.09375 C 1.734375 0.09375 1.273438 -0.128906 0.984375 -0.578125 C 0.691406 -1.035156 0.546875 -1.789062 0.546875 -2.84375 L 0.546875 -4.25 C 0.546875 -5.21875 0.671875 -5.976562 0.921875 -6.53125 C 1.179688 -7.082031 1.648438 -7.359375 2.328125 -7.359375 C 2.753906 -7.359375 3.15625 -7.164062 3.53125 -6.78125 L 3.53125 -10.15625 L 4.875 -10.15625 L 4.875 0 L 3.53125 0 L 3.53125 -0.46875 C 3.175781 -0.09375 2.785156 0.09375 2.359375 0.09375 Z M 2.703125 -0.953125 C 2.960938 -0.953125 3.238281 -1.046875 3.53125 -1.234375 L 3.53125 -5.984375 C 3.21875 -6.191406 2.929688 -6.296875 2.671875 -6.296875 C 2.140625 -6.296875 1.875 -5.789062 1.875 -4.78125 L 1.875 -2.734375 C 1.875 -2.148438 1.925781 -1.707031 2.03125 -1.40625 C 2.144531 -1.101562 2.367188 -0.953125 2.703125 -0.953125 Z M 2.703125 -0.953125 "/></g></g></g><g fill="#ffffff" fill-opacity="1"><g transform="translate(56.575059, 15.583589)"><g><path d="M 2.6875 0.09375 C 2.125 0.09375 1.6875 -0.0078125 1.375 -0.21875 C 1.070312 -0.4375 0.859375 -0.753906 0.734375 -1.171875 C 0.609375 -1.585938 0.546875 -2.128906 0.546875 -2.796875 L 0.546875 -4.453125 C 0.546875 -5.453125 0.703125 -6.1875 1.015625 -6.65625 C 1.328125 -7.125 1.882812 -7.359375 2.6875 -7.359375 C 3.269531 -7.359375 3.707031 -7.234375 4 -6.984375 C 4.300781 -6.742188 4.5 -6.40625 4.59375 -5.96875 C 4.695312 -5.53125 4.75 -4.9375 4.75 -4.1875 L 4.75 -3.59375 L 1.875 -3.59375 L 1.875 -2.140625 C 1.875 -1.703125 1.9375 -1.382812 2.0625 -1.1875 C 2.195312 -0.988281 2.410156 -0.890625 2.703125 -0.890625 C 2.984375 -0.890625 3.171875 -0.988281 3.265625 -1.1875 C 3.367188 -1.382812 3.421875 -1.679688 3.421875 -2.078125 L 3.421875 -2.515625 L 4.734375 -2.515625 L 4.734375 -2.25 C 4.734375 -1.488281 4.566406 -0.90625 4.234375 -0.5 C 3.910156 -0.101562 3.394531 0.09375 2.6875 0.09375 Z M 3.421875 -4.328125 L 3.421875 -4.984375 C 3.421875 -5.472656 3.375 -5.820312 3.28125 -6.03125 C 3.1875 -6.25 2.984375 -6.359375 2.671875 -6.359375 C 2.453125 -6.359375 2.285156 -6.304688 2.171875 -6.203125 C 2.054688 -6.109375 1.976562 -5.945312 1.9375 -5.71875 C 1.894531 -5.488281 1.875 -5.15625 1.875 -4.71875 L 1.875 -4.328125 Z M 3.421875 -4.328125 "/></g></g></g><g fill="#ffffff" fill-opacity="1"><g transform="translate(63.727805, 15.583589)"><g><path d="M 0.671875 -7.25 L 2.015625 -7.25 L 2.015625 -6.53125 C 2.597656 -7.082031 3.191406 -7.359375 3.796875 -7.359375 C 4.179688 -7.359375 4.457031 -7.210938 4.625 -6.921875 C 4.789062 -6.640625 4.875 -6.289062 4.875 -5.875 L 4.875 0 L 3.53125 0 L 3.53125 -5.484375 C 3.53125 -5.753906 3.488281 -5.957031 3.40625 -6.09375 C 3.320312 -6.226562 3.175781 -6.296875 2.96875 -6.296875 C 2.695312 -6.296875 2.378906 -6.144531 2.015625 -5.84375 L 2.015625 0 L 0.671875 0 Z M 0.671875 -7.25 "/></g></g></g><g fill="#ffffff" fill-opacity="1"><g transform="translate(71.106394, 15.583589)"><g><path d="M 2.609375 0.09375 C 1.566406 0.09375 1.046875 -0.476562 1.046875 -1.625 L 1.046875 -6.359375 L 0.28125 -6.359375 L 0.28125 -7.25 L 1.046875 -7.25 L 1.046875 -9.375 L 2.390625 -9.375 L 2.390625 -7.25 L 3.546875 -7.25 L 3.546875 -6.359375 L 2.390625 -6.359375 L 2.390625 -1.71875 C 2.390625 -1.425781 2.429688 -1.21875 2.515625 -1.09375 C 2.609375 -0.976562 2.785156 -0.921875 3.046875 -0.921875 C 3.210938 -0.921875 3.375 -0.9375 3.53125 -0.96875 L 3.53125 0.03125 C 3.195312 0.0703125 2.890625 0.09375 2.609375 0.09375 Z M 2.609375 0.09375 "/></g></g></g><g fill="#ffffff" fill-opacity="1"><g transform="translate(76.841341, 15.583589)"><g/></g></g><g fill="#ffffff" fill-opacity="1"><g transform="translate(81.585076, 15.583589)"><g><path d="M 1.984375 0.09375 C 1.703125 0.09375 1.453125 0.015625 1.234375 -0.140625 C 1.015625 -0.296875 0.84375 -0.503906 0.71875 -0.765625 C 0.59375 -1.023438 0.53125 -1.296875 0.53125 -1.578125 C 0.53125 -2.148438 0.648438 -2.613281 0.890625 -2.96875 C 1.128906 -3.320312 1.4375 -3.601562 1.8125 -3.8125 C 2.195312 -4.019531 2.722656 -4.257812 3.390625 -4.53125 L 3.390625 -5.046875 C 3.390625 -5.523438 3.335938 -5.859375 3.234375 -6.046875 C 3.140625 -6.242188 2.945312 -6.34375 2.65625 -6.34375 C 2.144531 -6.34375 1.890625 -6 1.890625 -5.3125 L 1.890625 -4.953125 L 0.5625 -5 C 0.582031 -5.800781 0.765625 -6.394531 1.109375 -6.78125 C 1.460938 -7.164062 2.007812 -7.359375 2.75 -7.359375 C 3.445312 -7.359375 3.953125 -7.164062 4.265625 -6.78125 C 4.578125 -6.394531 4.734375 -5.820312 4.734375 -5.0625 L 4.734375 -1.75 C 4.734375 -1.195312 4.773438 -0.613281 4.859375 0 L 3.625 0 C 3.53125 -0.476562 3.472656 -0.832031 3.453125 -1.0625 C 3.347656 -0.738281 3.171875 -0.460938 2.921875 -0.234375 C 2.679688 -0.015625 2.367188 0.09375 1.984375 0.09375 Z M 2.515625 -1.046875 C 2.679688 -1.046875 2.847656 -1.113281 3.015625 -1.25 C 3.191406 -1.394531 3.316406 -1.53125 3.390625 -1.65625 L 3.390625 -3.71875 C 3.023438 -3.507812 2.742188 -3.332031 2.546875 -3.1875 C 2.359375 -3.039062 2.195312 -2.867188 2.0625 -2.671875 C 1.9375 -2.484375 1.875 -2.257812 1.875 -2 C 1.875 -1.695312 1.925781 -1.460938 2.03125 -1.296875 C 2.144531 -1.128906 2.304688 -1.046875 2.515625 -1.046875 Z M 2.515625 -1.046875 "/></g></g></g><g fill="#ffffff" fill-opacity="1"><g transform="translate(88.800556, 15.583589)"><g><path d="M 0.71875 -7.25 L 2.0625 -7.25 L 2.0625 -6.21875 C 2.3125 -6.632812 2.566406 -6.925781 2.828125 -7.09375 C 3.085938 -7.257812 3.363281 -7.34375 3.65625 -7.34375 C 3.738281 -7.34375 3.8125 -7.335938 3.875 -7.328125 L 3.875 -5.84375 C 3.601562 -5.945312 3.359375 -6 3.140625 -6 C 2.921875 -6 2.722656 -5.945312 2.546875 -5.84375 C 2.378906 -5.738281 2.21875 -5.554688 2.0625 -5.296875 L 2.0625 0 L 0.71875 0 Z M 0.71875 -7.25 "/></g></g></g><g fill="#ffffff" fill-opacity="1"><g transform="translate(94.698612, 15.583589)"><g><path d="M 2.609375 0.09375 C 1.566406 0.09375 1.046875 -0.476562 1.046875 -1.625 L 1.046875 -6.359375 L 0.28125 -6.359375 L 0.28125 -7.25 L 1.046875 -7.25 L 1.046875 -9.375 L 2.390625 -9.375 L 2.390625 -7.25 L 3.546875 -7.25 L 3.546875 -6.359375 L 2.390625 -6.359375 L 2.390625 -1.71875 C 2.390625 -1.425781 2.429688 -1.21875 2.515625 -1.09375 C 2.609375 -0.976562 2.785156 -0.921875 3.046875 -0.921875 C 3.210938 -0.921875 3.375 -0.9375 3.53125 -0.96875 L 3.53125 0.03125 C 3.195312 0.0703125 2.890625 0.09375 2.609375 0.09375 Z M 2.609375 0.09375 "/></g></g></g><g fill="#ffffff" fill-opacity="1"><g transform="translate(100.43356, 15.583589)"><g/></g></g><g fill="#ffffff" fill-opacity="1"><g transform="translate(105.177295, 15.583589)"><g><path d="M 2.921875 0.109375 C 2.234375 0.109375 1.695312 -0.0976562 1.3125 -0.515625 C 0.925781 -0.941406 0.734375 -1.492188 0.734375 -2.171875 C 0.734375 -2.765625 0.863281 -3.296875 1.125 -3.765625 C 1.382812 -4.242188 1.742188 -4.691406 2.203125 -5.109375 L 1.9375 -5.625 C 1.664062 -6.101562 1.457031 -6.519531 1.3125 -6.875 C 1.175781 -7.238281 1.109375 -7.613281 1.109375 -8 C 1.109375 -8.675781 1.300781 -9.21875 1.6875 -9.625 C 2.070312 -10.039062 2.601562 -10.25 3.28125 -10.25 C 3.90625 -10.25 4.421875 -10.078125 4.828125 -9.734375 C 5.234375 -9.398438 5.4375 -8.945312 5.4375 -8.375 C 5.4375 -7.78125 5.253906 -7.207031 4.890625 -6.65625 C 4.523438 -6.101562 4.070312 -5.566406 3.53125 -5.046875 L 5.0625 -2.640625 C 5.300781 -3.109375 5.46875 -3.785156 5.5625 -4.671875 L 6.890625 -4.671875 C 6.890625 -4.203125 6.789062 -3.695312 6.59375 -3.15625 C 6.394531 -2.613281 6.164062 -2.160156 5.90625 -1.796875 C 6.019531 -1.640625 6.164062 -1.515625 6.34375 -1.421875 C 6.519531 -1.328125 6.707031 -1.28125 6.90625 -1.28125 L 6.90625 0.09375 L 6.71875 0.09375 C 6.5 0.09375 6.296875 0.046875 6.109375 -0.046875 C 5.921875 -0.148438 5.765625 -0.253906 5.640625 -0.359375 C 5.523438 -0.460938 5.347656 -0.632812 5.109375 -0.875 C 4.867188 -0.570312 4.5625 -0.332031 4.1875 -0.15625 C 3.820312 0.0195312 3.398438 0.109375 2.921875 0.109375 Z M 3.0625 -5.765625 C 3.34375 -6.097656 3.582031 -6.503906 3.78125 -6.984375 C 3.988281 -7.460938 4.09375 -7.925781 4.09375 -8.375 C 4.09375 -8.613281 4.019531 -8.800781 3.875 -8.9375 C 3.726562 -9.070312 3.53125 -9.140625 3.28125 -9.140625 C 2.988281 -9.140625 2.773438 -9.03125 2.640625 -8.8125 C 2.515625 -8.59375 2.453125 -8.320312 2.453125 -8 C 2.453125 -7.65625 2.503906 -7.300781 2.609375 -6.9375 C 2.710938 -6.582031 2.863281 -6.191406 3.0625 -5.765625 Z M 2.921875 -1 C 3.429688 -1 3.890625 -1.25 4.296875 -1.75 L 2.734375 -4.15625 C 2.535156 -3.894531 2.375 -3.585938 2.25 -3.234375 C 2.125 -2.878906 2.0625 -2.523438 2.0625 -2.171875 C 2.0625 -1.835938 2.128906 -1.554688 2.265625 -1.328125 C 2.398438 -1.109375 2.617188 -1 2.921875 -1 Z M 2.921875 -1 "/></g></g></g><g fill="#ffffff" fill-opacity="1"><g transform="translate(114.651227, 15.583589)"><g/></g></g><g fill="#ffffff" fill-opacity="1"><g transform="translate(119.394961, 15.583589)"><g><path d="M 2.359375 0.09375 C 1.734375 0.09375 1.273438 -0.128906 0.984375 -0.578125 C 0.691406 -1.035156 0.546875 -1.789062 0.546875 -2.84375 L 0.546875 -4.25 C 0.546875 -5.21875 0.671875 -5.976562 0.921875 -6.53125 C 1.179688 -7.082031 1.648438 -7.359375 2.328125 -7.359375 C 2.753906 -7.359375 3.15625 -7.164062 3.53125 -6.78125 L 3.53125 -10.15625 L 4.875 -10.15625 L 4.875 0 L 3.53125 0 L 3.53125 -0.46875 C 3.175781 -0.09375 2.785156 0.09375 2.359375 0.09375 Z M 2.703125 -0.953125 C 2.960938 -0.953125 3.238281 -1.046875 3.53125 -1.234375 L 3.53125 -5.984375 C 3.21875 -6.191406 2.929688 -6.296875 2.671875 -6.296875 C 2.140625 -6.296875 1.875 -5.789062 1.875 -4.78125 L 1.875 -2.734375 C 1.875 -2.148438 1.925781 -1.707031 2.03125 -1.40625 C 2.144531 -1.101562 2.367188 -0.953125 2.703125 -0.953125 Z M 2.703125 -0.953125 "/></g></g></g><g fill="#ffffff" fill-opacity="1"><g transform="translate(126.811192, 15.583589)"><g><path d="M 2.6875 0.09375 C 2.125 0.09375 1.6875 -0.0078125 1.375 -0.21875 C 1.070312 -0.4375 0.859375 -0.753906 0.734375 -1.171875 C 0.609375 -1.585938 0.546875 -2.128906 0.546875 -2.796875 L 0.546875 -4.453125 C 0.546875 -5.453125 0.703125 -6.1875 1.015625 -6.65625 C 1.328125 -7.125 1.882812 -7.359375 2.6875 -7.359375 C 3.269531 -7.359375 3.707031 -7.234375 4 -6.984375 C 4.300781 -6.742188 4.5 -6.40625 4.59375 -5.96875 C 4.695312 -5.53125 4.75 -4.9375 4.75 -4.1875 L 4.75 -3.59375 L 1.875 -3.59375 L 1.875 -2.140625 C 1.875 -1.703125 1.9375 -1.382812 2.0625 -1.1875 C 2.195312 -0.988281 2.410156 -0.890625 2.703125 -0.890625 C 2.984375 -0.890625 3.171875 -0.988281 3.265625 -1.1875 C 3.367188 -1.382812 3.421875 -1.679688 3.421875 -2.078125 L 3.421875 -2.515625 L 4.734375 -2.515625 L 4.734375 -2.25 C 4.734375 -1.488281 4.566406 -0.90625 4.234375 -0.5 C 3.910156 -0.101562 3.394531 0.09375 2.6875 0.09375 Z M 3.421875 -4.328125 L 3.421875 -4.984375 C 3.421875 -5.472656 3.375 -5.820312 3.28125 -6.03125 C 3.1875 -6.25 2.984375 -6.359375 2.671875 -6.359375 C 2.453125 -6.359375 2.285156 -6.304688 2.171875 -6.203125 C 2.054688 -6.109375 1.976562 -5.945312 1.9375 -5.71875 C 1.894531 -5.488281 1.875 -5.15625 1.875 -4.71875 L 1.875 -4.328125 Z M 3.421875 -4.328125 "/></g></g></g><g fill="#ffffff" fill-opacity="1"><g transform="translate(133.963938, 15.583589)"><g><path d="M 2.359375 0.09375 C 1.773438 0.09375 1.300781 -0.0859375 0.9375 -0.453125 C 0.570312 -0.816406 0.363281 -1.3125 0.3125 -1.9375 L 1.4375 -2.265625 C 1.5 -1.796875 1.609375 -1.445312 1.765625 -1.21875 C 1.929688 -1 2.164062 -0.890625 2.46875 -0.890625 C 2.707031 -0.890625 2.890625 -0.957031 3.015625 -1.09375 C 3.148438 -1.238281 3.21875 -1.425781 3.21875 -1.65625 C 3.21875 -1.863281 3.171875 -2.050781 3.078125 -2.21875 C 2.984375 -2.382812 2.832031 -2.554688 2.625 -2.734375 L 1.375 -3.796875 C 1.09375 -4.046875 0.875 -4.304688 0.71875 -4.578125 C 0.5625 -4.847656 0.484375 -5.179688 0.484375 -5.578125 C 0.484375 -6.128906 0.648438 -6.5625 0.984375 -6.875 C 1.328125 -7.195312 1.785156 -7.359375 2.359375 -7.359375 C 2.910156 -7.359375 3.34375 -7.175781 3.65625 -6.8125 C 3.96875 -6.457031 4.148438 -6 4.203125 -5.4375 L 3.296875 -5.109375 C 3.242188 -5.515625 3.148438 -5.820312 3.015625 -6.03125 C 2.878906 -6.25 2.675781 -6.359375 2.40625 -6.359375 C 2.1875 -6.359375 2.007812 -6.285156 1.875 -6.140625 C 1.75 -6.003906 1.6875 -5.832031 1.6875 -5.625 C 1.6875 -5.351562 1.8125 -5.109375 2.0625 -4.890625 L 3.34375 -3.71875 C 3.664062 -3.414062 3.914062 -3.117188 4.09375 -2.828125 C 4.269531 -2.535156 4.359375 -2.175781 4.359375 -1.75 C 4.359375 -1.15625 4.175781 -0.695312 3.8125 -0.375 C 3.457031 -0.0625 2.972656 0.09375 2.359375 0.09375 Z M 2.359375 0.09375 "/></g></g></g><g fill="#ffffff" fill-opacity="1"><g transform="translate(140.526981, 15.583589)"><g><path d="M 0.765625 -9.734375 L 2.109375 -9.734375 L 2.109375 -8.328125 L 0.765625 -8.328125 Z M 0.765625 -7.25 L 2.109375 -7.25 L 2.109375 0 L 0.765625 0 Z M 0.765625 -7.25 "/></g></g></g><g fill="#ffffff" fill-opacity="1"><g transform="translate(145.270716, 15.583589)"><g><path d="M 2.5625 2.25 C 1.851562 2.25 1.289062 2.132812 0.875 1.90625 C 0.457031 1.6875 0.25 1.34375 0.25 0.875 C 0.25 0.5625 0.347656 0.285156 0.546875 0.046875 C 0.742188 -0.179688 0.992188 -0.367188 1.296875 -0.515625 C 1.066406 -0.578125 0.890625 -0.679688 0.765625 -0.828125 C 0.648438 -0.972656 0.59375 -1.128906 0.59375 -1.296875 C 0.59375 -1.546875 0.65625 -1.757812 0.78125 -1.9375 C 0.90625 -2.125 1.109375 -2.347656 1.390625 -2.609375 C 1.109375 -2.828125 0.894531 -3.097656 0.75 -3.421875 C 0.613281 -3.753906 0.546875 -4.203125 0.546875 -4.765625 C 0.546875 -5.609375 0.71875 -6.25 1.0625 -6.6875 C 1.414062 -7.132812 1.925781 -7.359375 2.59375 -7.359375 C 2.976562 -7.359375 3.289062 -7.289062 3.53125 -7.15625 C 3.78125 -7.019531 3.96875 -6.816406 4.09375 -6.546875 C 4.144531 -6.640625 4.265625 -6.765625 4.453125 -6.921875 C 4.648438 -7.078125 4.851562 -7.203125 5.0625 -7.296875 L 5.265625 -7.390625 L 5.609375 -6.53125 C 5.441406 -6.488281 5.207031 -6.410156 4.90625 -6.296875 C 4.613281 -6.191406 4.4375 -6.113281 4.375 -6.0625 C 4.4375 -5.90625 4.488281 -5.691406 4.53125 -5.421875 C 4.582031 -5.160156 4.609375 -4.929688 4.609375 -4.734375 C 4.609375 -3.929688 4.453125 -3.3125 4.140625 -2.875 C 3.828125 -2.4375 3.3125 -2.21875 2.59375 -2.21875 C 2.375 -2.21875 2.144531 -2.25 1.90625 -2.3125 C 1.75 -2.070312 1.671875 -1.882812 1.671875 -1.75 C 1.671875 -1.664062 1.71875 -1.59375 1.8125 -1.53125 C 1.90625 -1.476562 2.054688 -1.445312 2.265625 -1.4375 L 3.40625 -1.328125 C 3.96875 -1.273438 4.382812 -1.101562 4.65625 -0.8125 C 4.9375 -0.519531 5.078125 -0.101562 5.078125 0.4375 C 5.078125 1.644531 4.238281 2.25 2.5625 2.25 Z M 2.59375 -3.15625 C 2.957031 -3.15625 3.191406 -3.28125 3.296875 -3.53125 C 3.410156 -3.789062 3.46875 -4.203125 3.46875 -4.765625 C 3.46875 -5.347656 3.410156 -5.769531 3.296875 -6.03125 C 3.191406 -6.289062 2.960938 -6.421875 2.609375 -6.421875 C 2.253906 -6.421875 2.015625 -6.289062 1.890625 -6.03125 C 1.773438 -5.769531 1.71875 -5.347656 1.71875 -4.765625 C 1.71875 -4.242188 1.773438 -3.84375 1.890625 -3.5625 C 2.015625 -3.289062 2.25 -3.15625 2.59375 -3.15625 Z M 2.65625 1.1875 C 3.132812 1.1875 3.484375 1.128906 3.703125 1.015625 C 3.929688 0.910156 4.046875 0.734375 4.046875 0.484375 C 4.046875 0.242188 3.972656 0.0664062 3.828125 -0.046875 C 3.691406 -0.160156 3.4375 -0.234375 3.0625 -0.265625 L 1.921875 -0.359375 C 1.742188 -0.179688 1.609375 -0.03125 1.515625 0.09375 C 1.421875 0.226562 1.375 0.378906 1.375 0.546875 C 1.375 0.765625 1.46875 0.925781 1.65625 1.03125 C 1.84375 1.132812 2.175781 1.1875 2.65625 1.1875 Z M 2.65625 1.1875 "/></g></g></g><g fill="#ffffff" fill-opacity="1"><g transform="translate(152.599129, 15.583589)"><g><path d="M 0.671875 -7.25 L 2.015625 -7.25 L 2.015625 -6.53125 C 2.597656 -7.082031 3.191406 -7.359375 3.796875 -7.359375 C 4.179688 -7.359375 4.457031 -7.210938 4.625 -6.921875 C 4.789062 -6.640625 4.875 -6.289062 4.875 -5.875 L 4.875 0 L 3.53125 0 L 3.53125 -5.484375 C 3.53125 -5.753906 3.488281 -5.957031 3.40625 -6.09375 C 3.320312 -6.226562 3.175781 -6.296875 2.96875 -6.296875 C 2.695312 -6.296875 2.378906 -6.144531 2.015625 -5.84375 L 2.015625 0 L 0.671875 0 Z M 0.671875 -7.25 "/></g></g></g></g></g><g transform="matrix(1, 0, 0, 1, 105, 162)"><g clip-path="url(#d03d0a459f)"><g fill="#ffffff" fill-opacity="1"><g transform="translate(1.0553, 7.241295)"><g><path d="M 0.578125 0 L 0.578125 -5.109375 L 2.296875 -5.109375 C 2.765625 -5.109375 3.179688 -5 3.546875 -4.78125 C 3.921875 -4.5625 4.210938 -4.257812 4.421875 -3.875 C 4.640625 -3.488281 4.75 -3.046875 4.75 -2.546875 C 4.75 -2.054688 4.640625 -1.617188 4.421875 -1.234375 C 4.210938 -0.847656 3.921875 -0.546875 3.546875 -0.328125 C 3.179688 -0.109375 2.765625 0 2.296875 0 Z M 2.296875 -0.546875 C 2.648438 -0.546875 2.96875 -0.628906 3.25 -0.796875 C 3.53125 -0.960938 3.75 -1.195312 3.90625 -1.5 C 4.070312 -1.8125 4.15625 -2.160156 4.15625 -2.546875 C 4.15625 -2.941406 4.070312 -3.289062 3.90625 -3.59375 C 3.75 -3.90625 3.53125 -4.144531 3.25 -4.3125 C 2.96875 -4.476562 2.648438 -4.5625 2.296875 -4.5625 L 1.171875 -4.5625 L 1.171875 -0.546875 Z M 2.296875 -0.546875 "/></g></g></g><g fill="#ffffff" fill-opacity="1"><g transform="translate(6.623196, 7.241295)"><g><path d="M 1.171875 0 L 0.578125 0 L 0.578125 -5.109375 L 1.171875 -5.109375 Z M 1.171875 0 "/></g></g></g><g fill="#ffffff" fill-opacity="1"><g transform="translate(8.834297, 7.241295)"><g><path d="M 2.984375 -2.625 L 5.109375 -2.625 L 5.109375 0 L 4.640625 0 L 4.5625 -0.734375 L 4.53125 -0.734375 C 4.363281 -0.523438 4.125 -0.335938 3.8125 -0.171875 C 3.507812 -0.00390625 3.175781 0.078125 2.8125 0.078125 C 2.363281 0.078125 1.953125 -0.03125 1.578125 -0.25 C 1.203125 -0.476562 0.90625 -0.789062 0.6875 -1.1875 C 0.46875 -1.582031 0.359375 -2.035156 0.359375 -2.546875 C 0.359375 -3.054688 0.46875 -3.507812 0.6875 -3.90625 C 0.90625 -4.3125 1.203125 -4.625 1.578125 -4.84375 C 1.953125 -5.070312 2.363281 -5.1875 2.8125 -5.1875 C 3.320312 -5.1875 3.785156 -5.039062 4.203125 -4.75 C 4.617188 -4.457031 4.910156 -4.066406 5.078125 -3.578125 L 4.453125 -3.578125 C 4.304688 -3.898438 4.082031 -4.15625 3.78125 -4.34375 C 3.476562 -4.539062 3.15625 -4.640625 2.8125 -4.640625 C 2.46875 -4.640625 2.148438 -4.550781 1.859375 -4.375 C 1.578125 -4.195312 1.351562 -3.945312 1.1875 -3.625 C 1.03125 -3.3125 0.953125 -2.953125 0.953125 -2.546875 C 0.953125 -2.148438 1.03125 -1.789062 1.1875 -1.46875 C 1.351562 -1.15625 1.578125 -0.910156 1.859375 -0.734375 C 2.148438 -0.554688 2.46875 -0.46875 2.8125 -0.46875 C 3.101562 -0.46875 3.378906 -0.539062 3.640625 -0.6875 C 3.910156 -0.84375 4.125 -1.039062 4.28125 -1.28125 C 4.445312 -1.53125 4.53125 -1.785156 4.53125 -2.046875 L 4.53125 -2.109375 L 2.984375 -2.109375 Z M 2.984375 -2.625 "/></g></g></g><g fill="#ffffff" fill-opacity="1"><g transform="translate(14.913013, 7.241295)"><g><path d="M 1.171875 0 L 0.578125 0 L 0.578125 -5.109375 L 1.171875 -5.109375 Z M 1.171875 0 "/></g></g></g><g fill="#ffffff" fill-opacity="1"><g transform="translate(17.124114, 7.241295)"><g><path d="M 2.4375 0 L 1.859375 0 L 1.859375 -4.5625 L 0.1875 -4.5625 L 0.1875 -5.109375 L 4.125 -5.109375 L 4.125 -4.5625 L 2.4375 -4.5625 Z M 2.4375 0 "/></g></g></g><g fill="#ffffff" fill-opacity="1"><g transform="translate(21.889299, 7.241295)"><g><path d="M 4.75 0 L 4.125 0 L 3.640625 -1.3125 L 1.109375 -1.3125 L 0.625 0 L 0 0 L 1.9375 -5.109375 L 2.8125 -5.109375 Z M 2.296875 -4.484375 L 1.3125 -1.859375 L 3.421875 -1.859375 L 2.4375 -4.484375 Z M 2.296875 -4.484375 "/></g></g></g><g fill="#ffffff" fill-opacity="1"><g transform="translate(27.092324, 7.241295)"><g><path d="M 3.71875 0 L 0.578125 0 L 0.578125 -5.109375 L 1.171875 -5.109375 L 1.171875 -0.546875 L 3.71875 -0.546875 Z M 3.71875 0 "/></g></g></g><g fill="#ffffff" fill-opacity="1"><g transform="translate(31.419667, 7.241295)"><g/></g></g><g fill="#ffffff" fill-opacity="1"><g transform="translate(33.557799, 7.241295)"><g><path d="M 2.390625 0 L 1.390625 0 L 0.109375 -5.109375 L 0.734375 -5.109375 L 1.828125 -0.625 L 1.96875 -0.625 L 3.140625 -5.109375 L 4.015625 -5.109375 L 5.1875 -0.625 L 5.328125 -0.625 L 6.421875 -5.109375 L 7.046875 -5.109375 L 5.765625 0 L 4.75 0 L 3.640625 -4.265625 L 3.5 -4.265625 Z M 2.390625 0 "/></g></g></g><g fill="#ffffff" fill-opacity="1"><g transform="translate(41.168966, 7.241295)"><g><path d="M 2.8125 0.078125 C 2.363281 0.078125 1.953125 -0.03125 1.578125 -0.25 C 1.203125 -0.476562 0.90625 -0.789062 0.6875 -1.1875 C 0.46875 -1.582031 0.359375 -2.035156 0.359375 -2.546875 C 0.359375 -3.054688 0.46875 -3.507812 0.6875 -3.90625 C 0.90625 -4.3125 1.203125 -4.625 1.578125 -4.84375 C 1.953125 -5.070312 2.363281 -5.1875 2.8125 -5.1875 C 3.257812 -5.1875 3.671875 -5.070312 4.046875 -4.84375 C 4.421875 -4.625 4.710938 -4.3125 4.921875 -3.90625 C 5.140625 -3.507812 5.25 -3.054688 5.25 -2.546875 C 5.25 -2.035156 5.140625 -1.582031 4.921875 -1.1875 C 4.710938 -0.789062 4.421875 -0.476562 4.046875 -0.25 C 3.671875 -0.03125 3.257812 0.078125 2.8125 0.078125 Z M 2.8125 -0.46875 C 3.144531 -0.46875 3.453125 -0.554688 3.734375 -0.734375 C 4.023438 -0.910156 4.253906 -1.15625 4.421875 -1.46875 C 4.585938 -1.789062 4.671875 -2.148438 4.671875 -2.546875 C 4.671875 -2.953125 4.585938 -3.3125 4.421875 -3.625 C 4.253906 -3.945312 4.023438 -4.195312 3.734375 -4.375 C 3.453125 -4.550781 3.144531 -4.640625 2.8125 -4.640625 C 2.46875 -4.640625 2.148438 -4.550781 1.859375 -4.375 C 1.578125 -4.195312 1.351562 -3.945312 1.1875 -3.625 C 1.03125 -3.3125 0.953125 -2.953125 0.953125 -2.546875 C 0.953125 -2.148438 1.03125 -1.789062 1.1875 -1.46875 C 1.351562 -1.15625 1.578125 -0.910156 1.859375 -0.734375 C 2.148438 -0.554688 2.46875 -0.46875 2.8125 -0.46875 Z M 2.8125 -0.46875 "/></g></g></g><g fill="#ffffff" fill-opacity="1"><g transform="translate(47.247681, 7.241295)"><g><path d="M 2.328125 -1.96875 L 4.375 0 L 3.640625 0 L 1.609375 -1.96875 L 1.171875 -1.96875 L 1.171875 0 L 0.578125 0 L 0.578125 -5.109375 L 2.8125 -5.109375 C 3.070312 -5.109375 3.3125 -5.039062 3.53125 -4.90625 C 3.757812 -4.769531 3.9375 -4.582031 4.0625 -4.34375 C 4.195312 -4.101562 4.265625 -3.832031 4.265625 -3.53125 C 4.265625 -3.238281 4.195312 -2.972656 4.0625 -2.734375 C 3.9375 -2.492188 3.757812 -2.304688 3.53125 -2.171875 C 3.3125 -2.035156 3.070312 -1.96875 2.8125 -1.96875 Z M 1.171875 -2.515625 L 2.8125 -2.515625 C 3.050781 -2.515625 3.253906 -2.609375 3.421875 -2.796875 C 3.597656 -2.992188 3.6875 -3.238281 3.6875 -3.53125 C 3.6875 -3.832031 3.597656 -4.078125 3.421875 -4.265625 C 3.253906 -4.460938 3.050781 -4.5625 2.8125 -4.5625 L 1.171875 -4.5625 Z M 1.171875 -2.515625 "/></g></g></g><g fill="#ffffff" fill-opacity="1"><g transform="translate(52.377736, 7.241295)"><g><path d="M 1.171875 0 L 0.578125 0 L 0.578125 -5.109375 L 1.171875 -5.109375 L 1.171875 -2.703125 L 3.3125 -5.109375 L 4.046875 -5.109375 L 1.78125 -2.59375 L 4.203125 0 L 3.453125 0 L 1.171875 -2.484375 Z M 1.171875 0 "/></g></g></g></g></g><g transform="matrix(1, 0, 0, 1, 105, 176)"><g clip-path="url(#952348d569)"><g fill="#ffffff" fill-opacity="1"><g transform="translate(1.0553, 7.703608)"><g><path d="M 2.4375 0 L 1.859375 0 L 1.859375 -4.5625 L 0.1875 -4.5625 L 0.1875 -5.109375 L 4.125 -5.109375 L 4.125 -4.5625 L 2.4375 -4.5625 Z M 2.4375 0 "/></g></g></g><g fill="#ffffff" fill-opacity="1"><g transform="translate(5.817872, 7.703608)"><g><path d="M 2.328125 -1.96875 L 4.375 0 L 3.640625 0 L 1.609375 -1.96875 L 1.171875 -1.96875 L 1.171875 0 L 0.578125 0 L 0.578125 -5.109375 L 2.8125 -5.109375 C 3.070312 -5.109375 3.3125 -5.039062 3.53125 -4.90625 C 3.757812 -4.769531 3.9375 -4.582031 4.0625 -4.34375 C 4.195312 -4.101562 4.265625 -3.832031 4.265625 -3.53125 C 4.265625 -3.238281 4.195312 -2.972656 4.0625 -2.734375 C 3.9375 -2.492188 3.757812 -2.304688 3.53125 -2.171875 C 3.3125 -2.035156 3.070312 -1.96875 2.8125 -1.96875 Z M 1.171875 -2.515625 L 2.8125 -2.515625 C 3.050781 -2.515625 3.253906 -2.609375 3.421875 -2.796875 C 3.597656 -2.992188 3.6875 -3.238281 3.6875 -3.53125 C 3.6875 -3.832031 3.597656 -4.078125 3.421875 -4.265625 C 3.253906 -4.460938 3.050781 -4.5625 2.8125 -4.5625 L 1.171875 -4.5625 Z M 1.171875 -2.515625 "/></g></g></g><g fill="#ffffff" fill-opacity="1"><g transform="translate(10.945091, 7.703608)"><g><path d="M 4.75 0 L 4.125 0 L 3.640625 -1.3125 L 1.109375 -1.3125 L 0.625 0 L 0 0 L 1.9375 -5.109375 L 2.8125 -5.109375 Z M 2.296875 -4.484375 L 1.3125 -1.859375 L 3.421875 -1.859375 L 2.4375 -4.484375 Z M 2.296875 -4.484375 "/></g></g></g><g fill="#ffffff" fill-opacity="1"><g transform="translate(16.14524, 7.703608)"><g><path d="M 0.578125 0 L 0.578125 -5.109375 L 2.296875 -5.109375 C 2.765625 -5.109375 3.179688 -5 3.546875 -4.78125 C 3.921875 -4.5625 4.210938 -4.257812 4.421875 -3.875 C 4.640625 -3.488281 4.75 -3.046875 4.75 -2.546875 C 4.75 -2.054688 4.640625 -1.617188 4.421875 -1.234375 C 4.210938 -0.847656 3.921875 -0.546875 3.546875 -0.328125 C 3.179688 -0.109375 2.765625 0 2.296875 0 Z M 2.296875 -0.546875 C 2.648438 -0.546875 2.96875 -0.628906 3.25 -0.796875 C 3.53125 -0.960938 3.75 -1.195312 3.90625 -1.5 C 4.070312 -1.8125 4.15625 -2.160156 4.15625 -2.546875 C 4.15625 -2.941406 4.070312 -3.289062 3.90625 -3.59375 C 3.75 -3.90625 3.53125 -4.144531 3.25 -4.3125 C 2.96875 -4.476562 2.648438 -4.5625 2.296875 -4.5625 L 1.171875 -4.5625 L 1.171875 -0.546875 Z M 2.296875 -0.546875 "/></g></g></g><g fill="#ffffff" fill-opacity="1"><g transform="translate(21.710037, 7.703608)"><g><path d="M 1.171875 0 L 0.578125 0 L 0.578125 -5.109375 L 1.171875 -5.109375 Z M 1.171875 0 "/></g></g></g><g fill="#ffffff" fill-opacity="1"><g transform="translate(23.92008, 7.703608)"><g><path d="M 2.4375 0 L 1.859375 0 L 1.859375 -4.5625 L 0.1875 -4.5625 L 0.1875 -5.109375 L 4.125 -5.109375 L 4.125 -4.5625 L 2.4375 -4.5625 Z M 2.4375 0 "/></g></g></g><g fill="#ffffff" fill-opacity="1"><g transform="translate(28.682651, 7.703608)"><g><path d="M 1.171875 0 L 0.578125 0 L 0.578125 -5.109375 L 1.171875 -5.109375 Z M 1.171875 0 "/></g></g></g><g fill="#ffffff" fill-opacity="1"><g transform="translate(30.892694, 7.703608)"><g><path d="M 2.8125 0.078125 C 2.363281 0.078125 1.953125 -0.03125 1.578125 -0.25 C 1.203125 -0.476562 0.90625 -0.789062 0.6875 -1.1875 C 0.46875 -1.582031 0.359375 -2.035156 0.359375 -2.546875 C 0.359375 -3.054688 0.46875 -3.507812 0.6875 -3.90625 C 0.90625 -4.3125 1.203125 -4.625 1.578125 -4.84375 C 1.953125 -5.070312 2.363281 -5.1875 2.8125 -5.1875 C 3.257812 -5.1875 3.671875 -5.070312 4.046875 -4.84375 C 4.421875 -4.625 4.710938 -4.3125 4.921875 -3.90625 C 5.140625 -3.507812 5.25 -3.054688 5.25 -2.546875 C 5.25 -2.035156 5.140625 -1.582031 4.921875 -1.1875 C 4.710938 -0.789062 4.421875 -0.476562 4.046875 -0.25 C 3.671875 -0.03125 3.257812 0.078125 2.8125 0.078125 Z M 2.8125 -0.46875 C 3.144531 -0.46875 3.453125 -0.554688 3.734375 -0.734375 C 4.023438 -0.910156 4.253906 -1.15625 4.421875 -1.46875 C 4.585938 -1.789062 4.671875 -2.148438 4.671875 -2.546875 C 4.671875 -2.953125 4.585938 -3.3125 4.421875 -3.625 C 4.253906 -3.945312 4.023438 -4.195312 3.734375 -4.375 C 3.453125 -4.550781 3.144531 -4.640625 2.8125 -4.640625 C 2.46875 -4.640625 2.148438 -4.550781 1.859375 -4.375 C 1.578125 -4.195312 1.351562 -3.945312 1.1875 -3.625 C 1.03125 -3.3125 0.953125 -2.953125 0.953125 -2.546875 C 0.953125 -2.148438 1.03125 -1.789062 1.1875 -1.46875 C 1.351562 -1.15625 1.578125 -0.910156 1.859375 -0.734375 C 2.148438 -0.554688 2.46875 -0.46875 2.8125 -0.46875 Z M 2.8125 -0.46875 "/></g></g></g><g fill="#ffffff" fill-opacity="1"><g transform="translate(36.968, 7.703608)"><g><path d="M 1.171875 0 L 0.578125 0 L 0.578125 -5.109375 L 1.5625 -5.109375 L 3.875 -0.6875 L 4.015625 -0.6875 L 4.015625 -5.109375 L 4.59375 -5.109375 L 4.59375 0 L 3.609375 0 L 1.3125 -4.421875 L 1.171875 -4.421875 Z M 1.171875 0 "/></g></g></g><g fill="#ffffff" fill-opacity="1"><g transform="translate(42.605728, 7.703608)"><g><path d="M 4.75 0 L 4.125 0 L 3.640625 -1.3125 L 1.109375 -1.3125 L 0.625 0 L 0 0 L 1.9375 -5.109375 L 2.8125 -5.109375 Z M 2.296875 -4.484375 L 1.3125 -1.859375 L 3.421875 -1.859375 L 2.4375 -4.484375 Z M 2.296875 -4.484375 "/></g></g></g><g fill="#ffffff" fill-opacity="1"><g transform="translate(47.805877, 7.703608)"><g><path d="M 3.71875 0 L 0.578125 0 L 0.578125 -5.109375 L 1.171875 -5.109375 L 1.171875 -0.546875 L 3.71875 -0.546875 Z M 3.71875 0 "/></g></g></g><g fill="#ffffff" fill-opacity="1"><g transform="translate(52.130871, 7.703608)"><g/></g></g><g fill="#ffffff" fill-opacity="1"><g transform="translate(54.267983, 7.703608)"><g><path d="M 2.390625 0 L 1.390625 0 L 0.109375 -5.109375 L 0.734375 -5.109375 L 1.828125 -0.625 L 1.96875 -0.625 L 3.140625 -5.109375 L 4.015625 -5.109375 L 5.1875 -0.625 L 5.328125 -0.625 L 6.421875 -5.109375 L 7.046875 -5.109375 L 5.765625 0 L 4.75 0 L 3.640625 -4.265625 L 3.5 -4.265625 Z M 2.390625 0 "/></g></g></g><g fill="#ffffff" fill-opacity="1"><g transform="translate(61.874807, 7.703608)"><g><path d="M 2.8125 0.078125 C 2.363281 0.078125 1.953125 -0.03125 1.578125 -0.25 C 1.203125 -0.476562 0.90625 -0.789062 0.6875 -1.1875 C 0.46875 -1.582031 0.359375 -2.035156 0.359375 -2.546875 C 0.359375 -3.054688 0.46875 -3.507812 0.6875 -3.90625 C 0.90625 -4.3125 1.203125 -4.625 1.578125 -4.84375 C 1.953125 -5.070312 2.363281 -5.1875 2.8125 -5.1875 C 3.257812 -5.1875 3.671875 -5.070312 4.046875 -4.84375 C 4.421875 -4.625 4.710938 -4.3125 4.921875 -3.90625 C 5.140625 -3.507812 5.25 -3.054688 5.25 -2.546875 C 5.25 -2.035156 5.140625 -1.582031 4.921875 -1.1875 C 4.710938 -0.789062 4.421875 -0.476562 4.046875 -0.25 C 3.671875 -0.03125 3.257812 0.078125 2.8125 0.078125 Z M 2.8125 -0.46875 C 3.144531 -0.46875 3.453125 -0.554688 3.734375 -0.734375 C 4.023438 -0.910156 4.253906 -1.15625 4.421875 -1.46875 C 4.585938 -1.789062 4.671875 -2.148438 4.671875 -2.546875 C 4.671875 -2.953125 4.585938 -3.3125 4.421875 -3.625 C 4.253906 -3.945312 4.023438 -4.195312 3.734375 -4.375 C 3.453125 -4.550781 3.144531 -4.640625 2.8125 -4.640625 C 2.46875 -4.640625 2.148438 -4.550781 1.859375 -4.375 C 1.578125 -4.195312 1.351562 -3.945312 1.1875 -3.625 C 1.03125 -3.3125 0.953125 -2.953125 0.953125 -2.546875 C 0.953125 -2.148438 1.03125 -1.789062 1.1875 -1.46875 C 1.351562 -1.15625 1.578125 -0.910156 1.859375 -0.734375 C 2.148438 -0.554688 2.46875 -0.46875 2.8125 -0.46875 Z M 2.8125 -0.46875 "/></g></g></g><g fill="#ffffff" fill-opacity="1"><g transform="translate(67.950113, 7.703608)"><g><path d="M 2.328125 -1.96875 L 4.375 0 L 3.640625 0 L 1.609375 -1.96875 L 1.171875 -1.96875 L 1.171875 0 L 0.578125 0 L 0.578125 -5.109375 L 2.8125 -5.109375 C 3.070312 -5.109375 3.3125 -5.039062 3.53125 -4.90625 C 3.757812 -4.769531 3.9375 -4.582031 4.0625 -4.34375 C 4.195312 -4.101562 4.265625 -3.832031 4.265625 -3.53125 C 4.265625 -3.238281 4.195312 -2.972656 4.0625 -2.734375 C 3.9375 -2.492188 3.757812 -2.304688 3.53125 -2.171875 C 3.3125 -2.035156 3.070312 -1.96875 2.8125 -1.96875 Z M 1.171875 -2.515625 L 2.8125 -2.515625 C 3.050781 -2.515625 3.253906 -2.609375 3.421875 -2.796875 C 3.597656 -2.992188 3.6875 -3.238281 3.6875 -3.53125 C 3.6875 -3.832031 3.597656 -4.078125 3.421875 -4.265625 C 3.253906 -4.460938 3.050781 -4.5625 2.8125 -4.5625 L 1.171875 -4.5625 Z M 1.171875 -2.515625 "/></g></g></g><g fill="#ffffff" fill-opacity="1"><g transform="translate(73.077332, 7.703608)"><g><path d="M 1.171875 0 L 0.578125 0 L 0.578125 -5.109375 L 1.171875 -5.109375 L 1.171875 -2.703125 L 3.3125 -5.109375 L 4.046875 -5.109375 L 1.78125 -2.59375 L 4.203125 0 L 3.453125 0 L 1.171875 -2.484375 Z M 1.171875 0 "/></g></g></g><g fill="#ffffff" fill-opacity="1"><g transform="translate(77.584649, 7.703608)"><g><path d="M 2.265625 0.078125 C 1.867188 0.078125 1.523438 0.00390625 1.234375 -0.140625 C 0.941406 -0.285156 0.71875 -0.476562 0.5625 -0.71875 C 0.40625 -0.957031 0.328125 -1.21875 0.328125 -1.5 L 0.90625 -1.5 C 0.90625 -1.3125 0.957031 -1.140625 1.0625 -0.984375 C 1.164062 -0.828125 1.320312 -0.703125 1.53125 -0.609375 C 1.738281 -0.515625 1.984375 -0.46875 2.265625 -0.46875 C 2.691406 -0.46875 3.007812 -0.550781 3.21875 -0.71875 C 3.425781 -0.894531 3.53125 -1.117188 3.53125 -1.390625 C 3.53125 -1.609375 3.457031 -1.785156 3.3125 -1.921875 C 3.164062 -2.066406 2.945312 -2.164062 2.65625 -2.21875 L 1.671875 -2.40625 C 0.847656 -2.5625 0.4375 -3 0.4375 -3.71875 C 0.4375 -4 0.503906 -4.25 0.640625 -4.46875 C 0.785156 -4.6875 0.988281 -4.859375 1.25 -4.984375 C 1.519531 -5.117188 1.832031 -5.1875 2.1875 -5.1875 C 2.570312 -5.1875 2.90625 -5.113281 3.1875 -4.96875 C 3.476562 -4.832031 3.703125 -4.644531 3.859375 -4.40625 C 4.015625 -4.164062 4.09375 -3.898438 4.09375 -3.609375 L 3.5 -3.609375 C 3.5 -3.796875 3.445312 -3.96875 3.34375 -4.125 C 3.238281 -4.28125 3.085938 -4.40625 2.890625 -4.5 C 2.691406 -4.59375 2.457031 -4.640625 2.1875 -4.640625 C 1.820312 -4.640625 1.535156 -4.550781 1.328125 -4.375 C 1.117188 -4.207031 1.015625 -3.988281 1.015625 -3.71875 C 1.015625 -3.519531 1.082031 -3.347656 1.21875 -3.203125 C 1.363281 -3.054688 1.578125 -2.960938 1.859375 -2.921875 L 2.65625 -2.765625 C 3.164062 -2.679688 3.535156 -2.523438 3.765625 -2.296875 C 4.003906 -2.078125 4.125 -1.773438 4.125 -1.390625 C 4.125 -1.109375 4.050781 -0.851562 3.90625 -0.625 C 3.757812 -0.40625 3.546875 -0.234375 3.265625 -0.109375 C 2.984375 0.015625 2.648438 0.078125 2.265625 0.078125 Z M 2.265625 0.078125 "/></g></g></g></g></g></svg>