<svg xmlns="http://www.w3.org/2000/svg" xmlns:xlink="http://www.w3.org/1999/xlink" width="500" zoomAndPan="magnify" viewBox="0 0 375 374.999991" height="500" preserveAspectRatio="xMidYMid meet" version="1.0"><defs><g/><clipPath id="0476aecac0"><path d="M 71.546875 113.417969 L 241.121094 113.417969 L 241.121094 261.582031 L 71.546875 261.582031 Z M 71.546875 113.417969 " clip-rule="nonzero"/></clipPath><clipPath id="9b1d3aedb7"><path d="M 78.601562 113.417969 L 234.023438 113.417969 C 237.917969 113.417969 241.078125 116.578125 241.078125 120.472656 L 241.078125 254.527344 C 241.078125 258.421875 237.917969 261.582031 234.023438 261.582031 L 78.601562 261.582031 C 74.707031 261.582031 71.546875 258.421875 71.546875 254.527344 L 71.546875 120.472656 C 71.546875 116.578125 74.707031 113.417969 78.601562 113.417969 Z M 78.601562 113.417969 " clip-rule="nonzero"/></clipPath><clipPath id="97779afbeb"><path d="M 0.546875 0.417969 L 170.121094 0.417969 L 170.121094 148.582031 L 0.546875 148.582031 Z M 0.546875 0.417969 " clip-rule="nonzero"/></clipPath><clipPath id="d8692136d3"><path d="M 7.601562 0.417969 L 163.023438 0.417969 C 166.917969 0.417969 170.078125 3.578125 170.078125 7.472656 L 170.078125 141.527344 C 170.078125 145.421875 166.917969 148.582031 163.023438 148.582031 L 7.601562 148.582031 C 3.707031 148.582031 0.546875 145.421875 0.546875 141.527344 L 0.546875 7.472656 C 0.546875 3.578125 3.707031 0.417969 7.601562 0.417969 Z M 7.601562 0.417969 " clip-rule="nonzero"/></clipPath><clipPath id="9ec19baf58"><rect x="0" width="171" y="0" height="149"/></clipPath><clipPath id="70afc17913"><path d="M 263 199 L 283 199 L 283 249.339844 L 263 249.339844 Z M 263 199 " clip-rule="nonzero"/></clipPath><clipPath id="cb216d4a34"><path d="M 200 199 L 220 199 L 220 249.339844 L 200 249.339844 Z M 200 199 " clip-rule="nonzero"/></clipPath><clipPath id="8b7035f5b2"><path d="M 179.632812 125.589844 L 303.382812 125.589844 L 303.382812 224 L 179.632812 224 Z M 179.632812 125.589844 " clip-rule="nonzero"/></clipPath><clipPath id="68074ebd54"><rect x="0" width="118" y="0" height="20"/></clipPath><clipPath id="af382d7d02"><path d="M 0.601562 20 L 8 20 L 8 26 L 0.601562 26 Z M 0.601562 20 " clip-rule="nonzero"/></clipPath><clipPath id="09136f6f84"><path d="M 117 20 L 121.800781 20 L 121.800781 27 L 117 27 Z M 117 20 " clip-rule="nonzero"/></clipPath><clipPath id="1c2b920dab"><rect x="0" width="122" y="0" height="29"/></clipPath></defs><rect x="-37.5" width="450" fill="#ffffff" y="-37.499999" height="449.999989" fill-opacity="1"/><rect x="-37.5" width="450" fill="#ffffff" y="-37.499999" height="449.999989" fill-opacity="1"/><g clip-path="url(#0476aecac0)"><g clip-path="url(#9b1d3aedb7)"><g transform="matrix(1, 0, 0, 1, 71, 113)"><g clip-path="url(#9ec19baf58)"><g clip-path="url(#97779afbeb)"><g clip-path="url(#d8692136d3)"><path fill="#cb7849" d="M 0.546875 0.417969 L 170.121094 0.417969 L 170.121094 148.582031 L 0.546875 148.582031 Z M 0.546875 0.417969 " fill-opacity="1" fill-rule="nonzero"/></g></g></g></g></g></g><path fill="#cb7849" d="M 287.644531 210.34375 L 287.644531 238.417969 C 290.710938 237.332031 292.914062 234.402344 292.914062 230.96875 L 292.914062 217.796875 C 292.914062 214.359375 290.710938 211.433594 287.644531 210.34375 Z M 287.644531 210.34375 " fill-opacity="1" fill-rule="nonzero"/><g clip-path="url(#70afc17913)"><path fill="#cb7849" d="M 277.105469 199.355469 L 269.203125 199.355469 C 266.296875 199.355469 263.933594 201.71875 263.933594 204.621094 L 263.933594 244.140625 C 263.933594 247.046875 266.296875 249.410156 269.203125 249.410156 L 277.105469 249.410156 C 280.011719 249.410156 282.375 247.046875 282.375 244.140625 L 282.375 204.621094 C 282.375 201.71875 280.011719 199.355469 277.105469 199.355469 Z M 277.105469 199.355469 " fill-opacity="1" fill-rule="nonzero"/></g><path fill="#cb7849" d="M 190.167969 217.796875 L 190.167969 230.96875 C 190.167969 234.402344 192.371094 237.332031 195.4375 238.417969 L 195.4375 210.34375 C 192.371094 211.433594 190.167969 214.359375 190.167969 217.796875 Z M 190.167969 217.796875 " fill-opacity="1" fill-rule="nonzero"/><g clip-path="url(#cb216d4a34)"><path fill="#cb7849" d="M 213.878906 199.355469 L 205.976562 199.355469 C 203.070312 199.355469 200.707031 201.71875 200.707031 204.621094 L 200.707031 244.140625 C 200.707031 247.046875 203.070312 249.410156 205.976562 249.410156 L 213.878906 249.410156 C 216.785156 249.410156 219.148438 247.046875 219.148438 244.140625 L 219.148438 204.621094 C 219.148438 201.71875 216.785156 199.355469 213.878906 199.355469 Z M 213.878906 199.355469 " fill-opacity="1" fill-rule="nonzero"/></g><path fill="#cb7849" d="M 275.785156 149.238281 C 256.261719 131.75 226.8125 131.757812 207.296875 149.238281 C 209.972656 150.941406 213.378906 150.851562 215.980469 149.113281 C 231.347656 138.835938 251.675781 138.796875 267.101562 149.113281 C 269.695312 150.847656 273.105469 150.945312 275.785156 149.238281 Z M 275.785156 149.238281 " fill-opacity="1" fill-rule="nonzero"/><g clip-path="url(#8b7035f5b2)"><path fill="#cb7849" d="M 241.542969 125.589844 C 207.402344 125.589844 179.632812 153.363281 179.632812 187.5 L 179.632812 217.796875 C 179.632812 220.699219 181.996094 223.0625 184.898438 223.0625 C 184.898438 217.921875 184.898438 192.097656 184.898438 187.5 C 184.898438 156.195312 210.234375 130.859375 241.542969 130.859375 C 272.84375 130.859375 298.183594 156.191406 298.183594 187.5 C 298.183594 192.695312 298.183594 218.542969 298.183594 223.0625 C 301.085938 223.0625 303.453125 220.699219 303.453125 217.796875 L 303.453125 187.5 C 303.453125 153.363281 275.679688 125.589844 241.542969 125.589844 Z M 241.542969 125.589844 " fill-opacity="1" fill-rule="nonzero"/></g><g transform="matrix(1, 0, 0, 1, 99, 142)"><g clip-path="url(#68074ebd54)"><g fill="#ffffff" fill-opacity="1"><g transform="translate(0.769187, 15.515132)"><g><path d="M 0.671875 -7.25 L 1.921875 -7.25 L 1.921875 -6.5625 C 2.160156 -6.832031 2.425781 -7.035156 2.71875 -7.171875 C 3.007812 -7.304688 3.3125 -7.375 3.625 -7.375 C 4.238281 -7.375 4.632812 -7.070312 4.8125 -6.46875 C 5.3125 -7.070312 5.910156 -7.375 6.609375 -7.375 C 6.984375 -7.375 7.289062 -7.234375 7.53125 -6.953125 C 7.769531 -6.679688 7.890625 -6.265625 7.890625 -5.703125 L 7.890625 0 L 6.65625 0 L 6.65625 -5.609375 C 6.65625 -5.941406 6.601562 -6.171875 6.5 -6.296875 C 6.394531 -6.429688 6.238281 -6.5 6.03125 -6.5 C 5.851562 -6.5 5.660156 -6.445312 5.453125 -6.34375 C 5.253906 -6.238281 5.070312 -6.09375 4.90625 -5.90625 L 4.90625 0 L 3.671875 0 L 3.671875 -5.609375 C 3.671875 -5.941406 3.613281 -6.171875 3.5 -6.296875 C 3.394531 -6.429688 3.242188 -6.5 3.046875 -6.5 C 2.867188 -6.5 2.679688 -6.445312 2.484375 -6.34375 C 2.285156 -6.238281 2.097656 -6.09375 1.921875 -5.90625 L 1.921875 0 L 0.671875 0 Z M 0.671875 -7.25 "/></g></g></g><g fill="#ffffff" fill-opacity="1"><g transform="translate(11.171591, 15.515132)"><g><path d="M 1.71875 0.09375 C 1.320312 0.09375 1.039062 -0.046875 0.875 -0.328125 C 0.707031 -0.609375 0.625 -0.957031 0.625 -1.375 L 0.625 -7.25 L 1.96875 -7.25 L 1.96875 -1.78125 C 1.96875 -1.507812 2.007812 -1.300781 2.09375 -1.15625 C 2.175781 -1.019531 2.328125 -0.953125 2.546875 -0.953125 C 2.816406 -0.953125 3.128906 -1.101562 3.484375 -1.40625 L 3.484375 -7.25 L 4.828125 -7.25 L 4.828125 0 L 3.484375 0 L 3.484375 -0.71875 C 2.910156 -0.175781 2.320312 0.09375 1.71875 0.09375 Z M 1.71875 0.09375 "/></g></g></g><g fill="#ffffff" fill-opacity="1"><g transform="translate(18.562729, 15.515132)"><g><path d="M 2.359375 0.09375 C 1.773438 0.09375 1.300781 -0.0859375 0.9375 -0.453125 C 0.570312 -0.816406 0.363281 -1.3125 0.3125 -1.9375 L 1.4375 -2.265625 C 1.5 -1.796875 1.609375 -1.445312 1.765625 -1.21875 C 1.929688 -1 2.164062 -0.890625 2.46875 -0.890625 C 2.707031 -0.890625 2.890625 -0.957031 3.015625 -1.09375 C 3.148438 -1.238281 3.21875 -1.425781 3.21875 -1.65625 C 3.21875 -1.863281 3.171875 -2.050781 3.078125 -2.21875 C 2.984375 -2.382812 2.832031 -2.554688 2.625 -2.734375 L 1.375 -3.796875 C 1.09375 -4.046875 0.875 -4.304688 0.71875 -4.578125 C 0.5625 -4.847656 0.484375 -5.179688 0.484375 -5.578125 C 0.484375 -6.128906 0.648438 -6.5625 0.984375 -6.875 C 1.328125 -7.195312 1.785156 -7.359375 2.359375 -7.359375 C 2.910156 -7.359375 3.34375 -7.175781 3.65625 -6.8125 C 3.96875 -6.457031 4.148438 -6 4.203125 -5.4375 L 3.296875 -5.109375 C 3.242188 -5.515625 3.148438 -5.820312 3.015625 -6.03125 C 2.878906 -6.25 2.675781 -6.359375 2.40625 -6.359375 C 2.1875 -6.359375 2.007812 -6.285156 1.875 -6.140625 C 1.75 -6.003906 1.6875 -5.832031 1.6875 -5.625 C 1.6875 -5.351562 1.8125 -5.109375 2.0625 -4.890625 L 3.34375 -3.71875 C 3.664062 -3.414062 3.914062 -3.117188 4.09375 -2.828125 C 4.269531 -2.535156 4.359375 -2.175781 4.359375 -1.75 C 4.359375 -1.15625 4.175781 -0.695312 3.8125 -0.375 C 3.457031 -0.0625 2.972656 0.09375 2.359375 0.09375 Z M 2.359375 0.09375 "/></g></g></g><g fill="#ffffff" fill-opacity="1"><g transform="translate(25.125773, 15.515132)"><g><path d="M 0.765625 -9.734375 L 2.109375 -9.734375 L 2.109375 -8.328125 L 0.765625 -8.328125 Z M 0.765625 -7.25 L 2.109375 -7.25 L 2.109375 0 L 0.765625 0 Z M 0.765625 -7.25 "/></g></g></g><g fill="#ffffff" fill-opacity="1"><g transform="translate(29.869507, 15.515132)"><g><path d="M 2.65625 0.09375 C 2.09375 0.09375 1.65625 -0.0195312 1.34375 -0.25 C 1.03125 -0.476562 0.816406 -0.796875 0.703125 -1.203125 C 0.597656 -1.617188 0.546875 -2.144531 0.546875 -2.78125 L 0.546875 -4.453125 C 0.546875 -5.109375 0.597656 -5.644531 0.703125 -6.0625 C 0.816406 -6.476562 1.03125 -6.796875 1.34375 -7.015625 C 1.65625 -7.242188 2.09375 -7.359375 2.65625 -7.359375 C 3.175781 -7.359375 3.578125 -7.269531 3.859375 -7.09375 C 4.148438 -6.925781 4.351562 -6.675781 4.46875 -6.34375 C 4.582031 -6.019531 4.640625 -5.59375 4.640625 -5.0625 L 4.640625 -4.640625 L 3.421875 -4.640625 L 3.421875 -5.078125 C 3.421875 -5.554688 3.367188 -5.890625 3.265625 -6.078125 C 3.160156 -6.265625 2.960938 -6.359375 2.671875 -6.359375 C 2.441406 -6.359375 2.269531 -6.304688 2.15625 -6.203125 C 2.050781 -6.109375 1.976562 -5.945312 1.9375 -5.71875 C 1.894531 -5.488281 1.875 -5.160156 1.875 -4.734375 L 1.875 -2.453125 C 1.875 -2.023438 1.898438 -1.703125 1.953125 -1.484375 C 2.003906 -1.265625 2.085938 -1.109375 2.203125 -1.015625 C 2.316406 -0.929688 2.476562 -0.890625 2.6875 -0.890625 C 3 -0.890625 3.195312 -0.988281 3.28125 -1.1875 C 3.375 -1.394531 3.421875 -1.710938 3.421875 -2.140625 L 3.421875 -2.734375 L 4.640625 -2.734375 L 4.640625 -2.234375 C 4.640625 -1.441406 4.492188 -0.851562 4.203125 -0.46875 C 3.921875 -0.09375 3.40625 0.09375 2.65625 0.09375 Z M 2.65625 0.09375 "/></g></g></g><g fill="#ffffff" fill-opacity="1"><g transform="translate(36.896786, 15.515132)"><g/></g></g><g fill="#ffffff" fill-opacity="1"><g transform="translate(41.640521, 15.515132)"><g><path d="M 2.65625 0.09375 C 2.09375 0.09375 1.65625 -0.0195312 1.34375 -0.25 C 1.03125 -0.476562 0.816406 -0.796875 0.703125 -1.203125 C 0.597656 -1.617188 0.546875 -2.144531 0.546875 -2.78125 L 0.546875 -4.453125 C 0.546875 -5.109375 0.597656 -5.644531 0.703125 -6.0625 C 0.816406 -6.476562 1.03125 -6.796875 1.34375 -7.015625 C 1.65625 -7.242188 2.09375 -7.359375 2.65625 -7.359375 C 3.175781 -7.359375 3.578125 -7.269531 3.859375 -7.09375 C 4.148438 -6.925781 4.351562 -6.675781 4.46875 -6.34375 C 4.582031 -6.019531 4.640625 -5.59375 4.640625 -5.0625 L 4.640625 -4.640625 L 3.421875 -4.640625 L 3.421875 -5.078125 C 3.421875 -5.554688 3.367188 -5.890625 3.265625 -6.078125 C 3.160156 -6.265625 2.960938 -6.359375 2.671875 -6.359375 C 2.441406 -6.359375 2.269531 -6.304688 2.15625 -6.203125 C 2.050781 -6.109375 1.976562 -5.945312 1.9375 -5.71875 C 1.894531 -5.488281 1.875 -5.160156 1.875 -4.734375 L 1.875 -2.453125 C 1.875 -2.023438 1.898438 -1.703125 1.953125 -1.484375 C 2.003906 -1.265625 2.085938 -1.109375 2.203125 -1.015625 C 2.316406 -0.929688 2.476562 -0.890625 2.6875 -0.890625 C 3 -0.890625 3.195312 -0.988281 3.28125 -1.1875 C 3.375 -1.394531 3.421875 -1.710938 3.421875 -2.140625 L 3.421875 -2.734375 L 4.640625 -2.734375 L 4.640625 -2.234375 C 4.640625 -1.441406 4.492188 -0.851562 4.203125 -0.46875 C 3.921875 -0.09375 3.40625 0.09375 2.65625 0.09375 Z M 2.65625 0.09375 "/></g></g></g><g fill="#ffffff" fill-opacity="1"><g transform="translate(48.667799, 15.515132)"><g><path d="M 2.671875 0.09375 C 1.898438 0.09375 1.351562 -0.128906 1.03125 -0.578125 C 0.707031 -1.035156 0.546875 -1.703125 0.546875 -2.578125 L 0.546875 -4.6875 C 0.546875 -5.550781 0.707031 -6.210938 1.03125 -6.671875 C 1.351562 -7.128906 1.898438 -7.359375 2.671875 -7.359375 C 3.429688 -7.359375 3.972656 -7.128906 4.296875 -6.671875 C 4.617188 -6.210938 4.78125 -5.550781 4.78125 -4.6875 L 4.78125 -2.578125 C 4.78125 -1.703125 4.617188 -1.035156 4.296875 -0.578125 C 3.972656 -0.128906 3.429688 0.09375 2.671875 0.09375 Z M 2.671875 -0.890625 C 2.910156 -0.890625 3.082031 -0.957031 3.1875 -1.09375 C 3.300781 -1.238281 3.367188 -1.414062 3.390625 -1.625 C 3.421875 -1.832031 3.4375 -2.117188 3.4375 -2.484375 L 3.4375 -4.75 C 3.4375 -5.113281 3.421875 -5.398438 3.390625 -5.609375 C 3.367188 -5.828125 3.300781 -6.003906 3.1875 -6.140625 C 3.082031 -6.285156 2.910156 -6.359375 2.671875 -6.359375 C 2.429688 -6.359375 2.253906 -6.285156 2.140625 -6.140625 C 2.023438 -6.003906 1.953125 -5.828125 1.921875 -5.609375 C 1.898438 -5.398438 1.890625 -5.113281 1.890625 -4.75 L 1.890625 -2.484375 C 1.890625 -2.117188 1.898438 -1.832031 1.921875 -1.625 C 1.953125 -1.414062 2.023438 -1.238281 2.140625 -1.09375 C 2.253906 -0.957031 2.429688 -0.890625 2.671875 -0.890625 Z M 2.671875 -0.890625 "/></g></g></g><g fill="#ffffff" fill-opacity="1"><g transform="translate(55.870737, 15.515132)"><g><path d="M 0.671875 -7.25 L 1.921875 -7.25 L 1.921875 -6.5625 C 2.160156 -6.832031 2.425781 -7.035156 2.71875 -7.171875 C 3.007812 -7.304688 3.3125 -7.375 3.625 -7.375 C 4.238281 -7.375 4.632812 -7.070312 4.8125 -6.46875 C 5.3125 -7.070312 5.910156 -7.375 6.609375 -7.375 C 6.984375 -7.375 7.289062 -7.234375 7.53125 -6.953125 C 7.769531 -6.679688 7.890625 -6.265625 7.890625 -5.703125 L 7.890625 0 L 6.65625 0 L 6.65625 -5.609375 C 6.65625 -5.941406 6.601562 -6.171875 6.5 -6.296875 C 6.394531 -6.429688 6.238281 -6.5 6.03125 -6.5 C 5.851562 -6.5 5.660156 -6.445312 5.453125 -6.34375 C 5.253906 -6.238281 5.070312 -6.09375 4.90625 -5.90625 L 4.90625 0 L 3.671875 0 L 3.671875 -5.609375 C 3.671875 -5.941406 3.613281 -6.171875 3.5 -6.296875 C 3.394531 -6.429688 3.242188 -6.5 3.046875 -6.5 C 2.867188 -6.5 2.679688 -6.445312 2.484375 -6.34375 C 2.285156 -6.238281 2.097656 -6.09375 1.921875 -5.90625 L 1.921875 0 L 0.671875 0 Z M 0.671875 -7.25 "/></g></g></g><g fill="#ffffff" fill-opacity="1"><g transform="translate(66.273141, 15.515132)"><g><path d="M 0.671875 -7.25 L 2.015625 -7.25 L 2.015625 -6.671875 C 2.410156 -7.128906 2.875 -7.359375 3.40625 -7.359375 C 4.0625 -7.359375 4.5 -7.070312 4.71875 -6.5 C 4.945312 -5.9375 5.0625 -5.3125 5.0625 -4.625 L 5.0625 -2.875 C 5.0625 -1.988281 4.921875 -1.269531 4.640625 -0.71875 C 4.367188 -0.175781 3.90625 0.09375 3.25 0.09375 C 2.820312 0.09375 2.410156 -0.117188 2.015625 -0.546875 L 2.015625 2.390625 L 0.671875 2.390625 Z M 2.984375 -0.953125 C 3.296875 -0.953125 3.492188 -1.109375 3.578125 -1.421875 C 3.671875 -1.734375 3.71875 -2.21875 3.71875 -2.875 L 3.71875 -4.625 C 3.71875 -5.164062 3.664062 -5.578125 3.5625 -5.859375 C 3.457031 -6.148438 3.25 -6.296875 2.9375 -6.296875 C 2.625 -6.296875 2.316406 -6.171875 2.015625 -5.921875 L 2.015625 -1.28125 C 2.304688 -1.0625 2.628906 -0.953125 2.984375 -0.953125 Z M 2.984375 -0.953125 "/></g></g></g><g fill="#ffffff" fill-opacity="1"><g transform="translate(73.739563, 15.515132)"><g><path d="M 2.671875 0.09375 C 1.898438 0.09375 1.351562 -0.128906 1.03125 -0.578125 C 0.707031 -1.035156 0.546875 -1.703125 0.546875 -2.578125 L 0.546875 -4.6875 C 0.546875 -5.550781 0.707031 -6.210938 1.03125 -6.671875 C 1.351562 -7.128906 1.898438 -7.359375 2.671875 -7.359375 C 3.429688 -7.359375 3.972656 -7.128906 4.296875 -6.671875 C 4.617188 -6.210938 4.78125 -5.550781 4.78125 -4.6875 L 4.78125 -2.578125 C 4.78125 -1.703125 4.617188 -1.035156 4.296875 -0.578125 C 3.972656 -0.128906 3.429688 0.09375 2.671875 0.09375 Z M 2.671875 -0.890625 C 2.910156 -0.890625 3.082031 -0.957031 3.1875 -1.09375 C 3.300781 -1.238281 3.367188 -1.414062 3.390625 -1.625 C 3.421875 -1.832031 3.4375 -2.117188 3.4375 -2.484375 L 3.4375 -4.75 C 3.4375 -5.113281 3.421875 -5.398438 3.390625 -5.609375 C 3.367188 -5.828125 3.300781 -6.003906 3.1875 -6.140625 C 3.082031 -6.285156 2.910156 -6.359375 2.671875 -6.359375 C 2.429688 -6.359375 2.253906 -6.285156 2.140625 -6.140625 C 2.023438 -6.003906 1.953125 -5.828125 1.921875 -5.609375 C 1.898438 -5.398438 1.890625 -5.113281 1.890625 -4.75 L 1.890625 -2.484375 C 1.890625 -2.117188 1.898438 -1.832031 1.921875 -1.625 C 1.953125 -1.414062 2.023438 -1.238281 2.140625 -1.09375 C 2.253906 -0.957031 2.429688 -0.890625 2.671875 -0.890625 Z M 2.671875 -0.890625 "/></g></g></g><g fill="#ffffff" fill-opacity="1"><g transform="translate(80.942501, 15.515132)"><g><path d="M 2.359375 0.09375 C 1.773438 0.09375 1.300781 -0.0859375 0.9375 -0.453125 C 0.570312 -0.816406 0.363281 -1.3125 0.3125 -1.9375 L 1.4375 -2.265625 C 1.5 -1.796875 1.609375 -1.445312 1.765625 -1.21875 C 1.929688 -1 2.164062 -0.890625 2.46875 -0.890625 C 2.707031 -0.890625 2.890625 -0.957031 3.015625 -1.09375 C 3.148438 -1.238281 3.21875 -1.425781 3.21875 -1.65625 C 3.21875 -1.863281 3.171875 -2.050781 3.078125 -2.21875 C 2.984375 -2.382812 2.832031 -2.554688 2.625 -2.734375 L 1.375 -3.796875 C 1.09375 -4.046875 0.875 -4.304688 0.71875 -4.578125 C 0.5625 -4.847656 0.484375 -5.179688 0.484375 -5.578125 C 0.484375 -6.128906 0.648438 -6.5625 0.984375 -6.875 C 1.328125 -7.195312 1.785156 -7.359375 2.359375 -7.359375 C 2.910156 -7.359375 3.34375 -7.175781 3.65625 -6.8125 C 3.96875 -6.457031 4.148438 -6 4.203125 -5.4375 L 3.296875 -5.109375 C 3.242188 -5.515625 3.148438 -5.820312 3.015625 -6.03125 C 2.878906 -6.25 2.675781 -6.359375 2.40625 -6.359375 C 2.1875 -6.359375 2.007812 -6.285156 1.875 -6.140625 C 1.75 -6.003906 1.6875 -5.832031 1.6875 -5.625 C 1.6875 -5.351562 1.8125 -5.109375 2.0625 -4.890625 L 3.34375 -3.71875 C 3.664062 -3.414062 3.914062 -3.117188 4.09375 -2.828125 C 4.269531 -2.535156 4.359375 -2.175781 4.359375 -1.75 C 4.359375 -1.15625 4.175781 -0.695312 3.8125 -0.375 C 3.457031 -0.0625 2.972656 0.09375 2.359375 0.09375 Z M 2.359375 0.09375 "/></g></g></g><g fill="#ffffff" fill-opacity="1"><g transform="translate(87.505544, 15.515132)"><g><path d="M 0.765625 -9.734375 L 2.109375 -9.734375 L 2.109375 -8.328125 L 0.765625 -8.328125 Z M 0.765625 -7.25 L 2.109375 -7.25 L 2.109375 0 L 0.765625 0 Z M 0.765625 -7.25 "/></g></g></g><g fill="#ffffff" fill-opacity="1"><g transform="translate(92.249279, 15.515132)"><g><path d="M 2.609375 0.09375 C 1.566406 0.09375 1.046875 -0.476562 1.046875 -1.625 L 1.046875 -6.359375 L 0.28125 -6.359375 L 0.28125 -7.25 L 1.046875 -7.25 L 1.046875 -9.375 L 2.390625 -9.375 L 2.390625 -7.25 L 3.546875 -7.25 L 3.546875 -6.359375 L 2.390625 -6.359375 L 2.390625 -1.71875 C 2.390625 -1.425781 2.429688 -1.21875 2.515625 -1.09375 C 2.609375 -0.976562 2.785156 -0.921875 3.046875 -0.921875 C 3.210938 -0.921875 3.375 -0.9375 3.53125 -0.96875 L 3.53125 0.03125 C 3.195312 0.0703125 2.890625 0.09375 2.609375 0.09375 Z M 2.609375 0.09375 "/></g></g></g><g fill="#ffffff" fill-opacity="1"><g transform="translate(97.984226, 15.515132)"><g><path d="M 0.765625 -9.734375 L 2.109375 -9.734375 L 2.109375 -8.328125 L 0.765625 -8.328125 Z M 0.765625 -7.25 L 2.109375 -7.25 L 2.109375 0 L 0.765625 0 Z M 0.765625 -7.25 "/></g></g></g><g fill="#ffffff" fill-opacity="1"><g transform="translate(102.727961, 15.515132)"><g><path d="M 2.671875 0.09375 C 1.898438 0.09375 1.351562 -0.128906 1.03125 -0.578125 C 0.707031 -1.035156 0.546875 -1.703125 0.546875 -2.578125 L 0.546875 -4.6875 C 0.546875 -5.550781 0.707031 -6.210938 1.03125 -6.671875 C 1.351562 -7.128906 1.898438 -7.359375 2.671875 -7.359375 C 3.429688 -7.359375 3.972656 -7.128906 4.296875 -6.671875 C 4.617188 -6.210938 4.78125 -5.550781 4.78125 -4.6875 L 4.78125 -2.578125 C 4.78125 -1.703125 4.617188 -1.035156 4.296875 -0.578125 C 3.972656 -0.128906 3.429688 0.09375 2.671875 0.09375 Z M 2.671875 -0.890625 C 2.910156 -0.890625 3.082031 -0.957031 3.1875 -1.09375 C 3.300781 -1.238281 3.367188 -1.414062 3.390625 -1.625 C 3.421875 -1.832031 3.4375 -2.117188 3.4375 -2.484375 L 3.4375 -4.75 C 3.4375 -5.113281 3.421875 -5.398438 3.390625 -5.609375 C 3.367188 -5.828125 3.300781 -6.003906 3.1875 -6.140625 C 3.082031 -6.285156 2.910156 -6.359375 2.671875 -6.359375 C 2.429688 -6.359375 2.253906 -6.285156 2.140625 -6.140625 C 2.023438 -6.003906 1.953125 -5.828125 1.921875 -5.609375 C 1.898438 -5.398438 1.890625 -5.113281 1.890625 -4.75 L 1.890625 -2.484375 C 1.890625 -2.117188 1.898438 -1.832031 1.921875 -1.625 C 1.953125 -1.414062 2.023438 -1.238281 2.140625 -1.09375 C 2.253906 -0.957031 2.429688 -0.890625 2.671875 -0.890625 Z M 2.671875 -0.890625 "/></g></g></g><g fill="#ffffff" fill-opacity="1"><g transform="translate(109.930899, 15.515132)"><g><path d="M 0.671875 -7.25 L 2.015625 -7.25 L 2.015625 -6.53125 C 2.597656 -7.082031 3.191406 -7.359375 3.796875 -7.359375 C 4.179688 -7.359375 4.457031 -7.210938 4.625 -6.921875 C 4.789062 -6.640625 4.875 -6.289062 4.875 -5.875 L 4.875 0 L 3.53125 0 L 3.53125 -5.484375 C 3.53125 -5.753906 3.488281 -5.957031 3.40625 -6.09375 C 3.320312 -6.226562 3.175781 -6.296875 2.96875 -6.296875 C 2.695312 -6.296875 2.378906 -6.144531 2.015625 -5.84375 L 2.015625 0 L 0.671875 0 Z M 0.671875 -7.25 "/></g></g></g></g></g><g transform="matrix(1, 0, 0, 1, 99, 168)"><g clip-path="url(#1c2b920dab)"><g fill="#ffffff" fill-opacity="1"><g transform="translate(0.769187, 7.748995)"><g><path d="M 1.171875 0 L 0.578125 0 L 0.578125 -5.109375 L 1.640625 -5.109375 L 3.203125 -0.65625 L 3.359375 -0.65625 L 4.921875 -5.109375 L 5.984375 -5.109375 L 5.984375 0 L 5.40625 0 L 5.40625 -4.34375 L 5.25 -4.34375 L 3.71875 0 L 2.84375 0 L 1.3125 -4.34375 L 1.171875 -4.34375 Z M 1.171875 0 "/></g></g></g><g fill="#ffffff" fill-opacity="1"><g transform="translate(7.796564, 7.748995)"><g><path d="M 4.75 0 L 4.125 0 L 3.640625 -1.3125 L 1.109375 -1.3125 L 0.625 0 L 0 0 L 1.9375 -5.109375 L 2.8125 -5.109375 Z M 2.296875 -4.484375 L 1.3125 -1.859375 L 3.421875 -1.859375 L 2.4375 -4.484375 Z M 2.296875 -4.484375 "/></g></g></g><g fill="#ffffff" fill-opacity="1"><g transform="translate(12.999589, 7.748995)"><g><path d="M 0.578125 0 L 0.578125 -5.109375 L 2.296875 -5.109375 C 2.765625 -5.109375 3.179688 -5 3.546875 -4.78125 C 3.921875 -4.5625 4.210938 -4.257812 4.421875 -3.875 C 4.640625 -3.488281 4.75 -3.046875 4.75 -2.546875 C 4.75 -2.054688 4.640625 -1.617188 4.421875 -1.234375 C 4.210938 -0.847656 3.921875 -0.546875 3.546875 -0.328125 C 3.179688 -0.109375 2.765625 0 2.296875 0 Z M 2.296875 -0.546875 C 2.648438 -0.546875 2.96875 -0.628906 3.25 -0.796875 C 3.53125 -0.960938 3.75 -1.195312 3.90625 -1.5 C 4.070312 -1.8125 4.15625 -2.160156 4.15625 -2.546875 C 4.15625 -2.941406 4.070312 -3.289062 3.90625 -3.59375 C 3.75 -3.90625 3.53125 -4.144531 3.25 -4.3125 C 2.96875 -4.476562 2.648438 -4.5625 2.296875 -4.5625 L 1.171875 -4.5625 L 1.171875 -0.546875 Z M 2.296875 -0.546875 "/></g></g></g><g fill="#ffffff" fill-opacity="1"><g transform="translate(18.567484, 7.748995)"><g><path d="M 3.875 0 L 0.578125 0 L 0.578125 -5.109375 L 3.875 -5.109375 L 3.875 -4.5625 L 1.171875 -4.5625 L 1.171875 -2.84375 L 3.71875 -2.84375 L 3.71875 -2.296875 L 1.171875 -2.296875 L 1.171875 -0.546875 L 3.875 -0.546875 Z M 3.875 0 "/></g></g></g><g fill="#ffffff" fill-opacity="1"><g transform="translate(23.296183, 7.748995)"><g/></g></g><g fill="#ffffff" fill-opacity="1"><g transform="translate(25.434315, 7.748995)"><g><path d="M 2.515625 0.078125 C 2.140625 0.078125 1.796875 -0.0078125 1.484375 -0.1875 C 1.179688 -0.363281 0.941406 -0.609375 0.765625 -0.921875 C 0.597656 -1.242188 0.515625 -1.601562 0.515625 -2 L 0.515625 -5.109375 L 1.09375 -5.109375 L 1.09375 -2 C 1.09375 -1.707031 1.15625 -1.441406 1.28125 -1.203125 C 1.40625 -0.972656 1.570312 -0.789062 1.78125 -0.65625 C 2 -0.53125 2.242188 -0.46875 2.515625 -0.46875 C 2.785156 -0.46875 3.023438 -0.53125 3.234375 -0.65625 C 3.453125 -0.789062 3.625 -0.972656 3.75 -1.203125 C 3.875 -1.441406 3.9375 -1.707031 3.9375 -2 L 3.9375 -5.109375 L 4.53125 -5.109375 L 4.53125 -2 C 4.53125 -1.601562 4.441406 -1.242188 4.265625 -0.921875 C 4.085938 -0.609375 3.84375 -0.363281 3.53125 -0.1875 C 3.226562 -0.0078125 2.890625 0.078125 2.515625 0.078125 Z M 2.515625 0.078125 "/></g></g></g><g fill="#ffffff" fill-opacity="1"><g transform="translate(30.929239, 7.748995)"><g><path d="M 2.265625 0.078125 C 1.867188 0.078125 1.523438 0.00390625 1.234375 -0.140625 C 0.941406 -0.285156 0.71875 -0.476562 0.5625 -0.71875 C 0.40625 -0.957031 0.328125 -1.21875 0.328125 -1.5 L 0.90625 -1.5 C 0.90625 -1.3125 0.957031 -1.140625 1.0625 -0.984375 C 1.164062 -0.828125 1.320312 -0.703125 1.53125 -0.609375 C 1.738281 -0.515625 1.984375 -0.46875 2.265625 -0.46875 C 2.691406 -0.46875 3.007812 -0.550781 3.21875 -0.71875 C 3.425781 -0.894531 3.53125 -1.117188 3.53125 -1.390625 C 3.53125 -1.609375 3.457031 -1.785156 3.3125 -1.921875 C 3.164062 -2.066406 2.945312 -2.164062 2.65625 -2.21875 L 1.671875 -2.40625 C 0.847656 -2.5625 0.4375 -3 0.4375 -3.71875 C 0.4375 -4 0.503906 -4.25 0.640625 -4.46875 C 0.785156 -4.6875 0.988281 -4.859375 1.25 -4.984375 C 1.519531 -5.117188 1.832031 -5.1875 2.1875 -5.1875 C 2.570312 -5.1875 2.90625 -5.113281 3.1875 -4.96875 C 3.476562 -4.832031 3.703125 -4.644531 3.859375 -4.40625 C 4.015625 -4.164062 4.09375 -3.898438 4.09375 -3.609375 L 3.5 -3.609375 C 3.5 -3.796875 3.445312 -3.96875 3.34375 -4.125 C 3.238281 -4.28125 3.085938 -4.40625 2.890625 -4.5 C 2.691406 -4.59375 2.457031 -4.640625 2.1875 -4.640625 C 1.820312 -4.640625 1.535156 -4.550781 1.328125 -4.375 C 1.117188 -4.207031 1.015625 -3.988281 1.015625 -3.71875 C 1.015625 -3.519531 1.082031 -3.347656 1.21875 -3.203125 C 1.363281 -3.054688 1.578125 -2.960938 1.859375 -2.921875 L 2.65625 -2.765625 C 3.164062 -2.679688 3.535156 -2.523438 3.765625 -2.296875 C 4.003906 -2.078125 4.125 -1.773438 4.125 -1.390625 C 4.125 -1.109375 4.050781 -0.851562 3.90625 -0.625 C 3.757812 -0.40625 3.546875 -0.234375 3.265625 -0.109375 C 2.984375 0.015625 2.648438 0.078125 2.265625 0.078125 Z M 2.265625 0.078125 "/></g></g></g><g fill="#ffffff" fill-opacity="1"><g transform="translate(35.876859, 7.748995)"><g><path d="M 1.171875 0 L 0.578125 0 L 0.578125 -5.109375 L 1.171875 -5.109375 Z M 1.171875 0 "/></g></g></g><g fill="#ffffff" fill-opacity="1"><g transform="translate(38.087961, 7.748995)"><g><path d="M 1.171875 0 L 0.578125 0 L 0.578125 -5.109375 L 1.5625 -5.109375 L 3.875 -0.6875 L 4.015625 -0.6875 L 4.015625 -5.109375 L 4.59375 -5.109375 L 4.59375 0 L 3.609375 0 L 1.3125 -4.421875 L 1.171875 -4.421875 Z M 1.171875 0 "/></g></g></g><g fill="#ffffff" fill-opacity="1"><g transform="translate(43.728836, 7.748995)"><g><path d="M 2.984375 -2.625 L 5.109375 -2.625 L 5.109375 0 L 4.640625 0 L 4.5625 -0.734375 L 4.53125 -0.734375 C 4.363281 -0.523438 4.125 -0.335938 3.8125 -0.171875 C 3.507812 -0.00390625 3.175781 0.078125 2.8125 0.078125 C 2.363281 0.078125 1.953125 -0.03125 1.578125 -0.25 C 1.203125 -0.476562 0.90625 -0.789062 0.6875 -1.1875 C 0.46875 -1.582031 0.359375 -2.035156 0.359375 -2.546875 C 0.359375 -3.054688 0.46875 -3.507812 0.6875 -3.90625 C 0.90625 -4.3125 1.203125 -4.625 1.578125 -4.84375 C 1.953125 -5.070312 2.363281 -5.1875 2.8125 -5.1875 C 3.320312 -5.1875 3.785156 -5.039062 4.203125 -4.75 C 4.617188 -4.457031 4.910156 -4.066406 5.078125 -3.578125 L 4.453125 -3.578125 C 4.304688 -3.898438 4.082031 -4.15625 3.78125 -4.34375 C 3.476562 -4.539062 3.15625 -4.640625 2.8125 -4.640625 C 2.46875 -4.640625 2.148438 -4.550781 1.859375 -4.375 C 1.578125 -4.195312 1.351562 -3.945312 1.1875 -3.625 C 1.03125 -3.3125 0.953125 -2.953125 0.953125 -2.546875 C 0.953125 -2.148438 1.03125 -1.789062 1.1875 -1.46875 C 1.351562 -1.15625 1.578125 -0.910156 1.859375 -0.734375 C 2.148438 -0.554688 2.46875 -0.46875 2.8125 -0.46875 C 3.101562 -0.46875 3.378906 -0.539062 3.640625 -0.6875 C 3.910156 -0.84375 4.125 -1.039062 4.28125 -1.28125 C 4.445312 -1.53125 4.53125 -1.785156 4.53125 -2.046875 L 4.53125 -2.109375 L 2.984375 -2.109375 Z M 2.984375 -2.625 "/></g></g></g><g fill="#ffffff" fill-opacity="1"><g transform="translate(49.807551, 7.748995)"><g><path d="M 1.09375 -2.984375 L 0.4375 -2.984375 L 0.4375 -3.640625 L 1.09375 -3.640625 Z M 1.09375 0 L 0.4375 0 L 0.4375 -0.65625 L 1.09375 -0.65625 Z M 1.09375 0 "/></g></g></g><g clip-path="url(#af382d7d02)"><g fill="#ffffff" fill-opacity="1"><g transform="translate(0.769187, 25.992323)"><g><path d="M 2.390625 0 L 1.390625 0 L 0.109375 -5.109375 L 0.734375 -5.109375 L 1.828125 -0.625 L 1.96875 -0.625 L 3.140625 -5.109375 L 4.015625 -5.109375 L 5.1875 -0.625 L 5.328125 -0.625 L 6.421875 -5.109375 L 7.046875 -5.109375 L 5.765625 0 L 4.75 0 L 3.640625 -4.265625 L 3.5 -4.265625 Z M 2.390625 0 "/></g></g></g></g><g fill="#ffffff" fill-opacity="1"><g transform="translate(7.920625, 25.992323)"><g><path d="M 4.75 0 L 4.125 0 L 3.640625 -1.3125 L 1.109375 -1.3125 L 0.625 0 L 0 0 L 1.9375 -5.109375 L 2.8125 -5.109375 Z M 2.296875 -4.484375 L 1.3125 -1.859375 L 3.421875 -1.859375 L 2.4375 -4.484375 Z M 2.296875 -4.484375 "/></g></g></g><g fill="#ffffff" fill-opacity="1"><g transform="translate(12.66392, 25.992323)"><g><path d="M 2.8125 0 L 1.9375 0 L 0.078125 -5.109375 L 0.6875 -5.109375 L 2.296875 -0.625 L 2.4375 -0.625 L 4.046875 -5.109375 L 4.671875 -5.109375 Z M 2.8125 0 "/></g></g></g><g fill="#ffffff" fill-opacity="1"><g transform="translate(17.407215, 25.992323)"><g><path d="M 3.875 0 L 0.578125 0 L 0.578125 -5.109375 L 3.875 -5.109375 L 3.875 -4.5625 L 1.171875 -4.5625 L 1.171875 -2.84375 L 3.71875 -2.84375 L 3.71875 -2.296875 L 1.171875 -2.296875 L 1.171875 -0.546875 L 3.875 -0.546875 Z M 3.875 0 "/></g></g></g><g fill="#ffffff" fill-opacity="1"><g transform="translate(21.676184, 25.992323)"><g><path d="M 1.171875 0 L 0.578125 0 L 0.578125 -5.109375 L 3.796875 -5.109375 L 3.796875 -4.5625 L 1.171875 -4.5625 L 1.171875 -2.84375 L 3.640625 -2.84375 L 3.640625 -2.296875 L 1.171875 -2.296875 Z M 1.171875 0 "/></g></g></g><g fill="#ffffff" fill-opacity="1"><g transform="translate(25.799203, 25.992323)"><g><path d="M 2.8125 0.078125 C 2.363281 0.078125 1.953125 -0.03125 1.578125 -0.25 C 1.203125 -0.476562 0.90625 -0.789062 0.6875 -1.1875 C 0.46875 -1.582031 0.359375 -2.035156 0.359375 -2.546875 C 0.359375 -3.054688 0.46875 -3.507812 0.6875 -3.90625 C 0.90625 -4.3125 1.203125 -4.625 1.578125 -4.84375 C 1.953125 -5.070312 2.363281 -5.1875 2.8125 -5.1875 C 3.257812 -5.1875 3.671875 -5.070312 4.046875 -4.84375 C 4.421875 -4.625 4.710938 -4.3125 4.921875 -3.90625 C 5.140625 -3.507812 5.25 -3.054688 5.25 -2.546875 C 5.25 -2.035156 5.140625 -1.582031 4.921875 -1.1875 C 4.710938 -0.789062 4.421875 -0.476562 4.046875 -0.25 C 3.671875 -0.03125 3.257812 0.078125 2.8125 0.078125 Z M 2.8125 -0.46875 C 3.144531 -0.46875 3.453125 -0.554688 3.734375 -0.734375 C 4.023438 -0.910156 4.253906 -1.15625 4.421875 -1.46875 C 4.585938 -1.789062 4.671875 -2.148438 4.671875 -2.546875 C 4.671875 -2.953125 4.585938 -3.3125 4.421875 -3.625 C 4.253906 -3.945312 4.023438 -4.195312 3.734375 -4.375 C 3.453125 -4.550781 3.144531 -4.640625 2.8125 -4.640625 C 2.46875 -4.640625 2.148438 -4.550781 1.859375 -4.375 C 1.578125 -4.195312 1.351562 -3.945312 1.1875 -3.625 C 1.03125 -3.3125 0.953125 -2.953125 0.953125 -2.546875 C 0.953125 -2.148438 1.03125 -1.789062 1.1875 -1.46875 C 1.351562 -1.15625 1.578125 -0.910156 1.859375 -0.734375 C 2.148438 -0.554688 2.46875 -0.46875 2.8125 -0.46875 Z M 2.8125 -0.46875 "/></g></g></g><g fill="#ffffff" fill-opacity="1"><g transform="translate(31.418189, 25.992323)"><g><path d="M 2.328125 -1.96875 L 4.375 0 L 3.640625 0 L 1.609375 -1.96875 L 1.171875 -1.96875 L 1.171875 0 L 0.578125 0 L 0.578125 -5.109375 L 2.8125 -5.109375 C 3.070312 -5.109375 3.3125 -5.039062 3.53125 -4.90625 C 3.757812 -4.769531 3.9375 -4.582031 4.0625 -4.34375 C 4.195312 -4.101562 4.265625 -3.832031 4.265625 -3.53125 C 4.265625 -3.238281 4.195312 -2.972656 4.0625 -2.734375 C 3.9375 -2.492188 3.757812 -2.304688 3.53125 -2.171875 C 3.3125 -2.035156 3.070312 -1.96875 2.8125 -1.96875 Z M 1.171875 -2.515625 L 2.8125 -2.515625 C 3.050781 -2.515625 3.253906 -2.609375 3.421875 -2.796875 C 3.597656 -2.992188 3.6875 -3.238281 3.6875 -3.53125 C 3.6875 -3.832031 3.597656 -4.078125 3.421875 -4.265625 C 3.253906 -4.460938 3.050781 -4.5625 2.8125 -4.5625 L 1.171875 -4.5625 Z M 1.171875 -2.515625 "/></g></g></g><g fill="#ffffff" fill-opacity="1"><g transform="translate(36.088514, 25.992323)"><g><path d="M 1.171875 0 L 0.578125 0 L 0.578125 -5.109375 L 1.640625 -5.109375 L 3.203125 -0.65625 L 3.359375 -0.65625 L 4.921875 -5.109375 L 5.984375 -5.109375 L 5.984375 0 L 5.40625 0 L 5.40625 -4.34375 L 5.25 -4.34375 L 3.71875 0 L 2.84375 0 L 1.3125 -4.34375 L 1.171875 -4.34375 Z M 1.171875 0 "/></g></g></g><g fill="#ffffff" fill-opacity="1"><g transform="translate(42.65616, 25.992323)"><g/></g></g><g fill="#ffffff" fill-opacity="1"><g transform="translate(44.334562, 25.992323)"><g><path d="M 1.421875 1.453125 L 0.875 1.453125 L 0.875 -5.328125 L 1.421875 -5.328125 Z M 1.421875 1.453125 "/></g></g></g><g fill="#ffffff" fill-opacity="1"><g transform="translate(46.633239, 25.992323)"><g/></g></g><g fill="#ffffff" fill-opacity="1"><g transform="translate(48.31164, 25.992323)"><g><path d="M 2.265625 0.078125 C 1.867188 0.078125 1.523438 0.00390625 1.234375 -0.140625 C 0.941406 -0.285156 0.71875 -0.476562 0.5625 -0.71875 C 0.40625 -0.957031 0.328125 -1.21875 0.328125 -1.5 L 0.90625 -1.5 C 0.90625 -1.3125 0.957031 -1.140625 1.0625 -0.984375 C 1.164062 -0.828125 1.320312 -0.703125 1.53125 -0.609375 C 1.738281 -0.515625 1.984375 -0.46875 2.265625 -0.46875 C 2.691406 -0.46875 3.007812 -0.550781 3.21875 -0.71875 C 3.425781 -0.894531 3.53125 -1.117188 3.53125 -1.390625 C 3.53125 -1.609375 3.457031 -1.785156 3.3125 -1.921875 C 3.164062 -2.066406 2.945312 -2.164062 2.65625 -2.21875 L 1.671875 -2.40625 C 0.847656 -2.5625 0.4375 -3 0.4375 -3.71875 C 0.4375 -4 0.503906 -4.25 0.640625 -4.46875 C 0.785156 -4.6875 0.988281 -4.859375 1.25 -4.984375 C 1.519531 -5.117188 1.832031 -5.1875 2.1875 -5.1875 C 2.570312 -5.1875 2.90625 -5.113281 3.1875 -4.96875 C 3.476562 -4.832031 3.703125 -4.644531 3.859375 -4.40625 C 4.015625 -4.164062 4.09375 -3.898438 4.09375 -3.609375 L 3.5 -3.609375 C 3.5 -3.796875 3.445312 -3.96875 3.34375 -4.125 C 3.238281 -4.28125 3.085938 -4.40625 2.890625 -4.5 C 2.691406 -4.59375 2.457031 -4.640625 2.1875 -4.640625 C 1.820312 -4.640625 1.535156 -4.550781 1.328125 -4.375 C 1.117188 -4.207031 1.015625 -3.988281 1.015625 -3.71875 C 1.015625 -3.519531 1.082031 -3.347656 1.21875 -3.203125 C 1.363281 -3.054688 1.578125 -2.960938 1.859375 -2.921875 L 2.65625 -2.765625 C 3.164062 -2.679688 3.535156 -2.523438 3.765625 -2.296875 C 4.003906 -2.078125 4.125 -1.773438 4.125 -1.390625 C 4.125 -1.109375 4.050781 -0.851562 3.90625 -0.625 C 3.757812 -0.40625 3.546875 -0.234375 3.265625 -0.109375 C 2.984375 0.015625 2.648438 0.078125 2.265625 0.078125 Z M 2.265625 0.078125 "/></g></g></g><g fill="#ffffff" fill-opacity="1"><g transform="translate(52.79953, 25.992323)"><g><path d="M 0.578125 0 L 0.578125 -5.109375 L 2.8125 -5.109375 C 3.070312 -5.109375 3.3125 -5.039062 3.53125 -4.90625 C 3.757812 -4.769531 3.9375 -4.582031 4.0625 -4.34375 C 4.195312 -4.101562 4.265625 -3.832031 4.265625 -3.53125 C 4.265625 -3.238281 4.195312 -2.972656 4.0625 -2.734375 C 3.9375 -2.492188 3.757812 -2.304688 3.53125 -2.171875 C 3.3125 -2.035156 3.070312 -1.96875 2.8125 -1.96875 L 1.171875 -1.96875 L 1.171875 0 Z M 2.8125 -2.515625 C 3.050781 -2.515625 3.253906 -2.609375 3.421875 -2.796875 C 3.597656 -2.992188 3.6875 -3.238281 3.6875 -3.53125 C 3.6875 -3.832031 3.597656 -4.078125 3.421875 -4.265625 C 3.253906 -4.460938 3.050781 -4.5625 2.8125 -4.5625 L 1.171875 -4.5625 L 1.171875 -2.515625 Z M 2.8125 -2.515625 "/></g></g></g><g fill="#ffffff" fill-opacity="1"><g transform="translate(57.43337, 25.992323)"><g><path d="M 1.171875 0 L 0.578125 0 L 0.578125 -5.109375 L 1.171875 -5.109375 Z M 1.171875 0 "/></g></g></g><g fill="#ffffff" fill-opacity="1"><g transform="translate(59.184741, 25.992323)"><g><path d="M 2.4375 0 L 1.859375 0 L 1.859375 -4.5625 L 0.1875 -4.5625 L 0.1875 -5.109375 L 4.125 -5.109375 L 4.125 -4.5625 L 2.4375 -4.5625 Z M 2.4375 0 "/></g></g></g><g fill="#ffffff" fill-opacity="1"><g transform="translate(63.490196, 25.992323)"><g><path d="M 1.171875 0 L 0.578125 0 L 0.578125 -5.109375 L 3.796875 -5.109375 L 3.796875 -4.5625 L 1.171875 -4.5625 L 1.171875 -2.84375 L 3.640625 -2.84375 L 3.640625 -2.296875 L 1.171875 -2.296875 Z M 1.171875 0 "/></g></g></g><g fill="#ffffff" fill-opacity="1"><g transform="translate(67.613215, 25.992323)"><g><path d="M 1.171875 0 L 0.578125 0 L 0.578125 -5.109375 L 1.171875 -5.109375 Z M 1.171875 0 "/></g></g></g><g fill="#ffffff" fill-opacity="1"><g transform="translate(69.364587, 25.992323)"><g><path d="M 2.328125 -1.96875 L 4.375 0 L 3.640625 0 L 1.609375 -1.96875 L 1.171875 -1.96875 L 1.171875 0 L 0.578125 0 L 0.578125 -5.109375 L 2.8125 -5.109375 C 3.070312 -5.109375 3.3125 -5.039062 3.53125 -4.90625 C 3.757812 -4.769531 3.9375 -4.582031 4.0625 -4.34375 C 4.195312 -4.101562 4.265625 -3.832031 4.265625 -3.53125 C 4.265625 -3.238281 4.195312 -2.972656 4.0625 -2.734375 C 3.9375 -2.492188 3.757812 -2.304688 3.53125 -2.171875 C 3.3125 -2.035156 3.070312 -1.96875 2.8125 -1.96875 Z M 1.171875 -2.515625 L 2.8125 -2.515625 C 3.050781 -2.515625 3.253906 -2.609375 3.421875 -2.796875 C 3.597656 -2.992188 3.6875 -3.238281 3.6875 -3.53125 C 3.6875 -3.832031 3.597656 -4.078125 3.421875 -4.265625 C 3.253906 -4.460938 3.050781 -4.5625 2.8125 -4.5625 L 1.171875 -4.5625 Z M 1.171875 -2.515625 "/></g></g></g><g fill="#ffffff" fill-opacity="1"><g transform="translate(74.034912, 25.992323)"><g><path d="M 3.875 0 L 0.578125 0 L 0.578125 -5.109375 L 3.875 -5.109375 L 3.875 -4.5625 L 1.171875 -4.5625 L 1.171875 -2.84375 L 3.71875 -2.84375 L 3.71875 -2.296875 L 1.171875 -2.296875 L 1.171875 -0.546875 L 3.875 -0.546875 Z M 3.875 0 "/></g></g></g><g fill="#ffffff" fill-opacity="1"><g transform="translate(78.303881, 25.992323)"><g/></g></g><g fill="#ffffff" fill-opacity="1"><g transform="translate(79.982283, 25.992323)"><g><path d="M 4.75 0 L 4.125 0 L 3.640625 -1.3125 L 1.109375 -1.3125 L 0.625 0 L 0 0 L 1.9375 -5.109375 L 2.8125 -5.109375 Z M 2.296875 -4.484375 L 1.3125 -1.859375 L 3.421875 -1.859375 L 2.4375 -4.484375 Z M 2.296875 -4.484375 "/></g></g></g><g fill="#ffffff" fill-opacity="1"><g transform="translate(84.725578, 25.992323)"><g><path d="M 2.515625 0.078125 C 2.140625 0.078125 1.796875 -0.0078125 1.484375 -0.1875 C 1.179688 -0.363281 0.941406 -0.609375 0.765625 -0.921875 C 0.597656 -1.242188 0.515625 -1.601562 0.515625 -2 L 0.515625 -5.109375 L 1.09375 -5.109375 L 1.09375 -2 C 1.09375 -1.707031 1.15625 -1.441406 1.28125 -1.203125 C 1.40625 -0.972656 1.570312 -0.789062 1.78125 -0.65625 C 2 -0.53125 2.242188 -0.46875 2.515625 -0.46875 C 2.785156 -0.46875 3.023438 -0.53125 3.234375 -0.65625 C 3.453125 -0.789062 3.625 -0.972656 3.75 -1.203125 C 3.875 -1.441406 3.9375 -1.707031 3.9375 -2 L 3.9375 -5.109375 L 4.53125 -5.109375 L 4.53125 -2 C 4.53125 -1.601562 4.441406 -1.242188 4.265625 -0.921875 C 4.085938 -0.609375 3.84375 -0.363281 3.53125 -0.1875 C 3.226562 -0.0078125 2.890625 0.078125 2.515625 0.078125 Z M 2.515625 0.078125 "/></g></g></g><g fill="#ffffff" fill-opacity="1"><g transform="translate(89.760773, 25.992323)"><g><path d="M 0.578125 0 L 0.578125 -5.109375 L 2.296875 -5.109375 C 2.765625 -5.109375 3.179688 -5 3.546875 -4.78125 C 3.921875 -4.5625 4.210938 -4.257812 4.421875 -3.875 C 4.640625 -3.488281 4.75 -3.046875 4.75 -2.546875 C 4.75 -2.054688 4.640625 -1.617188 4.421875 -1.234375 C 4.210938 -0.847656 3.921875 -0.546875 3.546875 -0.328125 C 3.179688 -0.109375 2.765625 0 2.296875 0 Z M 2.296875 -0.546875 C 2.648438 -0.546875 2.96875 -0.628906 3.25 -0.796875 C 3.53125 -0.960938 3.75 -1.195312 3.90625 -1.5 C 4.070312 -1.8125 4.15625 -2.160156 4.15625 -2.546875 C 4.15625 -2.941406 4.070312 -3.289062 3.90625 -3.59375 C 3.75 -3.90625 3.53125 -4.144531 3.25 -4.3125 C 2.96875 -4.476562 2.648438 -4.5625 2.296875 -4.5625 L 1.171875 -4.5625 L 1.171875 -0.546875 Z M 2.296875 -0.546875 "/></g></g></g><g fill="#ffffff" fill-opacity="1"><g transform="translate(94.868938, 25.992323)"><g><path d="M 1.171875 0 L 0.578125 0 L 0.578125 -5.109375 L 1.171875 -5.109375 Z M 1.171875 0 "/></g></g></g><g fill="#ffffff" fill-opacity="1"><g transform="translate(96.62031, 25.992323)"><g><path d="M 2.8125 0.078125 C 2.363281 0.078125 1.953125 -0.03125 1.578125 -0.25 C 1.203125 -0.476562 0.90625 -0.789062 0.6875 -1.1875 C 0.46875 -1.582031 0.359375 -2.035156 0.359375 -2.546875 C 0.359375 -3.054688 0.46875 -3.507812 0.6875 -3.90625 C 0.90625 -4.3125 1.203125 -4.625 1.578125 -4.84375 C 1.953125 -5.070312 2.363281 -5.1875 2.8125 -5.1875 C 3.257812 -5.1875 3.671875 -5.070312 4.046875 -4.84375 C 4.421875 -4.625 4.710938 -4.3125 4.921875 -3.90625 C 5.140625 -3.507812 5.25 -3.054688 5.25 -2.546875 C 5.25 -2.035156 5.140625 -1.582031 4.921875 -1.1875 C 4.710938 -0.789062 4.421875 -0.476562 4.046875 -0.25 C 3.671875 -0.03125 3.257812 0.078125 2.8125 0.078125 Z M 2.8125 -0.46875 C 3.144531 -0.46875 3.453125 -0.554688 3.734375 -0.734375 C 4.023438 -0.910156 4.253906 -1.15625 4.421875 -1.46875 C 4.585938 -1.789062 4.671875 -2.148438 4.671875 -2.546875 C 4.671875 -2.953125 4.585938 -3.3125 4.421875 -3.625 C 4.253906 -3.945312 4.023438 -4.195312 3.734375 -4.375 C 3.453125 -4.550781 3.144531 -4.640625 2.8125 -4.640625 C 2.46875 -4.640625 2.148438 -4.550781 1.859375 -4.375 C 1.578125 -4.195312 1.351562 -3.945312 1.1875 -3.625 C 1.03125 -3.3125 0.953125 -2.953125 0.953125 -2.546875 C 0.953125 -2.148438 1.03125 -1.789062 1.1875 -1.46875 C 1.351562 -1.15625 1.578125 -0.910156 1.859375 -0.734375 C 2.148438 -0.554688 2.46875 -0.46875 2.8125 -0.46875 Z M 2.8125 -0.46875 "/></g></g></g><g fill="#ffffff" fill-opacity="1"><g transform="translate(102.239296, 25.992323)"><g/></g></g><g fill="#ffffff" fill-opacity="1"><g transform="translate(103.917697, 25.992323)"><g><path d="M 3.71875 0 L 0.578125 0 L 0.578125 -5.109375 L 1.171875 -5.109375 L 1.171875 -0.546875 L 3.71875 -0.546875 Z M 3.71875 0 "/></g></g></g><g fill="#ffffff" fill-opacity="1"><g transform="translate(107.785311, 25.992323)"><g><path d="M 4.75 0 L 4.125 0 L 3.640625 -1.3125 L 1.109375 -1.3125 L 0.625 0 L 0 0 L 1.9375 -5.109375 L 2.8125 -5.109375 Z M 2.296875 -4.484375 L 1.3125 -1.859375 L 3.421875 -1.859375 L 2.4375 -4.484375 Z M 2.296875 -4.484375 "/></g></g></g><g fill="#ffffff" fill-opacity="1"><g transform="translate(112.528606, 25.992323)"><g><path d="M 0.578125 0 L 0.578125 -5.109375 L 2.765625 -5.109375 C 3.023438 -5.109375 3.257812 -5.046875 3.46875 -4.921875 C 3.675781 -4.796875 3.84375 -4.625 3.96875 -4.40625 C 4.09375 -4.1875 4.15625 -3.945312 4.15625 -3.6875 C 4.15625 -3.425781 4.097656 -3.195312 3.984375 -3 C 3.867188 -2.8125 3.742188 -2.675781 3.609375 -2.59375 L 3.609375 -2.546875 C 3.773438 -2.472656 3.921875 -2.335938 4.046875 -2.140625 C 4.171875 -1.941406 4.234375 -1.703125 4.234375 -1.421875 C 4.234375 -1.160156 4.171875 -0.921875 4.046875 -0.703125 C 3.921875 -0.484375 3.75 -0.3125 3.53125 -0.1875 C 3.320312 -0.0625 3.09375 0 2.84375 0 Z M 2.765625 -2.8125 C 2.992188 -2.8125 3.1875 -2.894531 3.34375 -3.0625 C 3.5 -3.226562 3.578125 -3.4375 3.578125 -3.6875 C 3.578125 -3.9375 3.5 -4.144531 3.34375 -4.3125 C 3.1875 -4.476562 2.992188 -4.5625 2.765625 -4.5625 L 1.171875 -4.5625 L 1.171875 -2.8125 Z M 2.84375 -0.546875 C 3.070312 -0.546875 3.257812 -0.628906 3.40625 -0.796875 C 3.5625 -0.960938 3.640625 -1.171875 3.640625 -1.421875 C 3.640625 -1.671875 3.5625 -1.878906 3.40625 -2.046875 C 3.257812 -2.210938 3.070312 -2.296875 2.84375 -2.296875 L 1.171875 -2.296875 L 1.171875 -0.546875 Z M 2.84375 -0.546875 "/></g></g></g><g clip-path="url(#09136f6f84)"><g fill="#ffffff" fill-opacity="1"><g transform="translate(117.198931, 25.992323)"><g><path d="M 2.265625 0.078125 C 1.867188 0.078125 1.523438 0.00390625 1.234375 -0.140625 C 0.941406 -0.285156 0.71875 -0.476562 0.5625 -0.71875 C 0.40625 -0.957031 0.328125 -1.21875 0.328125 -1.5 L 0.90625 -1.5 C 0.90625 -1.3125 0.957031 -1.140625 1.0625 -0.984375 C 1.164062 -0.828125 1.320312 -0.703125 1.53125 -0.609375 C 1.738281 -0.515625 1.984375 -0.46875 2.265625 -0.46875 C 2.691406 -0.46875 3.007812 -0.550781 3.21875 -0.71875 C 3.425781 -0.894531 3.53125 -1.117188 3.53125 -1.390625 C 3.53125 -1.609375 3.457031 -1.785156 3.3125 -1.921875 C 3.164062 -2.066406 2.945312 -2.164062 2.65625 -2.21875 L 1.671875 -2.40625 C 0.847656 -2.5625 0.4375 -3 0.4375 -3.71875 C 0.4375 -4 0.503906 -4.25 0.640625 -4.46875 C 0.785156 -4.6875 0.988281 -4.859375 1.25 -4.984375 C 1.519531 -5.117188 1.832031 -5.1875 2.1875 -5.1875 C 2.570312 -5.1875 2.90625 -5.113281 3.1875 -4.96875 C 3.476562 -4.832031 3.703125 -4.644531 3.859375 -4.40625 C 4.015625 -4.164062 4.09375 -3.898438 4.09375 -3.609375 L 3.5 -3.609375 C 3.5 -3.796875 3.445312 -3.96875 3.34375 -4.125 C 3.238281 -4.28125 3.085938 -4.40625 2.890625 -4.5 C 2.691406 -4.59375 2.457031 -4.640625 2.1875 -4.640625 C 1.820312 -4.640625 1.535156 -4.550781 1.328125 -4.375 C 1.117188 -4.207031 1.015625 -3.988281 1.015625 -3.71875 C 1.015625 -3.519531 1.082031 -3.347656 1.21875 -3.203125 C 1.363281 -3.054688 1.578125 -2.960938 1.859375 -2.921875 L 2.65625 -2.765625 C 3.164062 -2.679688 3.535156 -2.523438 3.765625 -2.296875 C 4.003906 -2.078125 4.125 -1.773438 4.125 -1.390625 C 4.125 -1.109375 4.050781 -0.851562 3.90625 -0.625 C 3.757812 -0.40625 3.546875 -0.234375 3.265625 -0.109375 C 2.984375 0.015625 2.648438 0.078125 2.265625 0.078125 Z M 2.265625 0.078125 "/></g></g></g></g></g></g></svg>