<svg xmlns="http://www.w3.org/2000/svg" xmlns:xlink="http://www.w3.org/1999/xlink" width="600" zoomAndPan="magnify" viewBox="0 0 450 449.999984" height="600" preserveAspectRatio="xMidYMid meet" version="1.0"><defs><g/><clipPath id="a5862e8f65"><path d="M 0.0976562 0.558594 L 166.234375 0.558594 L 166.234375 7.203125 L 0.0976562 7.203125 Z M 0.0976562 0.558594 " clip-rule="nonzero"/></clipPath><clipPath id="5d290b1d10"><path d="M 0.0976562 0.558594 L 166.234375 0.558594 L 166.234375 7.203125 L 0.0976562 7.203125 Z M 0.0976562 0.558594 " clip-rule="nonzero"/></clipPath><clipPath id="be7ed93b33"><rect x="0" width="167" y="0" height="8"/></clipPath><clipPath id="f139d3bd44"><path d="M 0.0976562 0.558594 L 108.085938 0.558594 L 108.085938 7.203125 L 0.0976562 7.203125 Z M 0.0976562 0.558594 " clip-rule="nonzero"/></clipPath><clipPath id="4ffc7f4fcf"><path d="M 0.0976562 0.558594 L 108.085938 0.558594 L 108.085938 7.203125 L 0.0976562 7.203125 Z M 0.0976562 0.558594 " clip-rule="nonzero"/></clipPath><clipPath id="7fbed59d65"><rect x="0" width="109" y="0" height="8"/></clipPath><clipPath id="abb18b641a"><rect x="0" width="167" y="0" height="8"/></clipPath><clipPath id="752658f513"><path d="M 0.0976562 0.953125 L 166.234375 0.953125 L 166.234375 7.601562 L 0.0976562 7.601562 Z M 0.0976562 0.953125 " clip-rule="nonzero"/></clipPath><clipPath id="46376e6577"><path d="M 0.0976562 0.953125 L 166.234375 0.953125 L 166.234375 7.601562 L 0.0976562 7.601562 Z M 0.0976562 0.953125 " clip-rule="nonzero"/></clipPath><clipPath id="034fe3cede"><rect x="0" width="167" y="0" height="8"/></clipPath><clipPath id="a5a135580d"><path d="M 0.0976562 0.953125 L 116.390625 0.953125 L 116.390625 7.601562 L 0.0976562 7.601562 Z M 0.0976562 0.953125 " clip-rule="nonzero"/></clipPath><clipPath id="d39ee9735d"><path d="M 0.0976562 0.953125 L 116.390625 0.953125 L 116.390625 7.601562 L 0.0976562 7.601562 Z M 0.0976562 0.953125 " clip-rule="nonzero"/></clipPath><clipPath id="14e14ff85d"><rect x="0" width="117" y="0" height="8"/></clipPath><clipPath id="fe0e446ee2"><rect x="0" width="167" y="0" height="8"/></clipPath><clipPath id="fea552b53d"><path d="M 0.167969 0.484375 L 166.304688 0.484375 L 166.304688 7.132812 L 0.167969 7.132812 Z M 0.167969 0.484375 " clip-rule="nonzero"/></clipPath><clipPath id="0169b6cbac"><path d="M 0.167969 0.484375 L 166.304688 0.484375 L 166.304688 7.132812 L 0.167969 7.132812 Z M 0.167969 0.484375 " clip-rule="nonzero"/></clipPath><clipPath id="facee79f32"><rect x="0" width="167" y="0" height="8"/></clipPath><clipPath id="0a16b740ed"><path d="M 0.167969 0.484375 L 124.769531 0.484375 L 124.769531 7.132812 L 0.167969 7.132812 Z M 0.167969 0.484375 " clip-rule="nonzero"/></clipPath><clipPath id="29e929a1e8"><path d="M 0.167969 0.484375 L 124.769531 0.484375 L 124.769531 7.132812 L 0.167969 7.132812 Z M 0.167969 0.484375 " clip-rule="nonzero"/></clipPath><clipPath id="1619396434"><rect x="0" width="125" y="0" height="8"/></clipPath><clipPath id="0b3153dcaa"><rect x="0" width="167" y="0" height="8"/></clipPath><clipPath id="993117042e"><path d="M 0.167969 1.015625 L 166.304688 1.015625 L 166.304688 7.664062 L 0.167969 7.664062 Z M 0.167969 1.015625 " clip-rule="nonzero"/></clipPath><clipPath id="49621582fe"><path d="M 0.167969 0.015625 L 166.304688 0.015625 L 166.304688 6.664062 L 0.167969 6.664062 Z M 0.167969 0.015625 " clip-rule="nonzero"/></clipPath><clipPath id="b725212c67"><rect x="0" width="167" y="0" height="7"/></clipPath><clipPath id="c62a46661c"><path d="M 0.167969 1.015625 L 124.769531 1.015625 L 124.769531 7.664062 L 0.167969 7.664062 Z M 0.167969 1.015625 " clip-rule="nonzero"/></clipPath><clipPath id="3a28f11a3d"><path d="M 0.167969 0.015625 L 124.769531 0.015625 L 124.769531 6.664062 L 0.167969 6.664062 Z M 0.167969 0.015625 " clip-rule="nonzero"/></clipPath><clipPath id="4612086f92"><rect x="0" width="125" y="0" height="7"/></clipPath><clipPath id="b3e6d90e0f"><rect x="0" width="167" y="0" height="8"/></clipPath><clipPath id="264429ceb7"><path d="M 0.0976562 0.199219 L 166.234375 0.199219 L 166.234375 6.84375 L 0.0976562 6.84375 Z M 0.0976562 0.199219 " clip-rule="nonzero"/></clipPath><clipPath id="88124891dd"><path d="M 0.0976562 0.199219 L 166.234375 0.199219 L 166.234375 6.84375 L 0.0976562 6.84375 Z M 0.0976562 0.199219 " clip-rule="nonzero"/></clipPath><clipPath id="e091b7dcc9"><rect x="0" width="167" y="0" height="7"/></clipPath><clipPath id="a3a881a2a3"><path d="M 0.0976562 0.199219 L 149.621094 0.199219 L 149.621094 6.84375 L 0.0976562 6.84375 Z M 0.0976562 0.199219 " clip-rule="nonzero"/></clipPath><clipPath id="9d3bca4f0a"><path d="M 0.0976562 0.199219 L 149.621094 0.199219 L 149.621094 6.84375 L 0.0976562 6.84375 Z M 0.0976562 0.199219 " clip-rule="nonzero"/></clipPath><clipPath id="c68c6d8bcb"><rect x="0" width="150" y="0" height="7"/></clipPath><clipPath id="a7190d6ab1"><rect x="0" width="167" y="0" height="7"/></clipPath></defs><rect x="-45" width="540" fill="#ffffff" y="-44.999998" height="539.99998" fill-opacity="1"/><rect x="-45" width="540" fill="#ffffff" y="-44.999998" height="539.99998" fill-opacity="1"/><g transform="matrix(1, 0, 0, 1, 197, 93)"><g clip-path="url(#abb18b641a)"><g clip-path="url(#a5862e8f65)"><g transform="matrix(1, 0, 0, 1, -0.000000000000028422, -0.000000000000014211)"><g clip-path="url(#be7ed93b33)"><g clip-path="url(#5d290b1d10)"><path fill="#817b54" d="M 0.0976562 0.558594 L 166.234375 0.558594 L 166.234375 7.203125 L 0.0976562 7.203125 Z M 0.0976562 0.558594 " fill-opacity="1" fill-rule="nonzero"/></g></g></g></g><g clip-path="url(#f139d3bd44)"><g transform="matrix(1, 0, 0, 1, -0.000000000000028422, -0.000000000000014211)"><g clip-path="url(#7fbed59d65)"><g clip-path="url(#4ffc7f4fcf)"><path fill="#41452f" d="M 0.0976562 0.558594 L 166.234375 0.558594 L 166.234375 7.203125 L 0.0976562 7.203125 Z M 0.0976562 0.558594 " fill-opacity="1" fill-rule="nonzero"/></g></g></g></g></g></g><g transform="matrix(1, 0, 0, 1, 197, 155)"><g clip-path="url(#fe0e446ee2)"><g clip-path="url(#752658f513)"><g transform="matrix(1, 0, 0, 1, -0.000000000000028422, -0.000000000000028422)"><g clip-path="url(#034fe3cede)"><g clip-path="url(#46376e6577)"><path fill="#817b54" d="M 0.0976562 0.953125 L 166.234375 0.953125 L 166.234375 7.601562 L 0.0976562 7.601562 Z M 0.0976562 0.953125 " fill-opacity="1" fill-rule="nonzero"/></g></g></g></g><g clip-path="url(#a5a135580d)"><g transform="matrix(1, 0, 0, 1, -0.000000000000028422, -0.000000000000028422)"><g clip-path="url(#14e14ff85d)"><g clip-path="url(#d39ee9735d)"><path fill="#41452f" d="M 0.0976562 0.953125 L 166.234375 0.953125 L 166.234375 7.601562 L 0.0976562 7.601562 Z M 0.0976562 0.953125 " fill-opacity="1" fill-rule="nonzero"/></g></g></g></g></g></g><g transform="matrix(1, 0, 0, 1, 198, 221)"><g clip-path="url(#0b3153dcaa)"><g clip-path="url(#fea552b53d)"><g transform="matrix(1, 0, 0, 1, -0.000000000000028422, -0.000000000000056843)"><g clip-path="url(#facee79f32)"><g clip-path="url(#0169b6cbac)"><path fill="#817b54" d="M 0.167969 0.484375 L 166.304688 0.484375 L 166.304688 7.132812 L 0.167969 7.132812 Z M 0.167969 0.484375 " fill-opacity="1" fill-rule="nonzero"/></g></g></g></g><g clip-path="url(#0a16b740ed)"><g transform="matrix(1, 0, 0, 1, -0.000000000000028422, -0.000000000000056843)"><g clip-path="url(#1619396434)"><g clip-path="url(#29e929a1e8)"><path fill="#41452f" d="M 0.167969 0.484375 L 166.304688 0.484375 L 166.304688 7.132812 L 0.167969 7.132812 Z M 0.167969 0.484375 " fill-opacity="1" fill-rule="nonzero"/></g></g></g></g></g></g><g transform="matrix(1, 0, 0, 1, 198, 286)"><g clip-path="url(#b3e6d90e0f)"><g clip-path="url(#993117042e)"><g transform="matrix(1, 0, 0, 1, -0.000000000000028422, 1)"><g clip-path="url(#b725212c67)"><g clip-path="url(#49621582fe)"><path fill="#817b54" d="M 0.167969 0.015625 L 166.304688 0.015625 L 166.304688 6.664062 L 0.167969 6.664062 Z M 0.167969 0.015625 " fill-opacity="1" fill-rule="nonzero"/></g></g></g></g><g clip-path="url(#c62a46661c)"><g transform="matrix(1, 0, 0, 1, -0.000000000000028422, 1)"><g clip-path="url(#4612086f92)"><g clip-path="url(#3a28f11a3d)"><path fill="#41452f" d="M 0.167969 0.015625 L 166.304688 0.015625 L 166.304688 6.664062 L 0.167969 6.664062 Z M 0.167969 0.015625 " fill-opacity="1" fill-rule="nonzero"/></g></g></g></g></g></g><g transform="matrix(1, 0, 0, 1, 197, 350)"><g clip-path="url(#a7190d6ab1)"><g clip-path="url(#264429ceb7)"><g transform="matrix(1, 0, 0, 1, -0.000000000000028422, -0.000000000000056843)"><g clip-path="url(#e091b7dcc9)"><g clip-path="url(#88124891dd)"><path fill="#817b54" d="M 0.0976562 0.199219 L 166.234375 0.199219 L 166.234375 6.84375 L 0.0976562 6.84375 Z M 0.0976562 0.199219 " fill-opacity="1" fill-rule="nonzero"/></g></g></g></g><g clip-path="url(#a3a881a2a3)"><g transform="matrix(1, 0, 0, 1, -0.000000000000028422, -0.000000000000056843)"><g clip-path="url(#c68c6d8bcb)"><g clip-path="url(#9d3bca4f0a)"><path fill="#41452f" d="M 0.0976562 0.199219 L 166.234375 0.199219 L 166.234375 6.84375 L 0.0976562 6.84375 Z M 0.0976562 0.199219 " fill-opacity="1" fill-rule="nonzero"/></g></g></g></g></g></g><g fill="#000000" fill-opacity="1"><g transform="translate(85.696511, 100.629477)"><g><path d="M 2.765625 0.09375 C 1.929688 0.09375 1.34375 -0.148438 1 -0.640625 C 0.664062 -1.140625 0.5 -1.828125 0.5 -2.703125 L 0.5 -5.671875 C 0.5 -6.597656 0.664062 -7.296875 1 -7.765625 C 1.332031 -8.242188 1.921875 -8.484375 2.765625 -8.484375 C 3.515625 -8.484375 4.054688 -8.28125 4.390625 -7.875 C 4.722656 -7.46875 4.890625 -6.863281 4.890625 -6.0625 L 4.890625 -5.40625 L 3.765625 -5.40625 L 3.765625 -6 C 3.765625 -6.382812 3.75 -6.679688 3.71875 -6.890625 C 3.6875 -7.097656 3.597656 -7.265625 3.453125 -7.390625 C 3.304688 -7.515625 3.082031 -7.578125 2.78125 -7.578125 C 2.457031 -7.578125 2.21875 -7.507812 2.0625 -7.375 C 1.90625 -7.238281 1.800781 -7.050781 1.75 -6.8125 C 1.707031 -6.570312 1.6875 -6.25 1.6875 -5.84375 L 1.6875 -2.515625 C 1.6875 -2.085938 1.71875 -1.75 1.78125 -1.5 C 1.851562 -1.257812 1.96875 -1.085938 2.125 -0.984375 C 2.28125 -0.878906 2.5 -0.828125 2.78125 -0.828125 C 3.070312 -0.828125 3.289062 -0.890625 3.4375 -1.015625 C 3.582031 -1.148438 3.671875 -1.332031 3.703125 -1.5625 C 3.742188 -1.789062 3.765625 -2.101562 3.765625 -2.5 L 3.765625 -3.125 L 4.890625 -3.125 L 4.890625 -2.5 C 4.890625 -1.664062 4.726562 -1.023438 4.40625 -0.578125 C 4.09375 -0.128906 3.546875 0.09375 2.765625 0.09375 Z M 2.765625 0.09375 "/></g></g></g><g fill="#000000" fill-opacity="1"><g transform="translate(91.704899, 100.629477)"><g><path d="M 2.8125 0.09375 C 1.976562 0.09375 1.382812 -0.140625 1.03125 -0.609375 C 0.675781 -1.078125 0.5 -1.753906 0.5 -2.640625 L 0.5 -5.828125 C 0.5 -6.703125 0.675781 -7.363281 1.03125 -7.8125 C 1.394531 -8.257812 1.988281 -8.484375 2.8125 -8.484375 C 3.625 -8.484375 4.207031 -8.253906 4.5625 -7.796875 C 4.925781 -7.347656 5.109375 -6.691406 5.109375 -5.828125 L 5.109375 -2.625 C 5.109375 -1.75 4.925781 -1.078125 4.5625 -0.609375 C 4.195312 -0.140625 3.613281 0.09375 2.8125 0.09375 Z M 2.8125 -0.828125 C 3.238281 -0.828125 3.53125 -0.953125 3.6875 -1.203125 C 3.84375 -1.460938 3.921875 -1.851562 3.921875 -2.375 L 3.921875 -6.0625 C 3.921875 -6.582031 3.84375 -6.960938 3.6875 -7.203125 C 3.53125 -7.453125 3.238281 -7.578125 2.8125 -7.578125 C 2.363281 -7.578125 2.0625 -7.453125 1.90625 -7.203125 C 1.757812 -6.960938 1.6875 -6.582031 1.6875 -6.0625 L 1.6875 -2.375 C 1.6875 -1.851562 1.757812 -1.460938 1.90625 -1.203125 C 2.0625 -0.953125 2.363281 -0.828125 2.8125 -0.828125 Z M 2.8125 -0.828125 "/></g></g></g><g fill="#000000" fill-opacity="1"><g transform="translate(97.962757, 100.629477)"><g><path d="M 0.796875 -8.421875 L 1.9375 -8.421875 L 3.421875 -1.59375 L 4.921875 -8.421875 L 6.0625 -8.421875 L 6.21875 0 L 5.28125 0 L 5.1875 -6.109375 L 3.765625 0 L 3.09375 0 L 1.6875 -6.109375 L 1.59375 0 L 0.640625 0 Z M 0.796875 -8.421875 "/></g></g></g><g fill="#000000" fill-opacity="1"><g transform="translate(105.478343, 100.629477)"><g><path d="M 0.796875 -8.421875 L 1.9375 -8.421875 L 3.421875 -1.59375 L 4.921875 -8.421875 L 6.0625 -8.421875 L 6.21875 0 L 5.28125 0 L 5.1875 -6.109375 L 3.765625 0 L 3.09375 0 L 1.6875 -6.109375 L 1.59375 0 L 0.640625 0 Z M 0.796875 -8.421875 "/></g></g></g><g fill="#000000" fill-opacity="1"><g transform="translate(112.993929, 100.629477)"><g><path d="M 2.828125 0.09375 C 2.234375 0.09375 1.769531 -0.0195312 1.4375 -0.25 C 1.113281 -0.488281 0.890625 -0.816406 0.765625 -1.234375 C 0.640625 -1.660156 0.578125 -2.195312 0.578125 -2.84375 L 0.578125 -8.421875 L 1.703125 -8.421875 L 1.703125 -2.78125 C 1.703125 -2.144531 1.773438 -1.660156 1.921875 -1.328125 C 2.078125 -0.992188 2.378906 -0.828125 2.828125 -0.828125 C 3.273438 -0.828125 3.570312 -0.992188 3.71875 -1.328125 C 3.875 -1.660156 3.953125 -2.144531 3.953125 -2.78125 L 3.953125 -8.421875 L 5.0625 -8.421875 L 5.0625 -2.84375 C 5.0625 -2.195312 5 -1.660156 4.875 -1.234375 C 4.75 -0.816406 4.519531 -0.488281 4.1875 -0.25 C 3.863281 -0.0195312 3.410156 0.09375 2.828125 0.09375 Z M 2.828125 0.09375 "/></g></g></g><g fill="#000000" fill-opacity="1"><g transform="translate(119.293364, 100.629477)"><g><path d="M 0.65625 -8.421875 L 1.453125 -8.421875 L 3.84375 -2.828125 L 3.84375 -8.421875 L 4.828125 -8.421875 L 4.828125 0 L 4.078125 0 L 1.65625 -5.75 L 1.65625 0 L 0.65625 0 Z M 0.65625 -8.421875 "/></g></g></g><g fill="#000000" fill-opacity="1"><g transform="translate(125.436884, 100.629477)"><g><path d="M 0.71875 -8.421875 L 1.875 -8.421875 L 1.875 0 L 0.71875 0 Z M 0.71875 -8.421875 "/></g></g></g><g fill="#000000" fill-opacity="1"><g transform="translate(128.669954, 100.629477)"><g><path d="M 2.765625 0.09375 C 1.929688 0.09375 1.34375 -0.148438 1 -0.640625 C 0.664062 -1.140625 0.5 -1.828125 0.5 -2.703125 L 0.5 -5.671875 C 0.5 -6.597656 0.664062 -7.296875 1 -7.765625 C 1.332031 -8.242188 1.921875 -8.484375 2.765625 -8.484375 C 3.515625 -8.484375 4.054688 -8.28125 4.390625 -7.875 C 4.722656 -7.46875 4.890625 -6.863281 4.890625 -6.0625 L 4.890625 -5.40625 L 3.765625 -5.40625 L 3.765625 -6 C 3.765625 -6.382812 3.75 -6.679688 3.71875 -6.890625 C 3.6875 -7.097656 3.597656 -7.265625 3.453125 -7.390625 C 3.304688 -7.515625 3.082031 -7.578125 2.78125 -7.578125 C 2.457031 -7.578125 2.21875 -7.507812 2.0625 -7.375 C 1.90625 -7.238281 1.800781 -7.050781 1.75 -6.8125 C 1.707031 -6.570312 1.6875 -6.25 1.6875 -5.84375 L 1.6875 -2.515625 C 1.6875 -2.085938 1.71875 -1.75 1.78125 -1.5 C 1.851562 -1.257812 1.96875 -1.085938 2.125 -0.984375 C 2.28125 -0.878906 2.5 -0.828125 2.78125 -0.828125 C 3.070312 -0.828125 3.289062 -0.890625 3.4375 -1.015625 C 3.582031 -1.148438 3.671875 -1.332031 3.703125 -1.5625 C 3.742188 -1.789062 3.765625 -2.101562 3.765625 -2.5 L 3.765625 -3.125 L 4.890625 -3.125 L 4.890625 -2.5 C 4.890625 -1.664062 4.726562 -1.023438 4.40625 -0.578125 C 4.09375 -0.128906 3.546875 0.09375 2.765625 0.09375 Z M 2.765625 0.09375 "/></g></g></g><g fill="#000000" fill-opacity="1"><g transform="translate(134.678342, 100.629477)"><g><path d="M 1.984375 -8.421875 L 3.109375 -8.421875 L 4.921875 0 L 3.796875 0 L 3.421875 -2.125 L 1.703125 -2.125 L 1.296875 0 L 0.203125 0 Z M 3.265625 -2.96875 L 2.5625 -6.75 L 1.859375 -2.96875 Z M 3.265625 -2.96875 "/></g></g></g><g fill="#000000" fill-opacity="1"><g transform="translate(140.447651, 100.629477)"><g><path d="M 1.578125 -7.546875 L 0.15625 -7.546875 L 0.15625 -8.421875 L 4.140625 -8.421875 L 4.140625 -7.546875 L 2.75 -7.546875 L 2.75 0 L 1.578125 0 Z M 1.578125 -7.546875 "/></g></g></g><g fill="#000000" fill-opacity="1"><g transform="translate(145.395802, 100.629477)"><g><path d="M 0.71875 -8.421875 L 1.875 -8.421875 L 1.875 0 L 0.71875 0 Z M 0.71875 -8.421875 "/></g></g></g><g fill="#000000" fill-opacity="1"><g transform="translate(148.628872, 100.629477)"><g><path d="M 2.8125 0.09375 C 1.976562 0.09375 1.382812 -0.140625 1.03125 -0.609375 C 0.675781 -1.078125 0.5 -1.753906 0.5 -2.640625 L 0.5 -5.828125 C 0.5 -6.703125 0.675781 -7.363281 1.03125 -7.8125 C 1.394531 -8.257812 1.988281 -8.484375 2.8125 -8.484375 C 3.625 -8.484375 4.207031 -8.253906 4.5625 -7.796875 C 4.925781 -7.347656 5.109375 -6.691406 5.109375 -5.828125 L 5.109375 -2.625 C 5.109375 -1.75 4.925781 -1.078125 4.5625 -0.609375 C 4.195312 -0.140625 3.613281 0.09375 2.8125 0.09375 Z M 2.8125 -0.828125 C 3.238281 -0.828125 3.53125 -0.953125 3.6875 -1.203125 C 3.84375 -1.460938 3.921875 -1.851562 3.921875 -2.375 L 3.921875 -6.0625 C 3.921875 -6.582031 3.84375 -6.960938 3.6875 -7.203125 C 3.53125 -7.453125 3.238281 -7.578125 2.8125 -7.578125 C 2.363281 -7.578125 2.0625 -7.453125 1.90625 -7.203125 C 1.757812 -6.960938 1.6875 -6.582031 1.6875 -6.0625 L 1.6875 -2.375 C 1.6875 -1.851562 1.757812 -1.460938 1.90625 -1.203125 C 2.0625 -0.953125 2.363281 -0.828125 2.8125 -0.828125 Z M 2.8125 -0.828125 "/></g></g></g><g fill="#000000" fill-opacity="1"><g transform="translate(154.886729, 100.629477)"><g><path d="M 0.65625 -8.421875 L 1.453125 -8.421875 L 3.84375 -2.828125 L 3.84375 -8.421875 L 4.828125 -8.421875 L 4.828125 0 L 4.078125 0 L 1.65625 -5.75 L 1.65625 0 L 0.65625 0 Z M 0.65625 -8.421875 "/></g></g></g><g fill="#000000" fill-opacity="1"><g transform="translate(85.696511, 163.027384)"><g><path d="M 0.71875 -8.421875 L 1.875 -8.421875 L 1.875 0 L 0.71875 0 Z M 0.71875 -8.421875 "/></g></g></g><g fill="#000000" fill-opacity="1"><g transform="translate(88.929581, 163.027384)"><g><path d="M 0.65625 -8.421875 L 1.453125 -8.421875 L 3.84375 -2.828125 L 3.84375 -8.421875 L 4.828125 -8.421875 L 4.828125 0 L 4.078125 0 L 1.65625 -5.75 L 1.65625 0 L 0.65625 0 Z M 0.65625 -8.421875 "/></g></g></g><g fill="#000000" fill-opacity="1"><g transform="translate(95.073101, 163.027384)"><g><path d="M 0.65625 -8.421875 L 1.453125 -8.421875 L 3.84375 -2.828125 L 3.84375 -8.421875 L 4.828125 -8.421875 L 4.828125 0 L 4.078125 0 L 1.65625 -5.75 L 1.65625 0 L 0.65625 0 Z M 0.65625 -8.421875 "/></g></g></g><g fill="#000000" fill-opacity="1"><g transform="translate(101.216621, 163.027384)"><g><path d="M 2.8125 0.09375 C 1.976562 0.09375 1.382812 -0.140625 1.03125 -0.609375 C 0.675781 -1.078125 0.5 -1.753906 0.5 -2.640625 L 0.5 -5.828125 C 0.5 -6.703125 0.675781 -7.363281 1.03125 -7.8125 C 1.394531 -8.257812 1.988281 -8.484375 2.8125 -8.484375 C 3.625 -8.484375 4.207031 -8.253906 4.5625 -7.796875 C 4.925781 -7.347656 5.109375 -6.691406 5.109375 -5.828125 L 5.109375 -2.625 C 5.109375 -1.75 4.925781 -1.078125 4.5625 -0.609375 C 4.195312 -0.140625 3.613281 0.09375 2.8125 0.09375 Z M 2.8125 -0.828125 C 3.238281 -0.828125 3.53125 -0.953125 3.6875 -1.203125 C 3.84375 -1.460938 3.921875 -1.851562 3.921875 -2.375 L 3.921875 -6.0625 C 3.921875 -6.582031 3.84375 -6.960938 3.6875 -7.203125 C 3.53125 -7.453125 3.238281 -7.578125 2.8125 -7.578125 C 2.363281 -7.578125 2.0625 -7.453125 1.90625 -7.203125 C 1.757812 -6.960938 1.6875 -6.582031 1.6875 -6.0625 L 1.6875 -2.375 C 1.6875 -1.851562 1.757812 -1.460938 1.90625 -1.203125 C 2.0625 -0.953125 2.363281 -0.828125 2.8125 -0.828125 Z M 2.8125 -0.828125 "/></g></g></g><g fill="#000000" fill-opacity="1"><g transform="translate(107.474479, 163.027384)"><g><path d="M 0.234375 -8.421875 L 1.34375 -8.421875 L 2.671875 -2.21875 L 3.9375 -8.421875 L 5.015625 -8.421875 L 3.140625 0 L 2.125 0 Z M 0.234375 -8.421875 "/></g></g></g><g fill="#000000" fill-opacity="1"><g transform="translate(113.37892, 163.027384)"><g><path d="M 1.984375 -8.421875 L 3.109375 -8.421875 L 4.921875 0 L 3.796875 0 L 3.421875 -2.125 L 1.703125 -2.125 L 1.296875 0 L 0.203125 0 Z M 3.265625 -2.96875 L 2.5625 -6.75 L 1.859375 -2.96875 Z M 3.265625 -2.96875 "/></g></g></g><g fill="#000000" fill-opacity="1"><g transform="translate(119.14823, 163.027384)"><g><path d="M 1.578125 -7.546875 L 0.15625 -7.546875 L 0.15625 -8.421875 L 4.140625 -8.421875 L 4.140625 -7.546875 L 2.75 -7.546875 L 2.75 0 L 1.578125 0 Z M 1.578125 -7.546875 "/></g></g></g><g fill="#000000" fill-opacity="1"><g transform="translate(124.09638, 163.027384)"><g><path d="M 0.71875 -8.421875 L 1.875 -8.421875 L 1.875 0 L 0.71875 0 Z M 0.71875 -8.421875 "/></g></g></g><g fill="#000000" fill-opacity="1"><g transform="translate(127.32945, 163.027384)"><g><path d="M 0.234375 -8.421875 L 1.34375 -8.421875 L 2.671875 -2.21875 L 3.9375 -8.421875 L 5.015625 -8.421875 L 3.140625 0 L 2.125 0 Z M 0.234375 -8.421875 "/></g></g></g><g fill="#000000" fill-opacity="1"><g transform="translate(133.233891, 163.027384)"><g><path d="M 0.65625 -8.421875 L 3.921875 -8.421875 L 3.921875 -7.546875 L 1.828125 -7.546875 L 1.828125 -4.765625 L 3.515625 -4.765625 L 3.515625 -3.921875 L 1.828125 -3.921875 L 1.828125 -0.84375 L 3.9375 -0.84375 L 3.9375 0 L 0.65625 0 Z M 0.65625 -8.421875 "/></g></g></g><g fill="#000000" fill-opacity="1"><g transform="translate(138.119671, 163.027384)"><g/></g></g><g fill="#000000" fill-opacity="1"><g transform="translate(141.155239, 163.027384)"><g><path d="M 1.578125 -7.546875 L 0.15625 -7.546875 L 0.15625 -8.421875 L 4.140625 -8.421875 L 4.140625 -7.546875 L 2.75 -7.546875 L 2.75 0 L 1.578125 0 Z M 1.578125 -7.546875 "/></g></g></g><g fill="#000000" fill-opacity="1"><g transform="translate(146.10339, 163.027384)"><g><path d="M 0.65625 -8.421875 L 1.828125 -8.421875 L 1.828125 -4.78125 L 3.984375 -4.78125 L 3.984375 -8.421875 L 5.171875 -8.421875 L 5.171875 0 L 3.984375 0 L 3.984375 -3.9375 L 1.828125 -3.9375 L 1.828125 0 L 0.65625 0 Z M 0.65625 -8.421875 "/></g></g></g><g fill="#000000" fill-opacity="1"><g transform="translate(152.589923, 163.027384)"><g><path d="M 0.71875 -8.421875 L 1.875 -8.421875 L 1.875 0 L 0.71875 0 Z M 0.71875 -8.421875 "/></g></g></g><g fill="#000000" fill-opacity="1"><g transform="translate(155.822993, 163.027384)"><g><path d="M 0.65625 -8.421875 L 1.453125 -8.421875 L 3.84375 -2.828125 L 3.84375 -8.421875 L 4.828125 -8.421875 L 4.828125 0 L 4.078125 0 L 1.65625 -5.75 L 1.65625 0 L 0.65625 0 Z M 0.65625 -8.421875 "/></g></g></g><g fill="#000000" fill-opacity="1"><g transform="translate(161.966513, 163.027384)"><g><path d="M 0.65625 -8.421875 L 1.828125 -8.421875 L 1.828125 -4.453125 L 3.765625 -8.421875 L 4.859375 -8.421875 L 3.1875 -4.703125 L 5.125 0 L 3.984375 0 L 2.375 -3.953125 L 1.828125 -2.96875 L 1.828125 0 L 0.65625 0 Z M 0.65625 -8.421875 "/></g></g></g><g fill="#000000" fill-opacity="1"><g transform="translate(167.767008, 163.027384)"><g><path d="M 0.71875 -8.421875 L 1.875 -8.421875 L 1.875 0 L 0.71875 0 Z M 0.71875 -8.421875 "/></g></g></g><g fill="#000000" fill-opacity="1"><g transform="translate(171.000078, 163.027384)"><g><path d="M 0.65625 -8.421875 L 1.453125 -8.421875 L 3.84375 -2.828125 L 3.84375 -8.421875 L 4.828125 -8.421875 L 4.828125 0 L 4.078125 0 L 1.65625 -5.75 L 1.65625 0 L 0.65625 0 Z M 0.65625 -8.421875 "/></g></g></g><g fill="#000000" fill-opacity="1"><g transform="translate(177.143598, 163.027384)"><g><path d="M 2.65625 0.109375 C 1.894531 0.109375 1.34375 -0.128906 1 -0.609375 C 0.664062 -1.097656 0.5 -1.816406 0.5 -2.765625 L 0.5 -5.578125 C 0.5 -6.234375 0.566406 -6.769531 0.703125 -7.1875 C 0.835938 -7.601562 1.066406 -7.921875 1.390625 -8.140625 C 1.722656 -8.367188 2.175781 -8.484375 2.75 -8.484375 C 3.53125 -8.484375 4.09375 -8.285156 4.4375 -7.890625 C 4.78125 -7.492188 4.953125 -6.875 4.953125 -6.03125 L 4.953125 -5.71875 L 3.84375 -5.71875 L 3.84375 -5.984375 C 3.84375 -6.390625 3.816406 -6.703125 3.765625 -6.921875 C 3.722656 -7.140625 3.625 -7.300781 3.46875 -7.40625 C 3.3125 -7.519531 3.082031 -7.578125 2.78125 -7.578125 C 2.445312 -7.578125 2.203125 -7.5 2.046875 -7.34375 C 1.890625 -7.195312 1.785156 -7 1.734375 -6.75 C 1.691406 -6.5 1.671875 -6.164062 1.671875 -5.75 L 1.671875 -2.640625 C 1.671875 -1.992188 1.75 -1.53125 1.90625 -1.25 C 2.0625 -0.96875 2.363281 -0.828125 2.8125 -0.828125 C 3.238281 -0.828125 3.535156 -0.976562 3.703125 -1.28125 C 3.867188 -1.59375 3.953125 -2.082031 3.953125 -2.75 L 3.953125 -3.328125 L 2.875 -3.328125 L 2.875 -4.171875 L 5.015625 -4.171875 L 5.015625 0 L 4.265625 0 L 4.15625 -0.96875 C 3.894531 -0.25 3.394531 0.109375 2.65625 0.109375 Z M 2.65625 0.109375 "/></g></g></g><g fill="#000000" fill-opacity="1"><g transform="translate(86.766945, 228.425284)"><g><path d="M 1.578125 -7.546875 L 0.15625 -7.546875 L 0.15625 -8.421875 L 4.140625 -8.421875 L 4.140625 -7.546875 L 2.75 -7.546875 L 2.75 0 L 1.578125 0 Z M 1.578125 -7.546875 "/></g></g></g><g fill="#000000" fill-opacity="1"><g transform="translate(91.715095, 228.425284)"><g><path d="M 0.65625 -8.421875 L 3.921875 -8.421875 L 3.921875 -7.546875 L 1.828125 -7.546875 L 1.828125 -4.765625 L 3.515625 -4.765625 L 3.515625 -3.921875 L 1.828125 -3.921875 L 1.828125 -0.84375 L 3.9375 -0.84375 L 3.9375 0 L 0.65625 0 Z M 0.65625 -8.421875 "/></g></g></g><g fill="#000000" fill-opacity="1"><g transform="translate(96.600875, 228.425284)"><g><path d="M 1.984375 -8.421875 L 3.109375 -8.421875 L 4.921875 0 L 3.796875 0 L 3.421875 -2.125 L 1.703125 -2.125 L 1.296875 0 L 0.203125 0 Z M 3.265625 -2.96875 L 2.5625 -6.75 L 1.859375 -2.96875 Z M 3.265625 -2.96875 "/></g></g></g><g fill="#000000" fill-opacity="1"><g transform="translate(102.370184, 228.425284)"><g><path d="M 0.796875 -8.421875 L 1.9375 -8.421875 L 3.421875 -1.59375 L 4.921875 -8.421875 L 6.0625 -8.421875 L 6.21875 0 L 5.28125 0 L 5.1875 -6.109375 L 3.765625 0 L 3.09375 0 L 1.6875 -6.109375 L 1.59375 0 L 0.640625 0 Z M 0.796875 -8.421875 "/></g></g></g><g fill="#000000" fill-opacity="1"><g transform="translate(109.885771, 228.425284)"><g><path d="M 0.375 -8.421875 L 1.34375 -8.421875 L 2.25 -2.375 L 3.390625 -8.390625 L 4.21875 -8.390625 L 5.359375 -2.34375 L 6.25 -8.421875 L 7.203125 -8.421875 L 5.84375 0 L 5 0 L 3.828125 -6.234375 L 2.640625 0 L 1.75 0 Z M 0.375 -8.421875 "/></g></g></g><g fill="#000000" fill-opacity="1"><g transform="translate(118.118569, 228.425284)"><g><path d="M 2.8125 0.09375 C 1.976562 0.09375 1.382812 -0.140625 1.03125 -0.609375 C 0.675781 -1.078125 0.5 -1.753906 0.5 -2.640625 L 0.5 -5.828125 C 0.5 -6.703125 0.675781 -7.363281 1.03125 -7.8125 C 1.394531 -8.257812 1.988281 -8.484375 2.8125 -8.484375 C 3.625 -8.484375 4.207031 -8.253906 4.5625 -7.796875 C 4.925781 -7.347656 5.109375 -6.691406 5.109375 -5.828125 L 5.109375 -2.625 C 5.109375 -1.75 4.925781 -1.078125 4.5625 -0.609375 C 4.195312 -0.140625 3.613281 0.09375 2.8125 0.09375 Z M 2.8125 -0.828125 C 3.238281 -0.828125 3.53125 -0.953125 3.6875 -1.203125 C 3.84375 -1.460938 3.921875 -1.851562 3.921875 -2.375 L 3.921875 -6.0625 C 3.921875 -6.582031 3.84375 -6.960938 3.6875 -7.203125 C 3.53125 -7.453125 3.238281 -7.578125 2.8125 -7.578125 C 2.363281 -7.578125 2.0625 -7.453125 1.90625 -7.203125 C 1.757812 -6.960938 1.6875 -6.582031 1.6875 -6.0625 L 1.6875 -2.375 C 1.6875 -1.851562 1.757812 -1.460938 1.90625 -1.203125 C 2.0625 -0.953125 2.363281 -0.828125 2.8125 -0.828125 Z M 2.8125 -0.828125 "/></g></g></g><g fill="#000000" fill-opacity="1"><g transform="translate(124.376427, 228.425284)"><g><path d="M 0.65625 -8.421875 L 2.34375 -8.421875 C 3.195312 -8.421875 3.820312 -8.242188 4.21875 -7.890625 C 4.625 -7.535156 4.828125 -6.96875 4.828125 -6.1875 C 4.828125 -5.101562 4.476562 -4.445312 3.78125 -4.21875 L 4.984375 0 L 3.84375 0 L 2.75 -3.953125 L 1.828125 -3.953125 L 1.828125 0 L 0.65625 0 Z M 2.28125 -4.796875 C 2.78125 -4.796875 3.140625 -4.894531 3.359375 -5.09375 C 3.578125 -5.289062 3.6875 -5.65625 3.6875 -6.1875 C 3.6875 -6.53125 3.644531 -6.800781 3.5625 -7 C 3.488281 -7.195312 3.351562 -7.34375 3.15625 -7.4375 C 2.96875 -7.53125 2.695312 -7.578125 2.34375 -7.578125 L 1.828125 -7.578125 L 1.828125 -4.796875 Z M 2.28125 -4.796875 "/></g></g></g><g fill="#000000" fill-opacity="1"><g transform="translate(130.426392, 228.425284)"><g><path d="M 0.65625 -8.421875 L 1.828125 -8.421875 L 1.828125 -4.453125 L 3.765625 -8.421875 L 4.859375 -8.421875 L 3.1875 -4.703125 L 5.125 0 L 3.984375 0 L 2.375 -3.953125 L 1.828125 -2.96875 L 1.828125 0 L 0.65625 0 Z M 0.65625 -8.421875 "/></g></g></g><g fill="#000000" fill-opacity="1"><g transform="translate(86.766945, 293.8232)"><g><path d="M 0.65625 -8.421875 L 1.828125 -8.421875 L 1.828125 -0.84375 L 3.984375 -0.84375 L 3.984375 0 L 0.65625 0 Z M 0.65625 -8.421875 "/></g></g></g><g fill="#000000" fill-opacity="1"><g transform="translate(91.548789, 293.8232)"><g><path d="M 0.65625 -8.421875 L 3.921875 -8.421875 L 3.921875 -7.546875 L 1.828125 -7.546875 L 1.828125 -4.765625 L 3.515625 -4.765625 L 3.515625 -3.921875 L 1.828125 -3.921875 L 1.828125 -0.84375 L 3.9375 -0.84375 L 3.9375 0 L 0.65625 0 Z M 0.65625 -8.421875 "/></g></g></g><g fill="#000000" fill-opacity="1"><g transform="translate(96.434569, 293.8232)"><g><path d="M 1.984375 -8.421875 L 3.109375 -8.421875 L 4.921875 0 L 3.796875 0 L 3.421875 -2.125 L 1.703125 -2.125 L 1.296875 0 L 0.203125 0 Z M 3.265625 -2.96875 L 2.5625 -6.75 L 1.859375 -2.96875 Z M 3.265625 -2.96875 "/></g></g></g><g fill="#000000" fill-opacity="1"><g transform="translate(102.203879, 293.8232)"><g><path d="M 0.65625 -8.421875 L 2.484375 -8.421875 C 3.390625 -8.421875 4.03125 -8.210938 4.40625 -7.796875 C 4.789062 -7.378906 4.984375 -6.726562 4.984375 -5.84375 L 4.984375 -2.75 C 4.984375 -1.820312 4.796875 -1.128906 4.421875 -0.671875 C 4.046875 -0.222656 3.429688 0 2.578125 0 L 0.65625 0 Z M 2.5 -0.84375 C 2.90625 -0.84375 3.195312 -0.921875 3.375 -1.078125 C 3.5625 -1.234375 3.675781 -1.445312 3.71875 -1.71875 C 3.769531 -2 3.796875 -2.414062 3.796875 -2.96875 L 3.796875 -5.703125 C 3.796875 -6.179688 3.765625 -6.546875 3.703125 -6.796875 C 3.640625 -7.054688 3.515625 -7.242188 3.328125 -7.359375 C 3.148438 -7.484375 2.863281 -7.546875 2.46875 -7.546875 L 1.828125 -7.546875 L 1.828125 -0.84375 Z M 2.5 -0.84375 "/></g></g></g><g fill="#000000" fill-opacity="1"><g transform="translate(108.336996, 293.8232)"><g><path d="M 0.65625 -8.421875 L 3.921875 -8.421875 L 3.921875 -7.546875 L 1.828125 -7.546875 L 1.828125 -4.765625 L 3.515625 -4.765625 L 3.515625 -3.921875 L 1.828125 -3.921875 L 1.828125 -0.84375 L 3.9375 -0.84375 L 3.9375 0 L 0.65625 0 Z M 0.65625 -8.421875 "/></g></g></g><g fill="#000000" fill-opacity="1"><g transform="translate(113.222776, 293.8232)"><g><path d="M 0.65625 -8.421875 L 2.34375 -8.421875 C 3.195312 -8.421875 3.820312 -8.242188 4.21875 -7.890625 C 4.625 -7.535156 4.828125 -6.96875 4.828125 -6.1875 C 4.828125 -5.101562 4.476562 -4.445312 3.78125 -4.21875 L 4.984375 0 L 3.84375 0 L 2.75 -3.953125 L 1.828125 -3.953125 L 1.828125 0 L 0.65625 0 Z M 2.28125 -4.796875 C 2.78125 -4.796875 3.140625 -4.894531 3.359375 -5.09375 C 3.578125 -5.289062 3.6875 -5.65625 3.6875 -6.1875 C 3.6875 -6.53125 3.644531 -6.800781 3.5625 -7 C 3.488281 -7.195312 3.351562 -7.34375 3.15625 -7.4375 C 2.96875 -7.53125 2.695312 -7.578125 2.34375 -7.578125 L 1.828125 -7.578125 L 1.828125 -4.796875 Z M 2.28125 -4.796875 "/></g></g></g><g fill="#000000" fill-opacity="1"><g transform="translate(119.27274, 293.8232)"><g><path d="M 2.640625 0.09375 C 1.929688 0.09375 1.390625 -0.125 1.015625 -0.5625 C 0.648438 -1 0.445312 -1.597656 0.40625 -2.359375 L 1.4375 -2.640625 C 1.476562 -2.097656 1.585938 -1.660156 1.765625 -1.328125 C 1.941406 -0.992188 2.234375 -0.828125 2.640625 -0.828125 C 2.941406 -0.828125 3.171875 -0.910156 3.328125 -1.078125 C 3.484375 -1.253906 3.5625 -1.5 3.5625 -1.8125 C 3.5625 -2.164062 3.488281 -2.457031 3.34375 -2.6875 C 3.195312 -2.914062 2.96875 -3.164062 2.65625 -3.4375 L 1.234375 -4.6875 C 0.953125 -4.9375 0.742188 -5.203125 0.609375 -5.484375 C 0.484375 -5.773438 0.421875 -6.128906 0.421875 -6.546875 C 0.421875 -7.160156 0.597656 -7.632812 0.953125 -7.96875 C 1.304688 -8.3125 1.789062 -8.484375 2.40625 -8.484375 C 3.0625 -8.484375 3.5625 -8.304688 3.90625 -7.953125 C 4.25 -7.597656 4.453125 -7.050781 4.515625 -6.3125 L 3.515625 -6.046875 C 3.484375 -6.535156 3.390625 -6.910156 3.234375 -7.171875 C 3.078125 -7.441406 2.800781 -7.578125 2.40625 -7.578125 C 2.101562 -7.578125 1.867188 -7.5 1.703125 -7.34375 C 1.546875 -7.195312 1.46875 -6.96875 1.46875 -6.65625 C 1.46875 -6.40625 1.507812 -6.195312 1.59375 -6.03125 C 1.675781 -5.863281 1.820312 -5.691406 2.03125 -5.515625 L 3.453125 -4.265625 C 3.816406 -3.941406 4.109375 -3.585938 4.328125 -3.203125 C 4.546875 -2.828125 4.65625 -2.394531 4.65625 -1.90625 C 4.65625 -1.289062 4.46875 -0.800781 4.09375 -0.4375 C 3.71875 -0.0820312 3.234375 0.09375 2.640625 0.09375 Z M 2.640625 0.09375 "/></g></g></g><g fill="#000000" fill-opacity="1"><g transform="translate(124.844559, 293.8232)"><g><path d="M 0.65625 -8.421875 L 1.828125 -8.421875 L 1.828125 -4.78125 L 3.984375 -4.78125 L 3.984375 -8.421875 L 5.171875 -8.421875 L 5.171875 0 L 3.984375 0 L 3.984375 -3.9375 L 1.828125 -3.9375 L 1.828125 0 L 0.65625 0 Z M 0.65625 -8.421875 "/></g></g></g><g fill="#000000" fill-opacity="1"><g transform="translate(131.331093, 293.8232)"><g><path d="M 0.71875 -8.421875 L 1.875 -8.421875 L 1.875 0 L 0.71875 0 Z M 0.71875 -8.421875 "/></g></g></g><g fill="#000000" fill-opacity="1"><g transform="translate(134.564163, 293.8232)"><g><path d="M 0.65625 -8.421875 L 2.75 -8.421875 C 3.46875 -8.421875 3.992188 -8.222656 4.328125 -7.828125 C 4.660156 -7.429688 4.828125 -6.851562 4.828125 -6.09375 C 4.828125 -5.40625 4.648438 -4.867188 4.296875 -4.484375 C 3.941406 -4.109375 3.425781 -3.921875 2.75 -3.921875 L 1.828125 -3.921875 L 1.828125 0 L 0.65625 0 Z M 2.375 -4.765625 C 2.71875 -4.765625 2.984375 -4.800781 3.171875 -4.875 C 3.359375 -4.945312 3.492188 -5.078125 3.578125 -5.265625 C 3.660156 -5.453125 3.703125 -5.722656 3.703125 -6.078125 C 3.703125 -6.503906 3.671875 -6.816406 3.609375 -7.015625 C 3.546875 -7.222656 3.421875 -7.367188 3.234375 -7.453125 C 3.054688 -7.535156 2.769531 -7.578125 2.375 -7.578125 L 1.828125 -7.578125 L 1.828125 -4.765625 Z M 2.375 -4.765625 "/></g></g></g><g fill="#000000" fill-opacity="1"><g transform="translate(85.696511, 356.87048)"><g><path d="M 2.8125 0.09375 C 1.976562 0.09375 1.382812 -0.140625 1.03125 -0.609375 C 0.675781 -1.078125 0.5 -1.753906 0.5 -2.640625 L 0.5 -5.828125 C 0.5 -6.703125 0.675781 -7.363281 1.03125 -7.8125 C 1.394531 -8.257812 1.988281 -8.484375 2.8125 -8.484375 C 3.625 -8.484375 4.207031 -8.253906 4.5625 -7.796875 C 4.925781 -7.347656 5.109375 -6.691406 5.109375 -5.828125 L 5.109375 -2.625 C 5.109375 -1.75 4.925781 -1.078125 4.5625 -0.609375 C 4.195312 -0.140625 3.613281 0.09375 2.8125 0.09375 Z M 2.8125 -0.828125 C 3.238281 -0.828125 3.53125 -0.953125 3.6875 -1.203125 C 3.84375 -1.460938 3.921875 -1.851562 3.921875 -2.375 L 3.921875 -6.0625 C 3.921875 -6.582031 3.84375 -6.960938 3.6875 -7.203125 C 3.53125 -7.453125 3.238281 -7.578125 2.8125 -7.578125 C 2.363281 -7.578125 2.0625 -7.453125 1.90625 -7.203125 C 1.757812 -6.960938 1.6875 -6.582031 1.6875 -6.0625 L 1.6875 -2.375 C 1.6875 -1.851562 1.757812 -1.460938 1.90625 -1.203125 C 2.0625 -0.953125 2.363281 -0.828125 2.8125 -0.828125 Z M 2.8125 -0.828125 "/></g></g></g><g fill="#000000" fill-opacity="1"><g transform="translate(91.954369, 356.87048)"><g><path d="M 0.65625 -8.421875 L 2.34375 -8.421875 C 3.195312 -8.421875 3.820312 -8.242188 4.21875 -7.890625 C 4.625 -7.535156 4.828125 -6.96875 4.828125 -6.1875 C 4.828125 -5.101562 4.476562 -4.445312 3.78125 -4.21875 L 4.984375 0 L 3.84375 0 L 2.75 -3.953125 L 1.828125 -3.953125 L 1.828125 0 L 0.65625 0 Z M 2.28125 -4.796875 C 2.78125 -4.796875 3.140625 -4.894531 3.359375 -5.09375 C 3.578125 -5.289062 3.6875 -5.65625 3.6875 -6.1875 C 3.6875 -6.53125 3.644531 -6.800781 3.5625 -7 C 3.488281 -7.195312 3.351562 -7.34375 3.15625 -7.4375 C 2.96875 -7.53125 2.695312 -7.578125 2.34375 -7.578125 L 1.828125 -7.578125 L 1.828125 -4.796875 Z M 2.28125 -4.796875 "/></g></g></g><g fill="#000000" fill-opacity="1"><g transform="translate(98.004333, 356.87048)"><g><path d="M 2.65625 0.109375 C 1.894531 0.109375 1.34375 -0.128906 1 -0.609375 C 0.664062 -1.097656 0.5 -1.816406 0.5 -2.765625 L 0.5 -5.578125 C 0.5 -6.234375 0.566406 -6.769531 0.703125 -7.1875 C 0.835938 -7.601562 1.066406 -7.921875 1.390625 -8.140625 C 1.722656 -8.367188 2.175781 -8.484375 2.75 -8.484375 C 3.53125 -8.484375 4.09375 -8.285156 4.4375 -7.890625 C 4.78125 -7.492188 4.953125 -6.875 4.953125 -6.03125 L 4.953125 -5.71875 L 3.84375 -5.71875 L 3.84375 -5.984375 C 3.84375 -6.390625 3.816406 -6.703125 3.765625 -6.921875 C 3.722656 -7.140625 3.625 -7.300781 3.46875 -7.40625 C 3.3125 -7.519531 3.082031 -7.578125 2.78125 -7.578125 C 2.445312 -7.578125 2.203125 -7.5 2.046875 -7.34375 C 1.890625 -7.195312 1.785156 -7 1.734375 -6.75 C 1.691406 -6.5 1.671875 -6.164062 1.671875 -5.75 L 1.671875 -2.640625 C 1.671875 -1.992188 1.75 -1.53125 1.90625 -1.25 C 2.0625 -0.96875 2.363281 -0.828125 2.8125 -0.828125 C 3.238281 -0.828125 3.535156 -0.976562 3.703125 -1.28125 C 3.867188 -1.59375 3.953125 -2.082031 3.953125 -2.75 L 3.953125 -3.328125 L 2.875 -3.328125 L 2.875 -4.171875 L 5.015625 -4.171875 L 5.015625 0 L 4.265625 0 L 4.15625 -0.96875 C 3.894531 -0.25 3.394531 0.109375 2.65625 0.109375 Z M 2.65625 0.109375 "/></g></g></g><g fill="#000000" fill-opacity="1"><g transform="translate(104.220603, 356.87048)"><g><path d="M 1.984375 -8.421875 L 3.109375 -8.421875 L 4.921875 0 L 3.796875 0 L 3.421875 -2.125 L 1.703125 -2.125 L 1.296875 0 L 0.203125 0 Z M 3.265625 -2.96875 L 2.5625 -6.75 L 1.859375 -2.96875 Z M 3.265625 -2.96875 "/></g></g></g><g fill="#000000" fill-opacity="1"><g transform="translate(109.989913, 356.87048)"><g><path d="M 0.65625 -8.421875 L 1.453125 -8.421875 L 3.84375 -2.828125 L 3.84375 -8.421875 L 4.828125 -8.421875 L 4.828125 0 L 4.078125 0 L 1.65625 -5.75 L 1.65625 0 L 0.65625 0 Z M 0.65625 -8.421875 "/></g></g></g><g fill="#000000" fill-opacity="1"><g transform="translate(116.133433, 356.87048)"><g><path d="M 0.71875 -8.421875 L 1.875 -8.421875 L 1.875 0 L 0.71875 0 Z M 0.71875 -8.421875 "/></g></g></g><g fill="#000000" fill-opacity="1"><g transform="translate(119.366503, 356.87048)"><g><path d="M 2.640625 0.09375 C 1.929688 0.09375 1.390625 -0.125 1.015625 -0.5625 C 0.648438 -1 0.445312 -1.597656 0.40625 -2.359375 L 1.4375 -2.640625 C 1.476562 -2.097656 1.585938 -1.660156 1.765625 -1.328125 C 1.941406 -0.992188 2.234375 -0.828125 2.640625 -0.828125 C 2.941406 -0.828125 3.171875 -0.910156 3.328125 -1.078125 C 3.484375 -1.253906 3.5625 -1.5 3.5625 -1.8125 C 3.5625 -2.164062 3.488281 -2.457031 3.34375 -2.6875 C 3.195312 -2.914062 2.96875 -3.164062 2.65625 -3.4375 L 1.234375 -4.6875 C 0.953125 -4.9375 0.742188 -5.203125 0.609375 -5.484375 C 0.484375 -5.773438 0.421875 -6.128906 0.421875 -6.546875 C 0.421875 -7.160156 0.597656 -7.632812 0.953125 -7.96875 C 1.304688 -8.3125 1.789062 -8.484375 2.40625 -8.484375 C 3.0625 -8.484375 3.5625 -8.304688 3.90625 -7.953125 C 4.25 -7.597656 4.453125 -7.050781 4.515625 -6.3125 L 3.515625 -6.046875 C 3.484375 -6.535156 3.390625 -6.910156 3.234375 -7.171875 C 3.078125 -7.441406 2.800781 -7.578125 2.40625 -7.578125 C 2.101562 -7.578125 1.867188 -7.5 1.703125 -7.34375 C 1.546875 -7.195312 1.46875 -6.96875 1.46875 -6.65625 C 1.46875 -6.40625 1.507812 -6.195312 1.59375 -6.03125 C 1.675781 -5.863281 1.820312 -5.691406 2.03125 -5.515625 L 3.453125 -4.265625 C 3.816406 -3.941406 4.109375 -3.585938 4.328125 -3.203125 C 4.546875 -2.828125 4.65625 -2.394531 4.65625 -1.90625 C 4.65625 -1.289062 4.46875 -0.800781 4.09375 -0.4375 C 3.71875 -0.0820312 3.234375 0.09375 2.640625 0.09375 Z M 2.640625 0.09375 "/></g></g></g><g fill="#000000" fill-opacity="1"><g transform="translate(124.938322, 356.87048)"><g><path d="M 1.984375 -8.421875 L 3.109375 -8.421875 L 4.921875 0 L 3.796875 0 L 3.421875 -2.125 L 1.703125 -2.125 L 1.296875 0 L 0.203125 0 Z M 3.265625 -2.96875 L 2.5625 -6.75 L 1.859375 -2.96875 Z M 3.265625 -2.96875 "/></g></g></g><g fill="#000000" fill-opacity="1"><g transform="translate(130.707631, 356.87048)"><g><path d="M 1.578125 -7.546875 L 0.15625 -7.546875 L 0.15625 -8.421875 L 4.140625 -8.421875 L 4.140625 -7.546875 L 2.75 -7.546875 L 2.75 0 L 1.578125 0 Z M 1.578125 -7.546875 "/></g></g></g><g fill="#000000" fill-opacity="1"><g transform="translate(135.655781, 356.87048)"><g><path d="M 0.71875 -8.421875 L 1.875 -8.421875 L 1.875 0 L 0.71875 0 Z M 0.71875 -8.421875 "/></g></g></g><g fill="#000000" fill-opacity="1"><g transform="translate(138.888852, 356.87048)"><g><path d="M 2.8125 0.09375 C 1.976562 0.09375 1.382812 -0.140625 1.03125 -0.609375 C 0.675781 -1.078125 0.5 -1.753906 0.5 -2.640625 L 0.5 -5.828125 C 0.5 -6.703125 0.675781 -7.363281 1.03125 -7.8125 C 1.394531 -8.257812 1.988281 -8.484375 2.8125 -8.484375 C 3.625 -8.484375 4.207031 -8.253906 4.5625 -7.796875 C 4.925781 -7.347656 5.109375 -6.691406 5.109375 -5.828125 L 5.109375 -2.625 C 5.109375 -1.75 4.925781 -1.078125 4.5625 -0.609375 C 4.195312 -0.140625 3.613281 0.09375 2.8125 0.09375 Z M 2.8125 -0.828125 C 3.238281 -0.828125 3.53125 -0.953125 3.6875 -1.203125 C 3.84375 -1.460938 3.921875 -1.851562 3.921875 -2.375 L 3.921875 -6.0625 C 3.921875 -6.582031 3.84375 -6.960938 3.6875 -7.203125 C 3.53125 -7.453125 3.238281 -7.578125 2.8125 -7.578125 C 2.363281 -7.578125 2.0625 -7.453125 1.90625 -7.203125 C 1.757812 -6.960938 1.6875 -6.582031 1.6875 -6.0625 L 1.6875 -2.375 C 1.6875 -1.851562 1.757812 -1.460938 1.90625 -1.203125 C 2.0625 -0.953125 2.363281 -0.828125 2.8125 -0.828125 Z M 2.8125 -0.828125 "/></g></g></g><g fill="#000000" fill-opacity="1"><g transform="translate(145.146709, 356.87048)"><g><path d="M 0.65625 -8.421875 L 1.453125 -8.421875 L 3.84375 -2.828125 L 3.84375 -8.421875 L 4.828125 -8.421875 L 4.828125 0 L 4.078125 0 L 1.65625 -5.75 L 1.65625 0 L 0.65625 0 Z M 0.65625 -8.421875 "/></g></g></g></svg>