<svg xmlns="http://www.w3.org/2000/svg" xmlns:xlink="http://www.w3.org/1999/xlink" width="500" zoomAndPan="magnify" viewBox="0 0 375 374.999991" height="500" preserveAspectRatio="xMidYMid meet" version="1.0"><defs><filter x="0%" y="0%" width="100%" height="100%" id="4d3eba3806"><feColorMatrix values="0 0 0 0 1 0 0 0 0 1 0 0 0 0 1 0 0 0 1 0" color-interpolation-filters="sRGB"/></filter><g/><mask id="fcc5f767af"><g filter="url(#4d3eba3806)"><rect x="-37.5" width="450" fill="#000000" y="-37.499999" height="449.999989" fill-opacity="0.93"/></g></mask><clipPath id="5b2c67b0cc"><path d="M 0.640625 0.417969 L 230.40625 0.417969 L 230.40625 148.582031 L 0.640625 148.582031 Z M 0.640625 0.417969 " clip-rule="nonzero"/></clipPath><clipPath id="2f6f7b698b"><path d="M 7.695312 0.417969 L 223.304688 0.417969 C 227.203125 0.417969 230.359375 3.578125 230.359375 7.472656 L 230.359375 141.527344 C 230.359375 145.421875 227.203125 148.582031 223.304688 148.582031 L 7.695312 148.582031 C 3.796875 148.582031 0.640625 145.421875 0.640625 141.527344 L 0.640625 7.472656 C 0.640625 3.578125 3.796875 0.417969 7.695312 0.417969 Z M 7.695312 0.417969 " clip-rule="nonzero"/></clipPath><clipPath id="d27ce63edb"><path d="M 0.640625 0.417969 L 230.398438 0.417969 L 230.398438 148.582031 L 0.640625 148.582031 Z M 0.640625 0.417969 " clip-rule="nonzero"/></clipPath><clipPath id="579ffcf8ac"><path d="M 7.695312 0.417969 L 223.304688 0.417969 C 227.203125 0.417969 230.359375 3.578125 230.359375 7.472656 L 230.359375 141.527344 C 230.359375 145.421875 227.203125 148.582031 223.304688 148.582031 L 7.695312 148.582031 C 3.796875 148.582031 0.640625 145.421875 0.640625 141.527344 L 0.640625 7.472656 C 0.640625 3.578125 3.796875 0.417969 7.695312 0.417969 Z M 7.695312 0.417969 " clip-rule="nonzero"/></clipPath><clipPath id="b025af49d6"><rect x="0" width="231" y="0" height="149"/></clipPath><clipPath id="552ba003a1"><rect x="0" width="231" y="0" height="149"/></clipPath><clipPath id="486ca7cd23"><path d="M 0.71875 24 L 6 24 L 6 32 L 0.71875 32 Z M 0.71875 24 " clip-rule="nonzero"/></clipPath><clipPath id="1d08d8e8b6"><rect x="0" width="95" y="0" height="36"/></clipPath><clipPath id="e3bd526904"><path d="M 0.71875 11 L 6 11 L 6 18 L 0.71875 18 Z M 0.71875 11 " clip-rule="nonzero"/></clipPath><clipPath id="98ce9cf1e7"><rect x="0" width="138" y="0" height="20"/></clipPath><clipPath id="9c1221a08f"><rect x="0" width="137" y="0" height="20"/></clipPath></defs><g mask="url(#fcc5f767af)"><g transform="matrix(1, 0, 0, 1, 72, 113)"><g clip-path="url(#552ba003a1)"><g clip-path="url(#5b2c67b0cc)"><g clip-path="url(#2f6f7b698b)"><g><g clip-path="url(#b025af49d6)"><g clip-path="url(#d27ce63edb)"><g clip-path="url(#579ffcf8ac)"><path fill="#232612" d="M 0.640625 0.417969 L 230.40625 0.417969 L 230.40625 148.582031 L 0.640625 148.582031 Z M 0.640625 0.417969 " fill-opacity="1" fill-rule="nonzero"/></g></g></g></g></g></g></g></g></g><g transform="matrix(1, 0, 0, 1, 102, 142)"><g clip-path="url(#1d08d8e8b6)"><g fill="#ffffff" fill-opacity="1"><g transform="translate(0.736448, 15.515132)"><g><path d="M 0.671875 -7.25 L 2.015625 -7.25 L 2.015625 -6.671875 C 2.410156 -7.128906 2.875 -7.359375 3.40625 -7.359375 C 4.0625 -7.359375 4.5 -7.070312 4.71875 -6.5 C 4.945312 -5.9375 5.0625 -5.3125 5.0625 -4.625 L 5.0625 -2.875 C 5.0625 -1.988281 4.921875 -1.269531 4.640625 -0.71875 C 4.367188 -0.175781 3.90625 0.09375 3.25 0.09375 C 2.820312 0.09375 2.410156 -0.117188 2.015625 -0.546875 L 2.015625 2.390625 L 0.671875 2.390625 Z M 2.984375 -0.953125 C 3.296875 -0.953125 3.492188 -1.109375 3.578125 -1.421875 C 3.671875 -1.734375 3.71875 -2.21875 3.71875 -2.875 L 3.71875 -4.625 C 3.71875 -5.164062 3.664062 -5.578125 3.5625 -5.859375 C 3.457031 -6.148438 3.25 -6.296875 2.9375 -6.296875 C 2.625 -6.296875 2.316406 -6.171875 2.015625 -5.921875 L 2.015625 -1.28125 C 2.304688 -1.0625 2.628906 -0.953125 2.984375 -0.953125 Z M 2.984375 -0.953125 "/></g></g></g><g fill="#ffffff" fill-opacity="1"><g transform="translate(8.20287, 15.515132)"><g><path d="M 0.71875 -7.25 L 2.0625 -7.25 L 2.0625 -6.21875 C 2.3125 -6.632812 2.566406 -6.925781 2.828125 -7.09375 C 3.085938 -7.257812 3.363281 -7.34375 3.65625 -7.34375 C 3.738281 -7.34375 3.8125 -7.335938 3.875 -7.328125 L 3.875 -5.84375 C 3.601562 -5.945312 3.359375 -6 3.140625 -6 C 2.921875 -6 2.722656 -5.945312 2.546875 -5.84375 C 2.378906 -5.738281 2.21875 -5.554688 2.0625 -5.296875 L 2.0625 0 L 0.71875 0 Z M 0.71875 -7.25 "/></g></g></g><g fill="#ffffff" fill-opacity="1"><g transform="translate(14.100927, 15.515132)"><g><path d="M 2.671875 0.09375 C 1.898438 0.09375 1.351562 -0.128906 1.03125 -0.578125 C 0.707031 -1.035156 0.546875 -1.703125 0.546875 -2.578125 L 0.546875 -4.6875 C 0.546875 -5.550781 0.707031 -6.210938 1.03125 -6.671875 C 1.351562 -7.128906 1.898438 -7.359375 2.671875 -7.359375 C 3.429688 -7.359375 3.972656 -7.128906 4.296875 -6.671875 C 4.617188 -6.210938 4.78125 -5.550781 4.78125 -4.6875 L 4.78125 -2.578125 C 4.78125 -1.703125 4.617188 -1.035156 4.296875 -0.578125 C 3.972656 -0.128906 3.429688 0.09375 2.671875 0.09375 Z M 2.671875 -0.890625 C 2.910156 -0.890625 3.082031 -0.957031 3.1875 -1.09375 C 3.300781 -1.238281 3.367188 -1.414062 3.390625 -1.625 C 3.421875 -1.832031 3.4375 -2.117188 3.4375 -2.484375 L 3.4375 -4.75 C 3.4375 -5.113281 3.421875 -5.398438 3.390625 -5.609375 C 3.367188 -5.828125 3.300781 -6.003906 3.1875 -6.140625 C 3.082031 -6.285156 2.910156 -6.359375 2.671875 -6.359375 C 2.429688 -6.359375 2.253906 -6.285156 2.140625 -6.140625 C 2.023438 -6.003906 1.953125 -5.828125 1.921875 -5.609375 C 1.898438 -5.398438 1.890625 -5.113281 1.890625 -4.75 L 1.890625 -2.484375 C 1.890625 -2.117188 1.898438 -1.832031 1.921875 -1.625 C 1.953125 -1.414062 2.023438 -1.238281 2.140625 -1.09375 C 2.253906 -0.957031 2.429688 -0.890625 2.671875 -0.890625 Z M 2.671875 -0.890625 "/></g></g></g><g fill="#ffffff" fill-opacity="1"><g transform="translate(21.303865, 15.515132)"><g><path d="M 2.359375 0.09375 C 1.734375 0.09375 1.273438 -0.128906 0.984375 -0.578125 C 0.691406 -1.035156 0.546875 -1.789062 0.546875 -2.84375 L 0.546875 -4.25 C 0.546875 -5.21875 0.671875 -5.976562 0.921875 -6.53125 C 1.179688 -7.082031 1.648438 -7.359375 2.328125 -7.359375 C 2.753906 -7.359375 3.15625 -7.164062 3.53125 -6.78125 L 3.53125 -10.15625 L 4.875 -10.15625 L 4.875 0 L 3.53125 0 L 3.53125 -0.46875 C 3.175781 -0.09375 2.785156 0.09375 2.359375 0.09375 Z M 2.703125 -0.953125 C 2.960938 -0.953125 3.238281 -1.046875 3.53125 -1.234375 L 3.53125 -5.984375 C 3.21875 -6.191406 2.929688 -6.296875 2.671875 -6.296875 C 2.140625 -6.296875 1.875 -5.789062 1.875 -4.78125 L 1.875 -2.734375 C 1.875 -2.148438 1.925781 -1.707031 2.03125 -1.40625 C 2.144531 -1.101562 2.367188 -0.953125 2.703125 -0.953125 Z M 2.703125 -0.953125 "/></g></g></g><g fill="#ffffff" fill-opacity="1"><g transform="translate(28.720096, 15.515132)"><g><path d="M 1.71875 0.09375 C 1.320312 0.09375 1.039062 -0.046875 0.875 -0.328125 C 0.707031 -0.609375 0.625 -0.957031 0.625 -1.375 L 0.625 -7.25 L 1.96875 -7.25 L 1.96875 -1.78125 C 1.96875 -1.507812 2.007812 -1.300781 2.09375 -1.15625 C 2.175781 -1.019531 2.328125 -0.953125 2.546875 -0.953125 C 2.816406 -0.953125 3.128906 -1.101562 3.484375 -1.40625 L 3.484375 -7.25 L 4.828125 -7.25 L 4.828125 0 L 3.484375 0 L 3.484375 -0.71875 C 2.910156 -0.175781 2.320312 0.09375 1.71875 0.09375 Z M 1.71875 0.09375 "/></g></g></g><g fill="#ffffff" fill-opacity="1"><g transform="translate(36.111234, 15.515132)"><g><path d="M 2.65625 0.09375 C 2.09375 0.09375 1.65625 -0.0195312 1.34375 -0.25 C 1.03125 -0.476562 0.816406 -0.796875 0.703125 -1.203125 C 0.597656 -1.617188 0.546875 -2.144531 0.546875 -2.78125 L 0.546875 -4.453125 C 0.546875 -5.109375 0.597656 -5.644531 0.703125 -6.0625 C 0.816406 -6.476562 1.03125 -6.796875 1.34375 -7.015625 C 1.65625 -7.242188 2.09375 -7.359375 2.65625 -7.359375 C 3.175781 -7.359375 3.578125 -7.269531 3.859375 -7.09375 C 4.148438 -6.925781 4.351562 -6.675781 4.46875 -6.34375 C 4.582031 -6.019531 4.640625 -5.59375 4.640625 -5.0625 L 4.640625 -4.640625 L 3.421875 -4.640625 L 3.421875 -5.078125 C 3.421875 -5.554688 3.367188 -5.890625 3.265625 -6.078125 C 3.160156 -6.265625 2.960938 -6.359375 2.671875 -6.359375 C 2.441406 -6.359375 2.269531 -6.304688 2.15625 -6.203125 C 2.050781 -6.109375 1.976562 -5.945312 1.9375 -5.71875 C 1.894531 -5.488281 1.875 -5.160156 1.875 -4.734375 L 1.875 -2.453125 C 1.875 -2.023438 1.898438 -1.703125 1.953125 -1.484375 C 2.003906 -1.265625 2.085938 -1.109375 2.203125 -1.015625 C 2.316406 -0.929688 2.476562 -0.890625 2.6875 -0.890625 C 3 -0.890625 3.195312 -0.988281 3.28125 -1.1875 C 3.375 -1.394531 3.421875 -1.710938 3.421875 -2.140625 L 3.421875 -2.734375 L 4.640625 -2.734375 L 4.640625 -2.234375 C 4.640625 -1.441406 4.492188 -0.851562 4.203125 -0.46875 C 3.921875 -0.09375 3.40625 0.09375 2.65625 0.09375 Z M 2.65625 0.09375 "/></g></g></g><g fill="#ffffff" fill-opacity="1"><g transform="translate(43.138513, 15.515132)"><g><path d="M 2.609375 0.09375 C 1.566406 0.09375 1.046875 -0.476562 1.046875 -1.625 L 1.046875 -6.359375 L 0.28125 -6.359375 L 0.28125 -7.25 L 1.046875 -7.25 L 1.046875 -9.375 L 2.390625 -9.375 L 2.390625 -7.25 L 3.546875 -7.25 L 3.546875 -6.359375 L 2.390625 -6.359375 L 2.390625 -1.71875 C 2.390625 -1.425781 2.429688 -1.21875 2.515625 -1.09375 C 2.609375 -0.976562 2.785156 -0.921875 3.046875 -0.921875 C 3.210938 -0.921875 3.375 -0.9375 3.53125 -0.96875 L 3.53125 0.03125 C 3.195312 0.0703125 2.890625 0.09375 2.609375 0.09375 Z M 2.609375 0.09375 "/></g></g></g><g fill="#ffffff" fill-opacity="1"><g transform="translate(48.873461, 15.515132)"><g/></g></g><g fill="#ffffff" fill-opacity="1"><g transform="translate(53.617195, 15.515132)"><g><path d="M 2.359375 0.09375 C 1.734375 0.09375 1.273438 -0.128906 0.984375 -0.578125 C 0.691406 -1.035156 0.546875 -1.789062 0.546875 -2.84375 L 0.546875 -4.25 C 0.546875 -5.21875 0.671875 -5.976562 0.921875 -6.53125 C 1.179688 -7.082031 1.648438 -7.359375 2.328125 -7.359375 C 2.753906 -7.359375 3.15625 -7.164062 3.53125 -6.78125 L 3.53125 -10.15625 L 4.875 -10.15625 L 4.875 0 L 3.53125 0 L 3.53125 -0.46875 C 3.175781 -0.09375 2.785156 0.09375 2.359375 0.09375 Z M 2.703125 -0.953125 C 2.960938 -0.953125 3.238281 -1.046875 3.53125 -1.234375 L 3.53125 -5.984375 C 3.21875 -6.191406 2.929688 -6.296875 2.671875 -6.296875 C 2.140625 -6.296875 1.875 -5.789062 1.875 -4.78125 L 1.875 -2.734375 C 1.875 -2.148438 1.925781 -1.707031 2.03125 -1.40625 C 2.144531 -1.101562 2.367188 -0.953125 2.703125 -0.953125 Z M 2.703125 -0.953125 "/></g></g></g><g fill="#ffffff" fill-opacity="1"><g transform="translate(61.033426, 15.515132)"><g><path d="M 2.6875 0.09375 C 2.125 0.09375 1.6875 -0.0078125 1.375 -0.21875 C 1.070312 -0.4375 0.859375 -0.753906 0.734375 -1.171875 C 0.609375 -1.585938 0.546875 -2.128906 0.546875 -2.796875 L 0.546875 -4.453125 C 0.546875 -5.453125 0.703125 -6.1875 1.015625 -6.65625 C 1.328125 -7.125 1.882812 -7.359375 2.6875 -7.359375 C 3.269531 -7.359375 3.707031 -7.234375 4 -6.984375 C 4.300781 -6.742188 4.5 -6.40625 4.59375 -5.96875 C 4.695312 -5.53125 4.75 -4.9375 4.75 -4.1875 L 4.75 -3.59375 L 1.875 -3.59375 L 1.875 -2.140625 C 1.875 -1.703125 1.9375 -1.382812 2.0625 -1.1875 C 2.195312 -0.988281 2.410156 -0.890625 2.703125 -0.890625 C 2.984375 -0.890625 3.171875 -0.988281 3.265625 -1.1875 C 3.367188 -1.382812 3.421875 -1.679688 3.421875 -2.078125 L 3.421875 -2.515625 L 4.734375 -2.515625 L 4.734375 -2.25 C 4.734375 -1.488281 4.566406 -0.90625 4.234375 -0.5 C 3.910156 -0.101562 3.394531 0.09375 2.6875 0.09375 Z M 3.421875 -4.328125 L 3.421875 -4.984375 C 3.421875 -5.472656 3.375 -5.820312 3.28125 -6.03125 C 3.1875 -6.25 2.984375 -6.359375 2.671875 -6.359375 C 2.453125 -6.359375 2.285156 -6.304688 2.171875 -6.203125 C 2.054688 -6.109375 1.976562 -5.945312 1.9375 -5.71875 C 1.894531 -5.488281 1.875 -5.15625 1.875 -4.71875 L 1.875 -4.328125 Z M 3.421875 -4.328125 "/></g></g></g><g fill="#ffffff" fill-opacity="1"><g transform="translate(68.186172, 15.515132)"><g><path d="M 2.359375 0.09375 C 1.773438 0.09375 1.300781 -0.0859375 0.9375 -0.453125 C 0.570312 -0.816406 0.363281 -1.3125 0.3125 -1.9375 L 1.4375 -2.265625 C 1.5 -1.796875 1.609375 -1.445312 1.765625 -1.21875 C 1.929688 -1 2.164062 -0.890625 2.46875 -0.890625 C 2.707031 -0.890625 2.890625 -0.957031 3.015625 -1.09375 C 3.148438 -1.238281 3.21875 -1.425781 3.21875 -1.65625 C 3.21875 -1.863281 3.171875 -2.050781 3.078125 -2.21875 C 2.984375 -2.382812 2.832031 -2.554688 2.625 -2.734375 L 1.375 -3.796875 C 1.09375 -4.046875 0.875 -4.304688 0.71875 -4.578125 C 0.5625 -4.847656 0.484375 -5.179688 0.484375 -5.578125 C 0.484375 -6.128906 0.648438 -6.5625 0.984375 -6.875 C 1.328125 -7.195312 1.785156 -7.359375 2.359375 -7.359375 C 2.910156 -7.359375 3.34375 -7.175781 3.65625 -6.8125 C 3.96875 -6.457031 4.148438 -6 4.203125 -5.4375 L 3.296875 -5.109375 C 3.242188 -5.515625 3.148438 -5.820312 3.015625 -6.03125 C 2.878906 -6.25 2.675781 -6.359375 2.40625 -6.359375 C 2.1875 -6.359375 2.007812 -6.285156 1.875 -6.140625 C 1.75 -6.003906 1.6875 -5.832031 1.6875 -5.625 C 1.6875 -5.351562 1.8125 -5.109375 2.0625 -4.890625 L 3.34375 -3.71875 C 3.664062 -3.414062 3.914062 -3.117188 4.09375 -2.828125 C 4.269531 -2.535156 4.359375 -2.175781 4.359375 -1.75 C 4.359375 -1.15625 4.175781 -0.695312 3.8125 -0.375 C 3.457031 -0.0625 2.972656 0.09375 2.359375 0.09375 Z M 2.359375 0.09375 "/></g></g></g><g fill="#ffffff" fill-opacity="1"><g transform="translate(74.749215, 15.515132)"><g><path d="M 0.765625 -9.734375 L 2.109375 -9.734375 L 2.109375 -8.328125 L 0.765625 -8.328125 Z M 0.765625 -7.25 L 2.109375 -7.25 L 2.109375 0 L 0.765625 0 Z M 0.765625 -7.25 "/></g></g></g><g fill="#ffffff" fill-opacity="1"><g transform="translate(79.49295, 15.515132)"><g><path d="M 2.5625 2.25 C 1.851562 2.25 1.289062 2.132812 0.875 1.90625 C 0.457031 1.6875 0.25 1.34375 0.25 0.875 C 0.25 0.5625 0.347656 0.285156 0.546875 0.046875 C 0.742188 -0.179688 0.992188 -0.367188 1.296875 -0.515625 C 1.066406 -0.578125 0.890625 -0.679688 0.765625 -0.828125 C 0.648438 -0.972656 0.59375 -1.128906 0.59375 -1.296875 C 0.59375 -1.546875 0.65625 -1.757812 0.78125 -1.9375 C 0.90625 -2.125 1.109375 -2.347656 1.390625 -2.609375 C 1.109375 -2.828125 0.894531 -3.097656 0.75 -3.421875 C 0.613281 -3.753906 0.546875 -4.203125 0.546875 -4.765625 C 0.546875 -5.609375 0.71875 -6.25 1.0625 -6.6875 C 1.414062 -7.132812 1.925781 -7.359375 2.59375 -7.359375 C 2.976562 -7.359375 3.289062 -7.289062 3.53125 -7.15625 C 3.78125 -7.019531 3.96875 -6.816406 4.09375 -6.546875 C 4.144531 -6.640625 4.265625 -6.765625 4.453125 -6.921875 C 4.648438 -7.078125 4.851562 -7.203125 5.0625 -7.296875 L 5.265625 -7.390625 L 5.609375 -6.53125 C 5.441406 -6.488281 5.207031 -6.410156 4.90625 -6.296875 C 4.613281 -6.191406 4.4375 -6.113281 4.375 -6.0625 C 4.4375 -5.90625 4.488281 -5.691406 4.53125 -5.421875 C 4.582031 -5.160156 4.609375 -4.929688 4.609375 -4.734375 C 4.609375 -3.929688 4.453125 -3.3125 4.140625 -2.875 C 3.828125 -2.4375 3.3125 -2.21875 2.59375 -2.21875 C 2.375 -2.21875 2.144531 -2.25 1.90625 -2.3125 C 1.75 -2.070312 1.671875 -1.882812 1.671875 -1.75 C 1.671875 -1.664062 1.71875 -1.59375 1.8125 -1.53125 C 1.90625 -1.476562 2.054688 -1.445312 2.265625 -1.4375 L 3.40625 -1.328125 C 3.96875 -1.273438 4.382812 -1.101562 4.65625 -0.8125 C 4.9375 -0.519531 5.078125 -0.101562 5.078125 0.4375 C 5.078125 1.644531 4.238281 2.25 2.5625 2.25 Z M 2.59375 -3.15625 C 2.957031 -3.15625 3.191406 -3.28125 3.296875 -3.53125 C 3.410156 -3.789062 3.46875 -4.203125 3.46875 -4.765625 C 3.46875 -5.347656 3.410156 -5.769531 3.296875 -6.03125 C 3.191406 -6.289062 2.960938 -6.421875 2.609375 -6.421875 C 2.253906 -6.421875 2.015625 -6.289062 1.890625 -6.03125 C 1.773438 -5.769531 1.71875 -5.347656 1.71875 -4.765625 C 1.71875 -4.242188 1.773438 -3.84375 1.890625 -3.5625 C 2.015625 -3.289062 2.25 -3.15625 2.59375 -3.15625 Z M 2.65625 1.1875 C 3.132812 1.1875 3.484375 1.128906 3.703125 1.015625 C 3.929688 0.910156 4.046875 0.734375 4.046875 0.484375 C 4.046875 0.242188 3.972656 0.0664062 3.828125 -0.046875 C 3.691406 -0.160156 3.4375 -0.234375 3.0625 -0.265625 L 1.921875 -0.359375 C 1.742188 -0.179688 1.609375 -0.03125 1.515625 0.09375 C 1.421875 0.226562 1.375 0.378906 1.375 0.546875 C 1.375 0.765625 1.46875 0.925781 1.65625 1.03125 C 1.84375 1.132812 2.175781 1.1875 2.65625 1.1875 Z M 2.65625 1.1875 "/></g></g></g><g fill="#ffffff" fill-opacity="1"><g transform="translate(86.821355, 15.515132)"><g><path d="M 0.671875 -7.25 L 2.015625 -7.25 L 2.015625 -6.53125 C 2.597656 -7.082031 3.191406 -7.359375 3.796875 -7.359375 C 4.179688 -7.359375 4.457031 -7.210938 4.625 -6.921875 C 4.789062 -6.640625 4.875 -6.289062 4.875 -5.875 L 4.875 0 L 3.53125 0 L 3.53125 -5.484375 C 3.53125 -5.753906 3.488281 -5.957031 3.40625 -6.09375 C 3.320312 -6.226562 3.175781 -6.296875 2.96875 -6.296875 C 2.695312 -6.296875 2.378906 -6.144531 2.015625 -5.84375 L 2.015625 0 L 0.671875 0 Z M 0.671875 -7.25 "/></g></g></g><g clip-path="url(#486ca7cd23)"><g fill="#ffffff" fill-opacity="1"><g transform="translate(0.736448, 31.301566)"><g><path d="M 0.1875 -7.25 L 1.546875 -7.25 L 2.4375 -1.421875 L 3.34375 -7.25 L 4.640625 -7.25 L 3.265625 0 L 1.625 0 Z M 0.1875 -7.25 "/></g></g></g></g><g fill="#ffffff" fill-opacity="1"><g transform="translate(7.437508, 31.301566)"><g><path d="M 0.765625 -9.734375 L 2.109375 -9.734375 L 2.109375 -8.328125 L 0.765625 -8.328125 Z M 0.765625 -7.25 L 2.109375 -7.25 L 2.109375 0 L 0.765625 0 Z M 0.765625 -7.25 "/></g></g></g><g fill="#ffffff" fill-opacity="1"><g transform="translate(12.181243, 31.301566)"><g><path d="M 2.359375 0.09375 C 1.773438 0.09375 1.300781 -0.0859375 0.9375 -0.453125 C 0.570312 -0.816406 0.363281 -1.3125 0.3125 -1.9375 L 1.4375 -2.265625 C 1.5 -1.796875 1.609375 -1.445312 1.765625 -1.21875 C 1.929688 -1 2.164062 -0.890625 2.46875 -0.890625 C 2.707031 -0.890625 2.890625 -0.957031 3.015625 -1.09375 C 3.148438 -1.238281 3.21875 -1.425781 3.21875 -1.65625 C 3.21875 -1.863281 3.171875 -2.050781 3.078125 -2.21875 C 2.984375 -2.382812 2.832031 -2.554688 2.625 -2.734375 L 1.375 -3.796875 C 1.09375 -4.046875 0.875 -4.304688 0.71875 -4.578125 C 0.5625 -4.847656 0.484375 -5.179688 0.484375 -5.578125 C 0.484375 -6.128906 0.648438 -6.5625 0.984375 -6.875 C 1.328125 -7.195312 1.785156 -7.359375 2.359375 -7.359375 C 2.910156 -7.359375 3.34375 -7.175781 3.65625 -6.8125 C 3.96875 -6.457031 4.148438 -6 4.203125 -5.4375 L 3.296875 -5.109375 C 3.242188 -5.515625 3.148438 -5.820312 3.015625 -6.03125 C 2.878906 -6.25 2.675781 -6.359375 2.40625 -6.359375 C 2.1875 -6.359375 2.007812 -6.285156 1.875 -6.140625 C 1.75 -6.003906 1.6875 -5.832031 1.6875 -5.625 C 1.6875 -5.351562 1.8125 -5.109375 2.0625 -4.890625 L 3.34375 -3.71875 C 3.664062 -3.414062 3.914062 -3.117188 4.09375 -2.828125 C 4.269531 -2.535156 4.359375 -2.175781 4.359375 -1.75 C 4.359375 -1.15625 4.175781 -0.695312 3.8125 -0.375 C 3.457031 -0.0625 2.972656 0.09375 2.359375 0.09375 Z M 2.359375 0.09375 "/></g></g></g><g fill="#ffffff" fill-opacity="1"><g transform="translate(18.744286, 31.301566)"><g><path d="M 1.71875 0.09375 C 1.320312 0.09375 1.039062 -0.046875 0.875 -0.328125 C 0.707031 -0.609375 0.625 -0.957031 0.625 -1.375 L 0.625 -7.25 L 1.96875 -7.25 L 1.96875 -1.78125 C 1.96875 -1.507812 2.007812 -1.300781 2.09375 -1.15625 C 2.175781 -1.019531 2.328125 -0.953125 2.546875 -0.953125 C 2.816406 -0.953125 3.128906 -1.101562 3.484375 -1.40625 L 3.484375 -7.25 L 4.828125 -7.25 L 4.828125 0 L 3.484375 0 L 3.484375 -0.71875 C 2.910156 -0.175781 2.320312 0.09375 1.71875 0.09375 Z M 1.71875 0.09375 "/></g></g></g><g fill="#ffffff" fill-opacity="1"><g transform="translate(26.135425, 31.301566)"><g><path d="M 1.984375 0.09375 C 1.703125 0.09375 1.453125 0.015625 1.234375 -0.140625 C 1.015625 -0.296875 0.84375 -0.503906 0.71875 -0.765625 C 0.59375 -1.023438 0.53125 -1.296875 0.53125 -1.578125 C 0.53125 -2.148438 0.648438 -2.613281 0.890625 -2.96875 C 1.128906 -3.320312 1.4375 -3.601562 1.8125 -3.8125 C 2.195312 -4.019531 2.722656 -4.257812 3.390625 -4.53125 L 3.390625 -5.046875 C 3.390625 -5.523438 3.335938 -5.859375 3.234375 -6.046875 C 3.140625 -6.242188 2.945312 -6.34375 2.65625 -6.34375 C 2.144531 -6.34375 1.890625 -6 1.890625 -5.3125 L 1.890625 -4.953125 L 0.5625 -5 C 0.582031 -5.800781 0.765625 -6.394531 1.109375 -6.78125 C 1.460938 -7.164062 2.007812 -7.359375 2.75 -7.359375 C 3.445312 -7.359375 3.953125 -7.164062 4.265625 -6.78125 C 4.578125 -6.394531 4.734375 -5.820312 4.734375 -5.0625 L 4.734375 -1.75 C 4.734375 -1.195312 4.773438 -0.613281 4.859375 0 L 3.625 0 C 3.53125 -0.476562 3.472656 -0.832031 3.453125 -1.0625 C 3.347656 -0.738281 3.171875 -0.460938 2.921875 -0.234375 C 2.679688 -0.015625 2.367188 0.09375 1.984375 0.09375 Z M 2.515625 -1.046875 C 2.679688 -1.046875 2.847656 -1.113281 3.015625 -1.25 C 3.191406 -1.394531 3.316406 -1.53125 3.390625 -1.65625 L 3.390625 -3.71875 C 3.023438 -3.507812 2.742188 -3.332031 2.546875 -3.1875 C 2.359375 -3.039062 2.195312 -2.867188 2.0625 -2.671875 C 1.9375 -2.484375 1.875 -2.257812 1.875 -2 C 1.875 -1.695312 1.925781 -1.460938 2.03125 -1.296875 C 2.144531 -1.128906 2.304688 -1.046875 2.515625 -1.046875 Z M 2.515625 -1.046875 "/></g></g></g><g fill="#ffffff" fill-opacity="1"><g transform="translate(33.350905, 31.301566)"><g><path d="M 0.796875 -10.15625 L 2.140625 -10.15625 L 2.140625 0 L 0.796875 0 Z M 0.796875 -10.15625 "/></g></g></g><g fill="#ffffff" fill-opacity="1"><g transform="translate(38.09464, 31.301566)"><g><path d="M 0.765625 -9.734375 L 2.109375 -9.734375 L 2.109375 -8.328125 L 0.765625 -8.328125 Z M 0.765625 -7.25 L 2.109375 -7.25 L 2.109375 0 L 0.765625 0 Z M 0.765625 -7.25 "/></g></g></g><g fill="#ffffff" fill-opacity="1"><g transform="translate(42.838374, 31.301566)"><g><path d="M 2.359375 0.09375 C 1.773438 0.09375 1.300781 -0.0859375 0.9375 -0.453125 C 0.570312 -0.816406 0.363281 -1.3125 0.3125 -1.9375 L 1.4375 -2.265625 C 1.5 -1.796875 1.609375 -1.445312 1.765625 -1.21875 C 1.929688 -1 2.164062 -0.890625 2.46875 -0.890625 C 2.707031 -0.890625 2.890625 -0.957031 3.015625 -1.09375 C 3.148438 -1.238281 3.21875 -1.425781 3.21875 -1.65625 C 3.21875 -1.863281 3.171875 -2.050781 3.078125 -2.21875 C 2.984375 -2.382812 2.832031 -2.554688 2.625 -2.734375 L 1.375 -3.796875 C 1.09375 -4.046875 0.875 -4.304688 0.71875 -4.578125 C 0.5625 -4.847656 0.484375 -5.179688 0.484375 -5.578125 C 0.484375 -6.128906 0.648438 -6.5625 0.984375 -6.875 C 1.328125 -7.195312 1.785156 -7.359375 2.359375 -7.359375 C 2.910156 -7.359375 3.34375 -7.175781 3.65625 -6.8125 C 3.96875 -6.457031 4.148438 -6 4.203125 -5.4375 L 3.296875 -5.109375 C 3.242188 -5.515625 3.148438 -5.820312 3.015625 -6.03125 C 2.878906 -6.25 2.675781 -6.359375 2.40625 -6.359375 C 2.1875 -6.359375 2.007812 -6.285156 1.875 -6.140625 C 1.75 -6.003906 1.6875 -5.832031 1.6875 -5.625 C 1.6875 -5.351562 1.8125 -5.109375 2.0625 -4.890625 L 3.34375 -3.71875 C 3.664062 -3.414062 3.914062 -3.117188 4.09375 -2.828125 C 4.269531 -2.535156 4.359375 -2.175781 4.359375 -1.75 C 4.359375 -1.15625 4.175781 -0.695312 3.8125 -0.375 C 3.457031 -0.0625 2.972656 0.09375 2.359375 0.09375 Z M 2.359375 0.09375 "/></g></g></g><g fill="#ffffff" fill-opacity="1"><g transform="translate(49.401417, 31.301566)"><g><path d="M 1.984375 0.09375 C 1.703125 0.09375 1.453125 0.015625 1.234375 -0.140625 C 1.015625 -0.296875 0.84375 -0.503906 0.71875 -0.765625 C 0.59375 -1.023438 0.53125 -1.296875 0.53125 -1.578125 C 0.53125 -2.148438 0.648438 -2.613281 0.890625 -2.96875 C 1.128906 -3.320312 1.4375 -3.601562 1.8125 -3.8125 C 2.195312 -4.019531 2.722656 -4.257812 3.390625 -4.53125 L 3.390625 -5.046875 C 3.390625 -5.523438 3.335938 -5.859375 3.234375 -6.046875 C 3.140625 -6.242188 2.945312 -6.34375 2.65625 -6.34375 C 2.144531 -6.34375 1.890625 -6 1.890625 -5.3125 L 1.890625 -4.953125 L 0.5625 -5 C 0.582031 -5.800781 0.765625 -6.394531 1.109375 -6.78125 C 1.460938 -7.164062 2.007812 -7.359375 2.75 -7.359375 C 3.445312 -7.359375 3.953125 -7.164062 4.265625 -6.78125 C 4.578125 -6.394531 4.734375 -5.820312 4.734375 -5.0625 L 4.734375 -1.75 C 4.734375 -1.195312 4.773438 -0.613281 4.859375 0 L 3.625 0 C 3.53125 -0.476562 3.472656 -0.832031 3.453125 -1.0625 C 3.347656 -0.738281 3.171875 -0.460938 2.921875 -0.234375 C 2.679688 -0.015625 2.367188 0.09375 1.984375 0.09375 Z M 2.515625 -1.046875 C 2.679688 -1.046875 2.847656 -1.113281 3.015625 -1.25 C 3.191406 -1.394531 3.316406 -1.53125 3.390625 -1.65625 L 3.390625 -3.71875 C 3.023438 -3.507812 2.742188 -3.332031 2.546875 -3.1875 C 2.359375 -3.039062 2.195312 -2.867188 2.0625 -2.671875 C 1.9375 -2.484375 1.875 -2.257812 1.875 -2 C 1.875 -1.695312 1.925781 -1.460938 2.03125 -1.296875 C 2.144531 -1.128906 2.304688 -1.046875 2.515625 -1.046875 Z M 2.515625 -1.046875 "/></g></g></g><g fill="#ffffff" fill-opacity="1"><g transform="translate(56.616897, 31.301566)"><g><path d="M 2.609375 0.09375 C 1.566406 0.09375 1.046875 -0.476562 1.046875 -1.625 L 1.046875 -6.359375 L 0.28125 -6.359375 L 0.28125 -7.25 L 1.046875 -7.25 L 1.046875 -9.375 L 2.390625 -9.375 L 2.390625 -7.25 L 3.546875 -7.25 L 3.546875 -6.359375 L 2.390625 -6.359375 L 2.390625 -1.71875 C 2.390625 -1.425781 2.429688 -1.21875 2.515625 -1.09375 C 2.609375 -0.976562 2.785156 -0.921875 3.046875 -0.921875 C 3.210938 -0.921875 3.375 -0.9375 3.53125 -0.96875 L 3.53125 0.03125 C 3.195312 0.0703125 2.890625 0.09375 2.609375 0.09375 Z M 2.609375 0.09375 "/></g></g></g><g fill="#ffffff" fill-opacity="1"><g transform="translate(62.351845, 31.301566)"><g><path d="M 0.765625 -9.734375 L 2.109375 -9.734375 L 2.109375 -8.328125 L 0.765625 -8.328125 Z M 0.765625 -7.25 L 2.109375 -7.25 L 2.109375 0 L 0.765625 0 Z M 0.765625 -7.25 "/></g></g></g><g fill="#ffffff" fill-opacity="1"><g transform="translate(67.095579, 31.301566)"><g><path d="M 2.671875 0.09375 C 1.898438 0.09375 1.351562 -0.128906 1.03125 -0.578125 C 0.707031 -1.035156 0.546875 -1.703125 0.546875 -2.578125 L 0.546875 -4.6875 C 0.546875 -5.550781 0.707031 -6.210938 1.03125 -6.671875 C 1.351562 -7.128906 1.898438 -7.359375 2.671875 -7.359375 C 3.429688 -7.359375 3.972656 -7.128906 4.296875 -6.671875 C 4.617188 -6.210938 4.78125 -5.550781 4.78125 -4.6875 L 4.78125 -2.578125 C 4.78125 -1.703125 4.617188 -1.035156 4.296875 -0.578125 C 3.972656 -0.128906 3.429688 0.09375 2.671875 0.09375 Z M 2.671875 -0.890625 C 2.910156 -0.890625 3.082031 -0.957031 3.1875 -1.09375 C 3.300781 -1.238281 3.367188 -1.414062 3.390625 -1.625 C 3.421875 -1.832031 3.4375 -2.117188 3.4375 -2.484375 L 3.4375 -4.75 C 3.4375 -5.113281 3.421875 -5.398438 3.390625 -5.609375 C 3.367188 -5.828125 3.300781 -6.003906 3.1875 -6.140625 C 3.082031 -6.285156 2.910156 -6.359375 2.671875 -6.359375 C 2.429688 -6.359375 2.253906 -6.285156 2.140625 -6.140625 C 2.023438 -6.003906 1.953125 -5.828125 1.921875 -5.609375 C 1.898438 -5.398438 1.890625 -5.113281 1.890625 -4.75 L 1.890625 -2.484375 C 1.890625 -2.117188 1.898438 -1.832031 1.921875 -1.625 C 1.953125 -1.414062 2.023438 -1.238281 2.140625 -1.09375 C 2.253906 -0.957031 2.429688 -0.890625 2.671875 -0.890625 Z M 2.671875 -0.890625 "/></g></g></g><g fill="#ffffff" fill-opacity="1"><g transform="translate(74.298517, 31.301566)"><g><path d="M 0.671875 -7.25 L 2.015625 -7.25 L 2.015625 -6.53125 C 2.597656 -7.082031 3.191406 -7.359375 3.796875 -7.359375 C 4.179688 -7.359375 4.457031 -7.210938 4.625 -6.921875 C 4.789062 -6.640625 4.875 -6.289062 4.875 -5.875 L 4.875 0 L 3.53125 0 L 3.53125 -5.484375 C 3.53125 -5.753906 3.488281 -5.957031 3.40625 -6.09375 C 3.320312 -6.226562 3.175781 -6.296875 2.96875 -6.296875 C 2.695312 -6.296875 2.378906 -6.144531 2.015625 -5.84375 L 2.015625 0 L 0.671875 0 Z M 0.671875 -7.25 "/></g></g></g></g></g><g transform="matrix(1, 0, 0, 1, 102, 179)"><g clip-path="url(#98ce9cf1e7)"><g fill="#ffffff" fill-opacity="1"><g transform="translate(0.736448, 8.007138)"><g><path d="M 0.578125 0 L 0.578125 -5.109375 L 2.296875 -5.109375 C 2.765625 -5.109375 3.179688 -5 3.546875 -4.78125 C 3.921875 -4.5625 4.210938 -4.257812 4.421875 -3.875 C 4.640625 -3.488281 4.75 -3.046875 4.75 -2.546875 C 4.75 -2.054688 4.640625 -1.617188 4.421875 -1.234375 C 4.210938 -0.847656 3.921875 -0.546875 3.546875 -0.328125 C 3.179688 -0.109375 2.765625 0 2.296875 0 Z M 2.296875 -0.546875 C 2.648438 -0.546875 2.96875 -0.628906 3.25 -0.796875 C 3.53125 -0.960938 3.75 -1.195312 3.90625 -1.5 C 4.070312 -1.8125 4.15625 -2.160156 4.15625 -2.546875 C 4.15625 -2.941406 4.070312 -3.289062 3.90625 -3.59375 C 3.75 -3.90625 3.53125 -4.144531 3.25 -4.3125 C 2.96875 -4.476562 2.648438 -4.5625 2.296875 -4.5625 L 1.171875 -4.5625 L 1.171875 -0.546875 Z M 2.296875 -0.546875 "/></g></g></g><g fill="#ffffff" fill-opacity="1"><g transform="translate(6.301245, 8.007138)"><g><path d="M 3.875 0 L 0.578125 0 L 0.578125 -5.109375 L 3.875 -5.109375 L 3.875 -4.5625 L 1.171875 -4.5625 L 1.171875 -2.84375 L 3.71875 -2.84375 L 3.71875 -2.296875 L 1.171875 -2.296875 L 1.171875 -0.546875 L 3.875 -0.546875 Z M 3.875 0 "/></g></g></g><g fill="#ffffff" fill-opacity="1"><g transform="translate(11.027355, 8.007138)"><g><path d="M 2.265625 0.078125 C 1.867188 0.078125 1.523438 0.00390625 1.234375 -0.140625 C 0.941406 -0.285156 0.71875 -0.476562 0.5625 -0.71875 C 0.40625 -0.957031 0.328125 -1.21875 0.328125 -1.5 L 0.90625 -1.5 C 0.90625 -1.3125 0.957031 -1.140625 1.0625 -0.984375 C 1.164062 -0.828125 1.320312 -0.703125 1.53125 -0.609375 C 1.738281 -0.515625 1.984375 -0.46875 2.265625 -0.46875 C 2.691406 -0.46875 3.007812 -0.550781 3.21875 -0.71875 C 3.425781 -0.894531 3.53125 -1.117188 3.53125 -1.390625 C 3.53125 -1.609375 3.457031 -1.785156 3.3125 -1.921875 C 3.164062 -2.066406 2.945312 -2.164062 2.65625 -2.21875 L 1.671875 -2.40625 C 0.847656 -2.5625 0.4375 -3 0.4375 -3.71875 C 0.4375 -4 0.503906 -4.25 0.640625 -4.46875 C 0.785156 -4.6875 0.988281 -4.859375 1.25 -4.984375 C 1.519531 -5.117188 1.832031 -5.1875 2.1875 -5.1875 C 2.570312 -5.1875 2.90625 -5.113281 3.1875 -4.96875 C 3.476562 -4.832031 3.703125 -4.644531 3.859375 -4.40625 C 4.015625 -4.164062 4.09375 -3.898438 4.09375 -3.609375 L 3.5 -3.609375 C 3.5 -3.796875 3.445312 -3.96875 3.34375 -4.125 C 3.238281 -4.28125 3.085938 -4.40625 2.890625 -4.5 C 2.691406 -4.59375 2.457031 -4.640625 2.1875 -4.640625 C 1.820312 -4.640625 1.535156 -4.550781 1.328125 -4.375 C 1.117188 -4.207031 1.015625 -3.988281 1.015625 -3.71875 C 1.015625 -3.519531 1.082031 -3.347656 1.21875 -3.203125 C 1.363281 -3.054688 1.578125 -2.960938 1.859375 -2.921875 L 2.65625 -2.765625 C 3.164062 -2.679688 3.535156 -2.523438 3.765625 -2.296875 C 4.003906 -2.078125 4.125 -1.773438 4.125 -1.390625 C 4.125 -1.109375 4.050781 -0.851562 3.90625 -0.625 C 3.757812 -0.40625 3.546875 -0.234375 3.265625 -0.109375 C 2.984375 0.015625 2.648438 0.078125 2.265625 0.078125 Z M 2.265625 0.078125 "/></g></g></g><g fill="#ffffff" fill-opacity="1"><g transform="translate(15.97225, 8.007138)"><g><path d="M 1.171875 0 L 0.578125 0 L 0.578125 -5.109375 L 1.171875 -5.109375 Z M 1.171875 0 "/></g></g></g><g fill="#ffffff" fill-opacity="1"><g transform="translate(18.182293, 8.007138)"><g><path d="M 2.984375 -2.625 L 5.109375 -2.625 L 5.109375 0 L 4.640625 0 L 4.5625 -0.734375 L 4.53125 -0.734375 C 4.363281 -0.523438 4.125 -0.335938 3.8125 -0.171875 C 3.507812 -0.00390625 3.175781 0.078125 2.8125 0.078125 C 2.363281 0.078125 1.953125 -0.03125 1.578125 -0.25 C 1.203125 -0.476562 0.90625 -0.789062 0.6875 -1.1875 C 0.46875 -1.582031 0.359375 -2.035156 0.359375 -2.546875 C 0.359375 -3.054688 0.46875 -3.507812 0.6875 -3.90625 C 0.90625 -4.3125 1.203125 -4.625 1.578125 -4.84375 C 1.953125 -5.070312 2.363281 -5.1875 2.8125 -5.1875 C 3.320312 -5.1875 3.785156 -5.039062 4.203125 -4.75 C 4.617188 -4.457031 4.910156 -4.066406 5.078125 -3.578125 L 4.453125 -3.578125 C 4.304688 -3.898438 4.082031 -4.15625 3.78125 -4.34375 C 3.476562 -4.539062 3.15625 -4.640625 2.8125 -4.640625 C 2.46875 -4.640625 2.148438 -4.550781 1.859375 -4.375 C 1.578125 -4.195312 1.351562 -3.945312 1.1875 -3.625 C 1.03125 -3.3125 0.953125 -2.953125 0.953125 -2.546875 C 0.953125 -2.148438 1.03125 -1.789062 1.1875 -1.46875 C 1.351562 -1.15625 1.578125 -0.910156 1.859375 -0.734375 C 2.148438 -0.554688 2.46875 -0.46875 2.8125 -0.46875 C 3.101562 -0.46875 3.378906 -0.539062 3.640625 -0.6875 C 3.910156 -0.84375 4.125 -1.039062 4.28125 -1.28125 C 4.445312 -1.53125 4.53125 -1.785156 4.53125 -2.046875 L 4.53125 -2.109375 L 2.984375 -2.109375 Z M 2.984375 -2.625 "/></g></g></g><g fill="#ffffff" fill-opacity="1"><g transform="translate(24.257598, 8.007138)"><g><path d="M 1.171875 0 L 0.578125 0 L 0.578125 -5.109375 L 1.5625 -5.109375 L 3.875 -0.6875 L 4.015625 -0.6875 L 4.015625 -5.109375 L 4.59375 -5.109375 L 4.59375 0 L 3.609375 0 L 1.3125 -4.421875 L 1.171875 -4.421875 Z M 1.171875 0 "/></g></g></g><g fill="#ffffff" fill-opacity="1"><g transform="translate(29.895326, 8.007138)"><g/></g></g><g fill="#ffffff" fill-opacity="1"><g transform="translate(32.032438, 8.007138)"><g><path d="M 3.875 0 L 0.578125 0 L 0.578125 -5.109375 L 3.875 -5.109375 L 3.875 -4.5625 L 1.171875 -4.5625 L 1.171875 -2.84375 L 3.71875 -2.84375 L 3.71875 -2.296875 L 1.171875 -2.296875 L 1.171875 -0.546875 L 3.875 -0.546875 Z M 3.875 0 "/></g></g></g><g fill="#ffffff" fill-opacity="1"><g transform="translate(36.758548, 8.007138)"><g><path d="M 1.171875 0 L 0.578125 0 L 0.578125 -5.109375 L 1.640625 -5.109375 L 3.203125 -0.65625 L 3.359375 -0.65625 L 4.921875 -5.109375 L 5.984375 -5.109375 L 5.984375 0 L 5.40625 0 L 5.40625 -4.34375 L 5.25 -4.34375 L 3.71875 0 L 2.84375 0 L 1.3125 -4.34375 L 1.171875 -4.34375 Z M 1.171875 0 "/></g></g></g><g fill="#ffffff" fill-opacity="1"><g transform="translate(43.781933, 8.007138)"><g><path d="M 2.8125 0.078125 C 2.363281 0.078125 1.953125 -0.03125 1.578125 -0.25 C 1.203125 -0.476562 0.90625 -0.789062 0.6875 -1.1875 C 0.46875 -1.582031 0.359375 -2.035156 0.359375 -2.546875 C 0.359375 -3.054688 0.46875 -3.507812 0.6875 -3.90625 C 0.90625 -4.3125 1.203125 -4.625 1.578125 -4.84375 C 1.953125 -5.070312 2.363281 -5.1875 2.8125 -5.1875 C 3.257812 -5.1875 3.671875 -5.070312 4.046875 -4.84375 C 4.421875 -4.625 4.710938 -4.3125 4.921875 -3.90625 C 5.140625 -3.507812 5.25 -3.054688 5.25 -2.546875 C 5.25 -2.035156 5.140625 -1.582031 4.921875 -1.1875 C 4.710938 -0.789062 4.421875 -0.476562 4.046875 -0.25 C 3.671875 -0.03125 3.257812 0.078125 2.8125 0.078125 Z M 2.8125 -0.46875 C 3.144531 -0.46875 3.453125 -0.554688 3.734375 -0.734375 C 4.023438 -0.910156 4.253906 -1.15625 4.421875 -1.46875 C 4.585938 -1.789062 4.671875 -2.148438 4.671875 -2.546875 C 4.671875 -2.953125 4.585938 -3.3125 4.421875 -3.625 C 4.253906 -3.945312 4.023438 -4.195312 3.734375 -4.375 C 3.453125 -4.550781 3.144531 -4.640625 2.8125 -4.640625 C 2.46875 -4.640625 2.148438 -4.550781 1.859375 -4.375 C 1.578125 -4.195312 1.351562 -3.945312 1.1875 -3.625 C 1.03125 -3.3125 0.953125 -2.953125 0.953125 -2.546875 C 0.953125 -2.148438 1.03125 -1.789062 1.1875 -1.46875 C 1.351562 -1.15625 1.578125 -0.910156 1.859375 -0.734375 C 2.148438 -0.554688 2.46875 -0.46875 2.8125 -0.46875 Z M 2.8125 -0.46875 "/></g></g></g><g fill="#ffffff" fill-opacity="1"><g transform="translate(49.857238, 8.007138)"><g><path d="M 2.4375 0 L 1.859375 0 L 1.859375 -4.5625 L 0.1875 -4.5625 L 0.1875 -5.109375 L 4.125 -5.109375 L 4.125 -4.5625 L 2.4375 -4.5625 Z M 2.4375 0 "/></g></g></g><g fill="#ffffff" fill-opacity="1"><g transform="translate(54.61981, 8.007138)"><g><path d="M 1.171875 0 L 0.578125 0 L 0.578125 -5.109375 L 1.171875 -5.109375 Z M 1.171875 0 "/></g></g></g><g fill="#ffffff" fill-opacity="1"><g transform="translate(56.829853, 8.007138)"><g><path d="M 2.8125 0.078125 C 2.363281 0.078125 1.953125 -0.03125 1.578125 -0.25 C 1.203125 -0.476562 0.90625 -0.789062 0.6875 -1.1875 C 0.46875 -1.582031 0.359375 -2.035156 0.359375 -2.546875 C 0.359375 -3.054688 0.46875 -3.507812 0.6875 -3.90625 C 0.90625 -4.3125 1.203125 -4.625 1.578125 -4.84375 C 1.953125 -5.070312 2.363281 -5.1875 2.8125 -5.1875 C 3.257812 -5.1875 3.671875 -5.070312 4.046875 -4.84375 C 4.421875 -4.625 4.710938 -4.3125 4.921875 -3.90625 C 5.140625 -3.507812 5.25 -3.054688 5.25 -2.546875 C 5.25 -2.035156 5.140625 -1.582031 4.921875 -1.1875 C 4.710938 -0.789062 4.421875 -0.476562 4.046875 -0.25 C 3.671875 -0.03125 3.257812 0.078125 2.8125 0.078125 Z M 2.8125 -0.46875 C 3.144531 -0.46875 3.453125 -0.554688 3.734375 -0.734375 C 4.023438 -0.910156 4.253906 -1.15625 4.421875 -1.46875 C 4.585938 -1.789062 4.671875 -2.148438 4.671875 -2.546875 C 4.671875 -2.953125 4.585938 -3.3125 4.421875 -3.625 C 4.253906 -3.945312 4.023438 -4.195312 3.734375 -4.375 C 3.453125 -4.550781 3.144531 -4.640625 2.8125 -4.640625 C 2.46875 -4.640625 2.148438 -4.550781 1.859375 -4.375 C 1.578125 -4.195312 1.351562 -3.945312 1.1875 -3.625 C 1.03125 -3.3125 0.953125 -2.953125 0.953125 -2.546875 C 0.953125 -2.148438 1.03125 -1.789062 1.1875 -1.46875 C 1.351562 -1.15625 1.578125 -0.910156 1.859375 -0.734375 C 2.148438 -0.554688 2.46875 -0.46875 2.8125 -0.46875 Z M 2.8125 -0.46875 "/></g></g></g><g fill="#ffffff" fill-opacity="1"><g transform="translate(62.905158, 8.007138)"><g><path d="M 1.171875 0 L 0.578125 0 L 0.578125 -5.109375 L 1.5625 -5.109375 L 3.875 -0.6875 L 4.015625 -0.6875 L 4.015625 -5.109375 L 4.59375 -5.109375 L 4.59375 0 L 3.609375 0 L 1.3125 -4.421875 L 1.171875 -4.421875 Z M 1.171875 0 "/></g></g></g><g fill="#ffffff" fill-opacity="1"><g transform="translate(68.542886, 8.007138)"><g/></g></g><g fill="#ffffff" fill-opacity="1"><g transform="translate(70.679998, 8.007138)"><g><path d="M 4.75 0 L 4.125 0 L 3.640625 -1.3125 L 1.109375 -1.3125 L 0.625 0 L 0 0 L 1.9375 -5.109375 L 2.8125 -5.109375 Z M 2.296875 -4.484375 L 1.3125 -1.859375 L 3.421875 -1.859375 L 2.4375 -4.484375 Z M 2.296875 -4.484375 "/></g></g></g><g fill="#ffffff" fill-opacity="1"><g transform="translate(75.880148, 8.007138)"><g><path d="M 1.171875 0 L 0.578125 0 L 0.578125 -5.109375 L 1.5625 -5.109375 L 3.875 -0.6875 L 4.015625 -0.6875 L 4.015625 -5.109375 L 4.59375 -5.109375 L 4.59375 0 L 3.609375 0 L 1.3125 -4.421875 L 1.171875 -4.421875 Z M 1.171875 0 "/></g></g></g><g fill="#ffffff" fill-opacity="1"><g transform="translate(81.517875, 8.007138)"><g><path d="M 0.578125 0 L 0.578125 -5.109375 L 2.296875 -5.109375 C 2.765625 -5.109375 3.179688 -5 3.546875 -4.78125 C 3.921875 -4.5625 4.210938 -4.257812 4.421875 -3.875 C 4.640625 -3.488281 4.75 -3.046875 4.75 -2.546875 C 4.75 -2.054688 4.640625 -1.617188 4.421875 -1.234375 C 4.210938 -0.847656 3.921875 -0.546875 3.546875 -0.328125 C 3.179688 -0.109375 2.765625 0 2.296875 0 Z M 2.296875 -0.546875 C 2.648438 -0.546875 2.96875 -0.628906 3.25 -0.796875 C 3.53125 -0.960938 3.75 -1.195312 3.90625 -1.5 C 4.070312 -1.8125 4.15625 -2.160156 4.15625 -2.546875 C 4.15625 -2.941406 4.070312 -3.289062 3.90625 -3.59375 C 3.75 -3.90625 3.53125 -4.144531 3.25 -4.3125 C 2.96875 -4.476562 2.648438 -4.5625 2.296875 -4.5625 L 1.171875 -4.5625 L 1.171875 -0.546875 Z M 2.296875 -0.546875 "/></g></g></g><g fill="#ffffff" fill-opacity="1"><g transform="translate(87.082672, 8.007138)"><g/></g></g><g fill="#ffffff" fill-opacity="1"><g transform="translate(89.219784, 8.007138)"><g><path d="M 3.875 0 L 0.578125 0 L 0.578125 -5.109375 L 3.875 -5.109375 L 3.875 -4.5625 L 1.171875 -4.5625 L 1.171875 -2.84375 L 3.71875 -2.84375 L 3.71875 -2.296875 L 1.171875 -2.296875 L 1.171875 -0.546875 L 3.875 -0.546875 Z M 3.875 0 "/></g></g></g><g fill="#ffffff" fill-opacity="1"><g transform="translate(93.945894, 8.007138)"><g><path d="M 0.734375 0 L 0.078125 0 L 1.859375 -2.625 L 0.1875 -5.109375 L 0.84375 -5.109375 L 2.1875 -3.09375 L 2.328125 -3.09375 L 3.6875 -5.109375 L 4.34375 -5.109375 L 2.65625 -2.625 L 4.453125 0 L 3.78125 0 L 2.328125 -2.15625 L 2.1875 -2.15625 Z M 0.734375 0 "/></g></g></g><g fill="#ffffff" fill-opacity="1"><g transform="translate(98.927251, 8.007138)"><g><path d="M 0.578125 0 L 0.578125 -5.109375 L 2.8125 -5.109375 C 3.070312 -5.109375 3.3125 -5.039062 3.53125 -4.90625 C 3.757812 -4.769531 3.9375 -4.582031 4.0625 -4.34375 C 4.195312 -4.101562 4.265625 -3.832031 4.265625 -3.53125 C 4.265625 -3.238281 4.195312 -2.972656 4.0625 -2.734375 C 3.9375 -2.492188 3.757812 -2.304688 3.53125 -2.171875 C 3.3125 -2.035156 3.070312 -1.96875 2.8125 -1.96875 L 1.171875 -1.96875 L 1.171875 0 Z M 2.8125 -2.515625 C 3.050781 -2.515625 3.253906 -2.609375 3.421875 -2.796875 C 3.597656 -2.992188 3.6875 -3.238281 3.6875 -3.53125 C 3.6875 -3.832031 3.597656 -4.078125 3.421875 -4.265625 C 3.253906 -4.460938 3.050781 -4.5625 2.8125 -4.5625 L 1.171875 -4.5625 L 1.171875 -2.515625 Z M 2.8125 -2.515625 "/></g></g></g><g fill="#ffffff" fill-opacity="1"><g transform="translate(104.018008, 8.007138)"><g><path d="M 3.875 0 L 0.578125 0 L 0.578125 -5.109375 L 3.875 -5.109375 L 3.875 -4.5625 L 1.171875 -4.5625 L 1.171875 -2.84375 L 3.71875 -2.84375 L 3.71875 -2.296875 L 1.171875 -2.296875 L 1.171875 -0.546875 L 3.875 -0.546875 Z M 3.875 0 "/></g></g></g><g fill="#ffffff" fill-opacity="1"><g transform="translate(108.744118, 8.007138)"><g><path d="M 2.328125 -1.96875 L 4.375 0 L 3.640625 0 L 1.609375 -1.96875 L 1.171875 -1.96875 L 1.171875 0 L 0.578125 0 L 0.578125 -5.109375 L 2.8125 -5.109375 C 3.070312 -5.109375 3.3125 -5.039062 3.53125 -4.90625 C 3.757812 -4.769531 3.9375 -4.582031 4.0625 -4.34375 C 4.195312 -4.101562 4.265625 -3.832031 4.265625 -3.53125 C 4.265625 -3.238281 4.195312 -2.972656 4.0625 -2.734375 C 3.9375 -2.492188 3.757812 -2.304688 3.53125 -2.171875 C 3.3125 -2.035156 3.070312 -1.96875 2.8125 -1.96875 Z M 1.171875 -2.515625 L 2.8125 -2.515625 C 3.050781 -2.515625 3.253906 -2.609375 3.421875 -2.796875 C 3.597656 -2.992188 3.6875 -3.238281 3.6875 -3.53125 C 3.6875 -3.832031 3.597656 -4.078125 3.421875 -4.265625 C 3.253906 -4.460938 3.050781 -4.5625 2.8125 -4.5625 L 1.171875 -4.5625 Z M 1.171875 -2.515625 "/></g></g></g><g fill="#ffffff" fill-opacity="1"><g transform="translate(113.871337, 8.007138)"><g><path d="M 1.171875 0 L 0.578125 0 L 0.578125 -5.109375 L 1.171875 -5.109375 Z M 1.171875 0 "/></g></g></g><g fill="#ffffff" fill-opacity="1"><g transform="translate(116.081379, 8.007138)"><g><path d="M 3.875 0 L 0.578125 0 L 0.578125 -5.109375 L 3.875 -5.109375 L 3.875 -4.5625 L 1.171875 -4.5625 L 1.171875 -2.84375 L 3.71875 -2.84375 L 3.71875 -2.296875 L 1.171875 -2.296875 L 1.171875 -0.546875 L 3.875 -0.546875 Z M 3.875 0 "/></g></g></g><g fill="#ffffff" fill-opacity="1"><g transform="translate(120.80749, 8.007138)"><g><path d="M 1.171875 0 L 0.578125 0 L 0.578125 -5.109375 L 1.5625 -5.109375 L 3.875 -0.6875 L 4.015625 -0.6875 L 4.015625 -5.109375 L 4.59375 -5.109375 L 4.59375 0 L 3.609375 0 L 1.3125 -4.421875 L 1.171875 -4.421875 Z M 1.171875 0 "/></g></g></g><g fill="#ffffff" fill-opacity="1"><g transform="translate(126.445217, 8.007138)"><g><path d="M 2.8125 0.078125 C 2.363281 0.078125 1.953125 -0.03125 1.578125 -0.25 C 1.203125 -0.476562 0.90625 -0.789062 0.6875 -1.1875 C 0.46875 -1.582031 0.359375 -2.035156 0.359375 -2.546875 C 0.359375 -3.054688 0.46875 -3.507812 0.6875 -3.90625 C 0.90625 -4.3125 1.203125 -4.625 1.578125 -4.84375 C 1.953125 -5.070312 2.363281 -5.1875 2.8125 -5.1875 C 3.363281 -5.1875 3.84375 -5.03125 4.25 -4.71875 C 4.65625 -4.414062 4.929688 -4 5.078125 -3.46875 L 4.453125 -3.46875 C 4.328125 -3.832031 4.117188 -4.117188 3.828125 -4.328125 C 3.535156 -4.535156 3.195312 -4.640625 2.8125 -4.640625 C 2.46875 -4.640625 2.148438 -4.550781 1.859375 -4.375 C 1.578125 -4.195312 1.351562 -3.945312 1.1875 -3.625 C 1.03125 -3.3125 0.953125 -2.953125 0.953125 -2.546875 C 0.953125 -2.148438 1.03125 -1.789062 1.1875 -1.46875 C 1.351562 -1.15625 1.578125 -0.910156 1.859375 -0.734375 C 2.148438 -0.554688 2.46875 -0.46875 2.8125 -0.46875 C 3.195312 -0.46875 3.535156 -0.570312 3.828125 -0.78125 C 4.117188 -1 4.328125 -1.296875 4.453125 -1.671875 L 5.078125 -1.671875 C 4.929688 -1.128906 4.65625 -0.703125 4.25 -0.390625 C 3.84375 -0.078125 3.363281 0.078125 2.8125 0.078125 Z M 2.8125 0.078125 "/></g></g></g><g fill="#ffffff" fill-opacity="1"><g transform="translate(132.228799, 8.007138)"><g><path d="M 3.875 0 L 0.578125 0 L 0.578125 -5.109375 L 3.875 -5.109375 L 3.875 -4.5625 L 1.171875 -4.5625 L 1.171875 -2.84375 L 3.71875 -2.84375 L 3.71875 -2.296875 L 1.171875 -2.296875 L 1.171875 -0.546875 L 3.875 -0.546875 Z M 3.875 0 "/></g></g></g><g clip-path="url(#e3bd526904)"><g fill="#ffffff" fill-opacity="1"><g transform="translate(0.736448, 16.952784)"><g><path d="M 2.328125 0.078125 C 1.890625 0.078125 1.507812 0.00390625 1.1875 -0.140625 C 0.875 -0.296875 0.632812 -0.503906 0.46875 -0.765625 C 0.300781 -1.035156 0.21875 -1.335938 0.21875 -1.671875 L 1.390625 -1.671875 C 1.390625 -1.460938 1.46875 -1.289062 1.625 -1.15625 C 1.789062 -1.019531 2.023438 -0.953125 2.328125 -0.953125 C 2.617188 -0.953125 2.835938 -1 2.984375 -1.09375 C 3.128906 -1.195312 3.203125 -1.332031 3.203125 -1.5 C 3.203125 -1.632812 3.144531 -1.742188 3.03125 -1.828125 C 2.925781 -1.921875 2.742188 -1.992188 2.484375 -2.046875 L 1.671875 -2.1875 C 1.222656 -2.269531 0.882812 -2.425781 0.65625 -2.65625 C 0.4375 -2.894531 0.328125 -3.210938 0.328125 -3.609375 C 0.328125 -3.910156 0.398438 -4.175781 0.546875 -4.40625 C 0.703125 -4.644531 0.925781 -4.832031 1.21875 -4.96875 C 1.507812 -5.113281 1.859375 -5.1875 2.265625 -5.1875 C 2.703125 -5.1875 3.078125 -5.109375 3.390625 -4.953125 C 3.703125 -4.804688 3.9375 -4.601562 4.09375 -4.34375 C 4.257812 -4.082031 4.34375 -3.773438 4.34375 -3.421875 L 3.171875 -3.421875 C 3.171875 -3.628906 3.085938 -3.800781 2.921875 -3.9375 C 2.753906 -4.082031 2.535156 -4.15625 2.265625 -4.15625 C 2.015625 -4.15625 1.820312 -4.101562 1.6875 -4 C 1.5625 -3.894531 1.5 -3.765625 1.5 -3.609375 C 1.5 -3.484375 1.539062 -3.382812 1.625 -3.3125 C 1.71875 -3.238281 1.878906 -3.179688 2.109375 -3.140625 L 2.921875 -2.984375 C 3.429688 -2.898438 3.800781 -2.738281 4.03125 -2.5 C 4.257812 -2.269531 4.375 -1.9375 4.375 -1.5 C 4.375 -1.195312 4.296875 -0.925781 4.140625 -0.6875 C 3.984375 -0.445312 3.75 -0.257812 3.4375 -0.125 C 3.132812 0.0078125 2.765625 0.078125 2.328125 0.078125 Z M 2.328125 0.078125 "/></g></g></g></g><g fill="#ffffff" fill-opacity="1"><g transform="translate(5.863667, 16.952784)"><g><path d="M 0.515625 0 L 0.515625 -5.109375 L 2.875 -5.109375 C 3.207031 -5.109375 3.5 -5.035156 3.75 -4.890625 C 4.007812 -4.742188 4.207031 -4.535156 4.34375 -4.265625 C 4.488281 -3.992188 4.5625 -3.679688 4.5625 -3.328125 C 4.5625 -2.960938 4.488281 -2.644531 4.34375 -2.375 C 4.207031 -2.101562 4.007812 -1.894531 3.75 -1.75 C 3.5 -1.601562 3.207031 -1.53125 2.875 -1.53125 L 1.671875 -1.53125 L 1.671875 0 Z M 2.8125 -2.65625 C 2.976562 -2.65625 3.113281 -2.710938 3.21875 -2.828125 C 3.332031 -2.953125 3.390625 -3.113281 3.390625 -3.3125 C 3.390625 -3.519531 3.332031 -3.679688 3.21875 -3.796875 C 3.113281 -3.921875 2.976562 -3.984375 2.8125 -3.984375 L 1.671875 -3.984375 L 1.671875 -2.65625 Z M 2.8125 -2.65625 "/></g></g></g><g fill="#ffffff" fill-opacity="1"><g transform="translate(11.136747, 16.952784)"><g><path d="M 4.015625 0 L 0.515625 0 L 0.515625 -5.109375 L 4.015625 -5.109375 L 4.015625 -4.046875 L 1.671875 -4.046875 L 1.671875 -3.0625 L 3.875 -3.0625 L 3.875 -2.046875 L 1.671875 -2.046875 L 1.671875 -1.0625 L 4.015625 -1.0625 Z M 4.015625 0 "/></g></g></g><g fill="#ffffff" fill-opacity="1"><g transform="translate(15.97225, 16.952784)"><g><path d="M 5.140625 0 L 3.875 0 L 3.53125 -1.015625 L 1.5625 -1.015625 L 1.234375 0 L -0.03125 0 L 1.71875 -5.109375 L 3.390625 -5.109375 Z M 2.484375 -3.875 L 1.890625 -2.046875 L 3.203125 -2.046875 L 2.625 -3.875 Z M 2.484375 -3.875 "/></g></g></g><g fill="#ffffff" fill-opacity="1"><g transform="translate(21.537047, 16.952784)"><g><path d="M 1.671875 0 L 0.515625 0 L 0.515625 -5.109375 L 1.671875 -5.109375 L 1.671875 -2.921875 L 3.171875 -5.109375 L 4.59375 -5.109375 L 2.84375 -2.59375 L 4.75 0 L 3.3125 0 L 1.671875 -2.296875 Z M 1.671875 0 "/></g></g></g><g fill="#ffffff" fill-opacity="1"><g transform="translate(26.591334, 16.952784)"><g><path d="M 4.015625 0 L 0.515625 0 L 0.515625 -5.109375 L 4.015625 -5.109375 L 4.015625 -4.046875 L 1.671875 -4.046875 L 1.671875 -3.0625 L 3.875 -3.0625 L 3.875 -2.046875 L 1.671875 -2.046875 L 1.671875 -1.0625 L 4.015625 -1.0625 Z M 4.015625 0 "/></g></g></g><g fill="#ffffff" fill-opacity="1"><g transform="translate(31.426837, 16.952784)"><g><path d="M 4.75 0 L 3.296875 0 L 1.859375 -1.640625 L 1.671875 -1.640625 L 1.671875 0 L 0.515625 0 L 0.515625 -5.109375 L 2.921875 -5.109375 C 3.253906 -5.109375 3.546875 -5.03125 3.796875 -4.875 C 4.046875 -4.726562 4.238281 -4.523438 4.375 -4.265625 C 4.519531 -4.003906 4.59375 -3.695312 4.59375 -3.34375 C 4.59375 -3.039062 4.53125 -2.765625 4.40625 -2.515625 C 4.28125 -2.265625 4.113281 -2.0625 3.90625 -1.90625 C 3.695312 -1.757812 3.46875 -1.679688 3.21875 -1.671875 Z M 1.671875 -2.703125 L 2.859375 -2.703125 C 3.015625 -2.703125 3.144531 -2.765625 3.25 -2.890625 C 3.363281 -3.015625 3.421875 -3.171875 3.421875 -3.359375 C 3.421875 -3.546875 3.363281 -3.703125 3.25 -3.828125 C 3.144531 -3.953125 3.015625 -4.015625 2.859375 -4.015625 L 1.671875 -4.015625 Z M 1.671875 -2.703125 "/></g></g></g><g fill="#ffffff" fill-opacity="1"><g transform="translate(36.845771, 16.952784)"><g/></g></g><g fill="#ffffff" fill-opacity="1"><g transform="translate(39.274599, 16.952784)"><g><path d="M 4.015625 0 L 0.515625 0 L 0.515625 -5.109375 L 4.015625 -5.109375 L 4.015625 -4.046875 L 1.671875 -4.046875 L 1.671875 -3.0625 L 3.875 -3.0625 L 3.875 -2.046875 L 1.671875 -2.046875 L 1.671875 -1.0625 L 4.015625 -1.0625 Z M 4.015625 0 "/></g></g></g><g fill="#ffffff" fill-opacity="1"><g transform="translate(44.110102, 16.952784)"><g><path d="M 1.28125 0 L -0.109375 0 L 1.609375 -2.625 L 0 -5.109375 L 1.390625 -5.109375 L 2.296875 -3.578125 L 2.4375 -3.578125 L 3.359375 -5.109375 L 4.75 -5.109375 L 3.140625 -2.625 L 4.859375 0 L 3.46875 0 L 2.4375 -1.640625 L 2.296875 -1.640625 Z M 1.28125 0 "/></g></g></g><g fill="#ffffff" fill-opacity="1"><g transform="translate(49.310252, 16.952784)"><g><path d="M 1.671875 0 L 0.515625 0 L 0.515625 -5.109375 L 1.671875 -5.109375 L 1.671875 -3.171875 L 3.640625 -3.171875 L 3.640625 -5.109375 L 4.8125 -5.109375 L 4.8125 0 L 3.640625 0 L 3.640625 -1.96875 L 1.671875 -1.96875 Z M 1.671875 0 "/></g></g></g><g fill="#ffffff" fill-opacity="1"><g transform="translate(55.093833, 16.952784)"><g><path d="M 1.671875 0 L 0.515625 0 L 0.515625 -5.109375 L 1.671875 -5.109375 Z M 1.671875 0 "/></g></g></g><g fill="#ffffff" fill-opacity="1"><g transform="translate(57.741446, 16.952784)"><g><path d="M 0.515625 0 L 0.515625 -5.109375 L 2.984375 -5.109375 C 3.285156 -5.109375 3.550781 -5.046875 3.78125 -4.921875 C 4.007812 -4.804688 4.179688 -4.640625 4.296875 -4.421875 C 4.421875 -4.203125 4.484375 -3.957031 4.484375 -3.6875 C 4.484375 -3.4375 4.425781 -3.210938 4.3125 -3.015625 C 4.207031 -2.828125 4.082031 -2.6875 3.9375 -2.59375 L 3.9375 -2.546875 C 4.101562 -2.460938 4.25 -2.316406 4.375 -2.109375 C 4.5 -1.910156 4.5625 -1.679688 4.5625 -1.421875 C 4.5625 -1.140625 4.5 -0.890625 4.375 -0.671875 C 4.257812 -0.460938 4.085938 -0.296875 3.859375 -0.171875 C 3.628906 -0.0546875 3.363281 0 3.0625 0 Z M 2.8125 -3.0625 C 2.957031 -3.0625 3.078125 -3.109375 3.171875 -3.203125 C 3.265625 -3.304688 3.3125 -3.429688 3.3125 -3.578125 C 3.3125 -3.722656 3.265625 -3.84375 3.171875 -3.9375 C 3.078125 -4.039062 2.957031 -4.09375 2.8125 -4.09375 L 1.671875 -4.09375 L 1.671875 -3.0625 Z M 2.875 -1.015625 C 3.019531 -1.015625 3.140625 -1.0625 3.234375 -1.15625 C 3.335938 -1.257812 3.390625 -1.382812 3.390625 -1.53125 C 3.390625 -1.675781 3.335938 -1.796875 3.234375 -1.890625 C 3.140625 -1.992188 3.019531 -2.046875 2.875 -2.046875 L 1.671875 -2.046875 L 1.671875 -1.015625 Z M 2.875 -1.015625 "/></g></g></g><g fill="#ffffff" fill-opacity="1"><g transform="translate(63.08745, 16.952784)"><g><path d="M 1.671875 0 L 0.515625 0 L 0.515625 -5.109375 L 1.671875 -5.109375 Z M 1.671875 0 "/></g></g></g><g fill="#ffffff" fill-opacity="1"><g transform="translate(65.735063, 16.952784)"><g><path d="M 2.734375 0 L 1.5625 0 L 1.5625 -3.984375 L 0.140625 -3.984375 L 0.140625 -5.109375 L 4.15625 -5.109375 L 4.15625 -3.984375 L 2.734375 -3.984375 Z M 2.734375 0 "/></g></g></g><g fill="#ffffff" fill-opacity="1"><g transform="translate(70.497634, 16.952784)"><g><path d="M 1.671875 0 L 0.515625 0 L 0.515625 -5.109375 L 1.671875 -5.109375 Z M 1.671875 0 "/></g></g></g><g fill="#ffffff" fill-opacity="1"><g transform="translate(73.145247, 16.952784)"><g><path d="M 2.765625 0.078125 C 2.316406 0.078125 1.898438 -0.0351562 1.515625 -0.265625 C 1.140625 -0.492188 0.84375 -0.804688 0.625 -1.203125 C 0.40625 -1.597656 0.296875 -2.046875 0.296875 -2.546875 C 0.296875 -3.054688 0.40625 -3.507812 0.625 -3.90625 C 0.84375 -4.300781 1.140625 -4.613281 1.515625 -4.84375 C 1.898438 -5.070312 2.316406 -5.1875 2.765625 -5.1875 C 3.222656 -5.1875 3.640625 -5.070312 4.015625 -4.84375 C 4.398438 -4.613281 4.703125 -4.300781 4.921875 -3.90625 C 5.140625 -3.507812 5.25 -3.054688 5.25 -2.546875 C 5.25 -2.046875 5.140625 -1.597656 4.921875 -1.203125 C 4.703125 -0.804688 4.398438 -0.492188 4.015625 -0.265625 C 3.640625 -0.0351562 3.222656 0.078125 2.765625 0.078125 Z M 2.765625 -1.0625 C 3.015625 -1.0625 3.238281 -1.125 3.4375 -1.25 C 3.632812 -1.375 3.789062 -1.546875 3.90625 -1.765625 C 4.03125 -1.992188 4.09375 -2.253906 4.09375 -2.546875 C 4.09375 -2.847656 4.03125 -3.109375 3.90625 -3.328125 C 3.789062 -3.554688 3.632812 -3.734375 3.4375 -3.859375 C 3.238281 -3.984375 3.015625 -4.046875 2.765625 -4.046875 C 2.523438 -4.046875 2.304688 -3.984375 2.109375 -3.859375 C 1.910156 -3.734375 1.75 -3.554688 1.625 -3.328125 C 1.507812 -3.109375 1.453125 -2.847656 1.453125 -2.546875 C 1.453125 -2.253906 1.507812 -1.992188 1.625 -1.765625 C 1.75 -1.546875 1.910156 -1.375 2.109375 -1.25 C 2.304688 -1.125 2.523438 -1.0625 2.765625 -1.0625 Z M 2.765625 -1.0625 "/></g></g></g><g fill="#ffffff" fill-opacity="1"><g transform="translate(79.147622, 16.952784)"><g><path d="M 1.671875 0 L 0.515625 0 L 0.515625 -5.109375 L 1.9375 -5.109375 L 3.53125 -2.046875 L 3.6875 -2.046875 L 3.6875 -5.109375 L 4.859375 -5.109375 L 4.859375 0 L 3.421875 0 L 1.828125 -3.0625 L 1.671875 -3.0625 Z M 1.671875 0 "/></g></g></g><g fill="#ffffff" fill-opacity="1"><g transform="translate(84.967673, 16.952784)"><g/></g></g><g fill="#ffffff" fill-opacity="1"><g transform="translate(87.396501, 16.952784)"><g><path d="M 2.328125 0.078125 C 1.890625 0.078125 1.507812 0.00390625 1.1875 -0.140625 C 0.875 -0.296875 0.632812 -0.503906 0.46875 -0.765625 C 0.300781 -1.035156 0.21875 -1.335938 0.21875 -1.671875 L 1.390625 -1.671875 C 1.390625 -1.460938 1.46875 -1.289062 1.625 -1.15625 C 1.789062 -1.019531 2.023438 -0.953125 2.328125 -0.953125 C 2.617188 -0.953125 2.835938 -1 2.984375 -1.09375 C 3.128906 -1.195312 3.203125 -1.332031 3.203125 -1.5 C 3.203125 -1.632812 3.144531 -1.742188 3.03125 -1.828125 C 2.925781 -1.921875 2.742188 -1.992188 2.484375 -2.046875 L 1.671875 -2.1875 C 1.222656 -2.269531 0.882812 -2.425781 0.65625 -2.65625 C 0.4375 -2.894531 0.328125 -3.210938 0.328125 -3.609375 C 0.328125 -3.910156 0.398438 -4.175781 0.546875 -4.40625 C 0.703125 -4.644531 0.925781 -4.832031 1.21875 -4.96875 C 1.507812 -5.113281 1.859375 -5.1875 2.265625 -5.1875 C 2.703125 -5.1875 3.078125 -5.109375 3.390625 -4.953125 C 3.703125 -4.804688 3.9375 -4.601562 4.09375 -4.34375 C 4.257812 -4.082031 4.34375 -3.773438 4.34375 -3.421875 L 3.171875 -3.421875 C 3.171875 -3.628906 3.085938 -3.800781 2.921875 -3.9375 C 2.753906 -4.082031 2.535156 -4.15625 2.265625 -4.15625 C 2.015625 -4.15625 1.820312 -4.101562 1.6875 -4 C 1.5625 -3.894531 1.5 -3.765625 1.5 -3.609375 C 1.5 -3.484375 1.539062 -3.382812 1.625 -3.3125 C 1.71875 -3.238281 1.878906 -3.179688 2.109375 -3.140625 L 2.921875 -2.984375 C 3.429688 -2.898438 3.800781 -2.738281 4.03125 -2.5 C 4.257812 -2.269531 4.375 -1.9375 4.375 -1.5 C 4.375 -1.195312 4.296875 -0.925781 4.140625 -0.6875 C 3.984375 -0.445312 3.75 -0.257812 3.4375 -0.125 C 3.132812 0.0078125 2.765625 0.078125 2.328125 0.078125 Z M 2.328125 0.078125 "/></g></g></g><g fill="#ffffff" fill-opacity="1"><g transform="translate(92.523719, 16.952784)"><g><path d="M 1.671875 0 L 0.515625 0 L 0.515625 -5.109375 L 1.671875 -5.109375 L 1.671875 -3.171875 L 3.640625 -3.171875 L 3.640625 -5.109375 L 4.8125 -5.109375 L 4.8125 0 L 3.640625 0 L 3.640625 -1.96875 L 1.671875 -1.96875 Z M 1.671875 0 "/></g></g></g><g fill="#ffffff" fill-opacity="1"><g transform="translate(98.307301, 16.952784)"><g><path d="M 4.015625 0 L 0.515625 0 L 0.515625 -5.109375 L 4.015625 -5.109375 L 4.015625 -4.046875 L 1.671875 -4.046875 L 1.671875 -3.0625 L 3.875 -3.0625 L 3.875 -2.046875 L 1.671875 -2.046875 L 1.671875 -1.0625 L 4.015625 -1.0625 Z M 4.015625 0 "/></g></g></g><g fill="#ffffff" fill-opacity="1"><g transform="translate(103.142804, 16.952784)"><g><path d="M 4.015625 0 L 0.515625 0 L 0.515625 -5.109375 L 4.015625 -5.109375 L 4.015625 -4.046875 L 1.671875 -4.046875 L 1.671875 -3.0625 L 3.875 -3.0625 L 3.875 -2.046875 L 1.671875 -2.046875 L 1.671875 -1.0625 L 4.015625 -1.0625 Z M 4.015625 0 "/></g></g></g><g fill="#ffffff" fill-opacity="1"><g transform="translate(107.978306, 16.952784)"><g><path d="M 2.734375 0 L 1.5625 0 L 1.5625 -3.984375 L 0.140625 -3.984375 L 0.140625 -5.109375 L 4.15625 -5.109375 L 4.15625 -3.984375 L 2.734375 -3.984375 Z M 2.734375 0 "/></g></g></g><g fill="#ffffff" fill-opacity="1"><g transform="translate(112.740878, 16.952784)"><g><path d="M 2.328125 0.078125 C 1.890625 0.078125 1.507812 0.00390625 1.1875 -0.140625 C 0.875 -0.296875 0.632812 -0.503906 0.46875 -0.765625 C 0.300781 -1.035156 0.21875 -1.335938 0.21875 -1.671875 L 1.390625 -1.671875 C 1.390625 -1.460938 1.46875 -1.289062 1.625 -1.15625 C 1.789062 -1.019531 2.023438 -0.953125 2.328125 -0.953125 C 2.617188 -0.953125 2.835938 -1 2.984375 -1.09375 C 3.128906 -1.195312 3.203125 -1.332031 3.203125 -1.5 C 3.203125 -1.632812 3.144531 -1.742188 3.03125 -1.828125 C 2.925781 -1.921875 2.742188 -1.992188 2.484375 -2.046875 L 1.671875 -2.1875 C 1.222656 -2.269531 0.882812 -2.425781 0.65625 -2.65625 C 0.4375 -2.894531 0.328125 -3.210938 0.328125 -3.609375 C 0.328125 -3.910156 0.398438 -4.175781 0.546875 -4.40625 C 0.703125 -4.644531 0.925781 -4.832031 1.21875 -4.96875 C 1.507812 -5.113281 1.859375 -5.1875 2.265625 -5.1875 C 2.703125 -5.1875 3.078125 -5.109375 3.390625 -4.953125 C 3.703125 -4.804688 3.9375 -4.601562 4.09375 -4.34375 C 4.257812 -4.082031 4.34375 -3.773438 4.34375 -3.421875 L 3.171875 -3.421875 C 3.171875 -3.628906 3.085938 -3.800781 2.921875 -3.9375 C 2.753906 -4.082031 2.535156 -4.15625 2.265625 -4.15625 C 2.015625 -4.15625 1.820312 -4.101562 1.6875 -4 C 1.5625 -3.894531 1.5 -3.765625 1.5 -3.609375 C 1.5 -3.484375 1.539062 -3.382812 1.625 -3.3125 C 1.71875 -3.238281 1.878906 -3.179688 2.109375 -3.140625 L 2.921875 -2.984375 C 3.429688 -2.898438 3.800781 -2.738281 4.03125 -2.5 C 4.257812 -2.269531 4.375 -1.9375 4.375 -1.5 C 4.375 -1.195312 4.296875 -0.925781 4.140625 -0.6875 C 3.984375 -0.445312 3.75 -0.257812 3.4375 -0.125 C 3.132812 0.0078125 2.765625 0.078125 2.328125 0.078125 Z M 2.328125 0.078125 "/></g></g></g></g></g><g transform="matrix(1, 0, 0, 1, 102, 202)"><g clip-path="url(#9c1221a08f)"><g fill="#ffffff" fill-opacity="1"><g transform="translate(0.736448, 8.220589)"><g><path d="M 1.171875 0 L 0.578125 0 L 0.578125 -5.109375 L 1.171875 -5.109375 Z M 1.171875 0 "/></g></g></g><g fill="#ffffff" fill-opacity="1"><g transform="translate(2.946491, 8.220589)"><g><path d="M 1.171875 0 L 0.578125 0 L 0.578125 -5.109375 L 1.5625 -5.109375 L 3.875 -0.6875 L 4.015625 -0.6875 L 4.015625 -5.109375 L 4.59375 -5.109375 L 4.59375 0 L 3.609375 0 L 1.3125 -4.421875 L 1.171875 -4.421875 Z M 1.171875 0 "/></g></g></g><g fill="#ffffff" fill-opacity="1"><g transform="translate(8.584218, 8.220589)"><g><path d="M 0.578125 0 L 0.578125 -5.109375 L 2.296875 -5.109375 C 2.765625 -5.109375 3.179688 -5 3.546875 -4.78125 C 3.921875 -4.5625 4.210938 -4.257812 4.421875 -3.875 C 4.640625 -3.488281 4.75 -3.046875 4.75 -2.546875 C 4.75 -2.054688 4.640625 -1.617188 4.421875 -1.234375 C 4.210938 -0.847656 3.921875 -0.546875 3.546875 -0.328125 C 3.179688 -0.109375 2.765625 0 2.296875 0 Z M 2.296875 -0.546875 C 2.648438 -0.546875 2.96875 -0.628906 3.25 -0.796875 C 3.53125 -0.960938 3.75 -1.195312 3.90625 -1.5 C 4.070312 -1.8125 4.15625 -2.160156 4.15625 -2.546875 C 4.15625 -2.941406 4.070312 -3.289062 3.90625 -3.59375 C 3.75 -3.90625 3.53125 -4.144531 3.25 -4.3125 C 2.96875 -4.476562 2.648438 -4.5625 2.296875 -4.5625 L 1.171875 -4.5625 L 1.171875 -0.546875 Z M 2.296875 -0.546875 "/></g></g></g><g fill="#ffffff" fill-opacity="1"><g transform="translate(14.149015, 8.220589)"><g><path d="M 1.171875 0 L 0.578125 0 L 0.578125 -5.109375 L 1.171875 -5.109375 Z M 1.171875 0 "/></g></g></g><g fill="#ffffff" fill-opacity="1"><g transform="translate(16.359058, 8.220589)"><g><path d="M 2.8125 0 L 1.9375 0 L 0.078125 -5.109375 L 0.6875 -5.109375 L 2.296875 -0.625 L 2.4375 -0.625 L 4.046875 -5.109375 L 4.671875 -5.109375 Z M 2.8125 0 "/></g></g></g><g fill="#ffffff" fill-opacity="1"><g transform="translate(21.559208, 8.220589)"><g><path d="M 1.171875 0 L 0.578125 0 L 0.578125 -5.109375 L 1.171875 -5.109375 Z M 1.171875 0 "/></g></g></g><g fill="#ffffff" fill-opacity="1"><g transform="translate(23.769251, 8.220589)"><g><path d="M 0.578125 0 L 0.578125 -5.109375 L 2.296875 -5.109375 C 2.765625 -5.109375 3.179688 -5 3.546875 -4.78125 C 3.921875 -4.5625 4.210938 -4.257812 4.421875 -3.875 C 4.640625 -3.488281 4.75 -3.046875 4.75 -2.546875 C 4.75 -2.054688 4.640625 -1.617188 4.421875 -1.234375 C 4.210938 -0.847656 3.921875 -0.546875 3.546875 -0.328125 C 3.179688 -0.109375 2.765625 0 2.296875 0 Z M 2.296875 -0.546875 C 2.648438 -0.546875 2.96875 -0.628906 3.25 -0.796875 C 3.53125 -0.960938 3.75 -1.195312 3.90625 -1.5 C 4.070312 -1.8125 4.15625 -2.160156 4.15625 -2.546875 C 4.15625 -2.941406 4.070312 -3.289062 3.90625 -3.59375 C 3.75 -3.90625 3.53125 -4.144531 3.25 -4.3125 C 2.96875 -4.476562 2.648438 -4.5625 2.296875 -4.5625 L 1.171875 -4.5625 L 1.171875 -0.546875 Z M 2.296875 -0.546875 "/></g></g></g><g fill="#ffffff" fill-opacity="1"><g transform="translate(29.334047, 8.220589)"><g><path d="M 2.515625 0.078125 C 2.140625 0.078125 1.796875 -0.0078125 1.484375 -0.1875 C 1.179688 -0.363281 0.941406 -0.609375 0.765625 -0.921875 C 0.597656 -1.242188 0.515625 -1.601562 0.515625 -2 L 0.515625 -5.109375 L 1.09375 -5.109375 L 1.09375 -2 C 1.09375 -1.707031 1.15625 -1.441406 1.28125 -1.203125 C 1.40625 -0.972656 1.570312 -0.789062 1.78125 -0.65625 C 2 -0.53125 2.242188 -0.46875 2.515625 -0.46875 C 2.785156 -0.46875 3.023438 -0.53125 3.234375 -0.65625 C 3.453125 -0.789062 3.625 -0.972656 3.75 -1.203125 C 3.875 -1.441406 3.9375 -1.707031 3.9375 -2 L 3.9375 -5.109375 L 4.53125 -5.109375 L 4.53125 -2 C 4.53125 -1.601562 4.441406 -1.242188 4.265625 -0.921875 C 4.085938 -0.609375 3.84375 -0.363281 3.53125 -0.1875 C 3.226562 -0.0078125 2.890625 0.078125 2.515625 0.078125 Z M 2.515625 0.078125 "/></g></g></g><g fill="#ffffff" fill-opacity="1"><g transform="translate(34.825913, 8.220589)"><g><path d="M 4.75 0 L 4.125 0 L 3.640625 -1.3125 L 1.109375 -1.3125 L 0.625 0 L 0 0 L 1.9375 -5.109375 L 2.8125 -5.109375 Z M 2.296875 -4.484375 L 1.3125 -1.859375 L 3.421875 -1.859375 L 2.4375 -4.484375 Z M 2.296875 -4.484375 "/></g></g></g><g fill="#ffffff" fill-opacity="1"><g transform="translate(40.026062, 8.220589)"><g><path d="M 3.71875 0 L 0.578125 0 L 0.578125 -5.109375 L 1.171875 -5.109375 L 1.171875 -0.546875 L 3.71875 -0.546875 Z M 3.71875 0 "/></g></g></g><g fill="#ffffff" fill-opacity="1"><g transform="translate(44.351056, 8.220589)"><g/></g></g><g fill="#ffffff" fill-opacity="1"><g transform="translate(46.488168, 8.220589)"><g><path d="M 1.171875 0 L 0.578125 0 L 0.578125 -5.109375 L 1.171875 -5.109375 Z M 1.171875 0 "/></g></g></g><g fill="#ffffff" fill-opacity="1"><g transform="translate(48.698211, 8.220589)"><g><path d="M 1.171875 0 L 0.578125 0 L 0.578125 -5.109375 L 1.5625 -5.109375 L 3.875 -0.6875 L 4.015625 -0.6875 L 4.015625 -5.109375 L 4.59375 -5.109375 L 4.59375 0 L 3.609375 0 L 1.3125 -4.421875 L 1.171875 -4.421875 Z M 1.171875 0 "/></g></g></g><g fill="#ffffff" fill-opacity="1"><g transform="translate(54.335939, 8.220589)"><g><path d="M 2.4375 0 L 1.859375 0 L 1.859375 -4.5625 L 0.1875 -4.5625 L 0.1875 -5.109375 L 4.125 -5.109375 L 4.125 -4.5625 L 2.4375 -4.5625 Z M 2.4375 0 "/></g></g></g><g fill="#ffffff" fill-opacity="1"><g transform="translate(59.09851, 8.220589)"><g><path d="M 3.875 0 L 0.578125 0 L 0.578125 -5.109375 L 3.875 -5.109375 L 3.875 -4.5625 L 1.171875 -4.5625 L 1.171875 -2.84375 L 3.71875 -2.84375 L 3.71875 -2.296875 L 1.171875 -2.296875 L 1.171875 -0.546875 L 3.875 -0.546875 Z M 3.875 0 "/></g></g></g><g fill="#ffffff" fill-opacity="1"><g transform="translate(63.824621, 8.220589)"><g><path d="M 2.984375 -2.625 L 5.109375 -2.625 L 5.109375 0 L 4.640625 0 L 4.5625 -0.734375 L 4.53125 -0.734375 C 4.363281 -0.523438 4.125 -0.335938 3.8125 -0.171875 C 3.507812 -0.00390625 3.175781 0.078125 2.8125 0.078125 C 2.363281 0.078125 1.953125 -0.03125 1.578125 -0.25 C 1.203125 -0.476562 0.90625 -0.789062 0.6875 -1.1875 C 0.46875 -1.582031 0.359375 -2.035156 0.359375 -2.546875 C 0.359375 -3.054688 0.46875 -3.507812 0.6875 -3.90625 C 0.90625 -4.3125 1.203125 -4.625 1.578125 -4.84375 C 1.953125 -5.070312 2.363281 -5.1875 2.8125 -5.1875 C 3.320312 -5.1875 3.785156 -5.039062 4.203125 -4.75 C 4.617188 -4.457031 4.910156 -4.066406 5.078125 -3.578125 L 4.453125 -3.578125 C 4.304688 -3.898438 4.082031 -4.15625 3.78125 -4.34375 C 3.476562 -4.539062 3.15625 -4.640625 2.8125 -4.640625 C 2.46875 -4.640625 2.148438 -4.550781 1.859375 -4.375 C 1.578125 -4.195312 1.351562 -3.945312 1.1875 -3.625 C 1.03125 -3.3125 0.953125 -2.953125 0.953125 -2.546875 C 0.953125 -2.148438 1.03125 -1.789062 1.1875 -1.46875 C 1.351562 -1.15625 1.578125 -0.910156 1.859375 -0.734375 C 2.148438 -0.554688 2.46875 -0.46875 2.8125 -0.46875 C 3.101562 -0.46875 3.378906 -0.539062 3.640625 -0.6875 C 3.910156 -0.84375 4.125 -1.039062 4.28125 -1.28125 C 4.445312 -1.53125 4.53125 -1.785156 4.53125 -2.046875 L 4.53125 -2.109375 L 2.984375 -2.109375 Z M 2.984375 -2.625 "/></g></g></g><g fill="#ffffff" fill-opacity="1"><g transform="translate(69.899926, 8.220589)"><g><path d="M 2.328125 -1.96875 L 4.375 0 L 3.640625 0 L 1.609375 -1.96875 L 1.171875 -1.96875 L 1.171875 0 L 0.578125 0 L 0.578125 -5.109375 L 2.8125 -5.109375 C 3.070312 -5.109375 3.3125 -5.039062 3.53125 -4.90625 C 3.757812 -4.769531 3.9375 -4.582031 4.0625 -4.34375 C 4.195312 -4.101562 4.265625 -3.832031 4.265625 -3.53125 C 4.265625 -3.238281 4.195312 -2.972656 4.0625 -2.734375 C 3.9375 -2.492188 3.757812 -2.304688 3.53125 -2.171875 C 3.3125 -2.035156 3.070312 -1.96875 2.8125 -1.96875 Z M 1.171875 -2.515625 L 2.8125 -2.515625 C 3.050781 -2.515625 3.253906 -2.609375 3.421875 -2.796875 C 3.597656 -2.992188 3.6875 -3.238281 3.6875 -3.53125 C 3.6875 -3.832031 3.597656 -4.078125 3.421875 -4.265625 C 3.253906 -4.460938 3.050781 -4.5625 2.8125 -4.5625 L 1.171875 -4.5625 Z M 1.171875 -2.515625 "/></g></g></g><g fill="#ffffff" fill-opacity="1"><g transform="translate(75.027145, 8.220589)"><g><path d="M 4.75 0 L 4.125 0 L 3.640625 -1.3125 L 1.109375 -1.3125 L 0.625 0 L 0 0 L 1.9375 -5.109375 L 2.8125 -5.109375 Z M 2.296875 -4.484375 L 1.3125 -1.859375 L 3.421875 -1.859375 L 2.4375 -4.484375 Z M 2.296875 -4.484375 "/></g></g></g><g fill="#ffffff" fill-opacity="1"><g transform="translate(80.227294, 8.220589)"><g><path d="M 2.4375 0 L 1.859375 0 L 1.859375 -4.5625 L 0.1875 -4.5625 L 0.1875 -5.109375 L 4.125 -5.109375 L 4.125 -4.5625 L 2.4375 -4.5625 Z M 2.4375 0 "/></g></g></g><g fill="#ffffff" fill-opacity="1"><g transform="translate(84.989866, 8.220589)"><g><path d="M 1.171875 0 L 0.578125 0 L 0.578125 -5.109375 L 1.171875 -5.109375 Z M 1.171875 0 "/></g></g></g><g fill="#ffffff" fill-opacity="1"><g transform="translate(87.199909, 8.220589)"><g><path d="M 1.171875 0 L 0.578125 0 L 0.578125 -5.109375 L 1.5625 -5.109375 L 3.875 -0.6875 L 4.015625 -0.6875 L 4.015625 -5.109375 L 4.59375 -5.109375 L 4.59375 0 L 3.609375 0 L 1.3125 -4.421875 L 1.171875 -4.421875 Z M 1.171875 0 "/></g></g></g><g fill="#ffffff" fill-opacity="1"><g transform="translate(92.837637, 8.220589)"><g><path d="M 2.984375 -2.625 L 5.109375 -2.625 L 5.109375 0 L 4.640625 0 L 4.5625 -0.734375 L 4.53125 -0.734375 C 4.363281 -0.523438 4.125 -0.335938 3.8125 -0.171875 C 3.507812 -0.00390625 3.175781 0.078125 2.8125 0.078125 C 2.363281 0.078125 1.953125 -0.03125 1.578125 -0.25 C 1.203125 -0.476562 0.90625 -0.789062 0.6875 -1.1875 C 0.46875 -1.582031 0.359375 -2.035156 0.359375 -2.546875 C 0.359375 -3.054688 0.46875 -3.507812 0.6875 -3.90625 C 0.90625 -4.3125 1.203125 -4.625 1.578125 -4.84375 C 1.953125 -5.070312 2.363281 -5.1875 2.8125 -5.1875 C 3.320312 -5.1875 3.785156 -5.039062 4.203125 -4.75 C 4.617188 -4.457031 4.910156 -4.066406 5.078125 -3.578125 L 4.453125 -3.578125 C 4.304688 -3.898438 4.082031 -4.15625 3.78125 -4.34375 C 3.476562 -4.539062 3.15625 -4.640625 2.8125 -4.640625 C 2.46875 -4.640625 2.148438 -4.550781 1.859375 -4.375 C 1.578125 -4.195312 1.351562 -3.945312 1.1875 -3.625 C 1.03125 -3.3125 0.953125 -2.953125 0.953125 -2.546875 C 0.953125 -2.148438 1.03125 -1.789062 1.1875 -1.46875 C 1.351562 -1.15625 1.578125 -0.910156 1.859375 -0.734375 C 2.148438 -0.554688 2.46875 -0.46875 2.8125 -0.46875 C 3.101562 -0.46875 3.378906 -0.539062 3.640625 -0.6875 C 3.910156 -0.84375 4.125 -1.039062 4.28125 -1.28125 C 4.445312 -1.53125 4.53125 -1.785156 4.53125 -2.046875 L 4.53125 -2.109375 L 2.984375 -2.109375 Z M 2.984375 -2.625 "/></g></g></g><g fill="#ffffff" fill-opacity="1"><g transform="translate(98.912942, 8.220589)"><g/></g></g><g fill="#ffffff" fill-opacity="1"><g transform="translate(101.050054, 8.220589)"><g><path d="M 0.578125 0 L 0.578125 -5.109375 L 2.8125 -5.109375 C 3.070312 -5.109375 3.3125 -5.039062 3.53125 -4.90625 C 3.757812 -4.769531 3.9375 -4.582031 4.0625 -4.34375 C 4.195312 -4.101562 4.265625 -3.832031 4.265625 -3.53125 C 4.265625 -3.238281 4.195312 -2.972656 4.0625 -2.734375 C 3.9375 -2.492188 3.757812 -2.304688 3.53125 -2.171875 C 3.3125 -2.035156 3.070312 -1.96875 2.8125 -1.96875 L 1.171875 -1.96875 L 1.171875 0 Z M 2.8125 -2.515625 C 3.050781 -2.515625 3.253906 -2.609375 3.421875 -2.796875 C 3.597656 -2.992188 3.6875 -3.238281 3.6875 -3.53125 C 3.6875 -3.832031 3.597656 -4.078125 3.421875 -4.265625 C 3.253906 -4.460938 3.050781 -4.5625 2.8125 -4.5625 L 1.171875 -4.5625 L 1.171875 -2.515625 Z M 2.8125 -2.515625 "/></g></g></g><g fill="#ffffff" fill-opacity="1"><g transform="translate(106.140811, 8.220589)"><g><path d="M 2.328125 -1.96875 L 4.375 0 L 3.640625 0 L 1.609375 -1.96875 L 1.171875 -1.96875 L 1.171875 0 L 0.578125 0 L 0.578125 -5.109375 L 2.8125 -5.109375 C 3.070312 -5.109375 3.3125 -5.039062 3.53125 -4.90625 C 3.757812 -4.769531 3.9375 -4.582031 4.0625 -4.34375 C 4.195312 -4.101562 4.265625 -3.832031 4.265625 -3.53125 C 4.265625 -3.238281 4.195312 -2.972656 4.0625 -2.734375 C 3.9375 -2.492188 3.757812 -2.304688 3.53125 -2.171875 C 3.3125 -2.035156 3.070312 -1.96875 2.8125 -1.96875 Z M 1.171875 -2.515625 L 2.8125 -2.515625 C 3.050781 -2.515625 3.253906 -2.609375 3.421875 -2.796875 C 3.597656 -2.992188 3.6875 -3.238281 3.6875 -3.53125 C 3.6875 -3.832031 3.597656 -4.078125 3.421875 -4.265625 C 3.253906 -4.460938 3.050781 -4.5625 2.8125 -4.5625 L 1.171875 -4.5625 Z M 1.171875 -2.515625 "/></g></g></g><g fill="#ffffff" fill-opacity="1"><g transform="translate(111.26803, 8.220589)"><g><path d="M 2.8125 0.078125 C 2.363281 0.078125 1.953125 -0.03125 1.578125 -0.25 C 1.203125 -0.476562 0.90625 -0.789062 0.6875 -1.1875 C 0.46875 -1.582031 0.359375 -2.035156 0.359375 -2.546875 C 0.359375 -3.054688 0.46875 -3.507812 0.6875 -3.90625 C 0.90625 -4.3125 1.203125 -4.625 1.578125 -4.84375 C 1.953125 -5.070312 2.363281 -5.1875 2.8125 -5.1875 C 3.257812 -5.1875 3.671875 -5.070312 4.046875 -4.84375 C 4.421875 -4.625 4.710938 -4.3125 4.921875 -3.90625 C 5.140625 -3.507812 5.25 -3.054688 5.25 -2.546875 C 5.25 -2.035156 5.140625 -1.582031 4.921875 -1.1875 C 4.710938 -0.789062 4.421875 -0.476562 4.046875 -0.25 C 3.671875 -0.03125 3.257812 0.078125 2.8125 0.078125 Z M 2.8125 -0.46875 C 3.144531 -0.46875 3.453125 -0.554688 3.734375 -0.734375 C 4.023438 -0.910156 4.253906 -1.15625 4.421875 -1.46875 C 4.585938 -1.789062 4.671875 -2.148438 4.671875 -2.546875 C 4.671875 -2.953125 4.585938 -3.3125 4.421875 -3.625 C 4.253906 -3.945312 4.023438 -4.195312 3.734375 -4.375 C 3.453125 -4.550781 3.144531 -4.640625 2.8125 -4.640625 C 2.46875 -4.640625 2.148438 -4.550781 1.859375 -4.375 C 1.578125 -4.195312 1.351562 -3.945312 1.1875 -3.625 C 1.03125 -3.3125 0.953125 -2.953125 0.953125 -2.546875 C 0.953125 -2.148438 1.03125 -1.789062 1.1875 -1.46875 C 1.351562 -1.15625 1.578125 -0.910156 1.859375 -0.734375 C 2.148438 -0.554688 2.46875 -0.46875 2.8125 -0.46875 Z M 2.8125 -0.46875 "/></g></g></g><g fill="#ffffff" fill-opacity="1"><g transform="translate(117.343335, 8.220589)"><g><path d="M 0.078125 0 L 0.078125 -0.546875 L 1.3125 -0.546875 C 1.425781 -0.546875 1.515625 -0.578125 1.578125 -0.640625 C 1.640625 -0.710938 1.671875 -0.800781 1.671875 -0.90625 L 1.671875 -5.109375 L 2.265625 -5.109375 L 2.265625 -0.84375 C 2.265625 -0.570312 2.1875 -0.363281 2.03125 -0.21875 C 1.882812 -0.0703125 1.671875 0 1.390625 0 Z M 0.078125 0 "/></g></g></g><g fill="#ffffff" fill-opacity="1"><g transform="translate(120.61085, 8.220589)"><g><path d="M 3.875 0 L 0.578125 0 L 0.578125 -5.109375 L 3.875 -5.109375 L 3.875 -4.5625 L 1.171875 -4.5625 L 1.171875 -2.84375 L 3.71875 -2.84375 L 3.71875 -2.296875 L 1.171875 -2.296875 L 1.171875 -0.546875 L 3.875 -0.546875 Z M 3.875 0 "/></g></g></g><g fill="#ffffff" fill-opacity="1"><g transform="translate(125.33696, 8.220589)"><g><path d="M 2.8125 0.078125 C 2.363281 0.078125 1.953125 -0.03125 1.578125 -0.25 C 1.203125 -0.476562 0.90625 -0.789062 0.6875 -1.1875 C 0.46875 -1.582031 0.359375 -2.035156 0.359375 -2.546875 C 0.359375 -3.054688 0.46875 -3.507812 0.6875 -3.90625 C 0.90625 -4.3125 1.203125 -4.625 1.578125 -4.84375 C 1.953125 -5.070312 2.363281 -5.1875 2.8125 -5.1875 C 3.363281 -5.1875 3.84375 -5.03125 4.25 -4.71875 C 4.65625 -4.414062 4.929688 -4 5.078125 -3.46875 L 4.453125 -3.46875 C 4.328125 -3.832031 4.117188 -4.117188 3.828125 -4.328125 C 3.535156 -4.535156 3.195312 -4.640625 2.8125 -4.640625 C 2.46875 -4.640625 2.148438 -4.550781 1.859375 -4.375 C 1.578125 -4.195312 1.351562 -3.945312 1.1875 -3.625 C 1.03125 -3.3125 0.953125 -2.953125 0.953125 -2.546875 C 0.953125 -2.148438 1.03125 -1.789062 1.1875 -1.46875 C 1.351562 -1.15625 1.578125 -0.910156 1.859375 -0.734375 C 2.148438 -0.554688 2.46875 -0.46875 2.8125 -0.46875 C 3.195312 -0.46875 3.535156 -0.570312 3.828125 -0.78125 C 4.117188 -1 4.328125 -1.296875 4.453125 -1.671875 L 5.078125 -1.671875 C 4.929688 -1.128906 4.65625 -0.703125 4.25 -0.390625 C 3.84375 -0.078125 3.363281 0.078125 2.8125 0.078125 Z M 2.8125 0.078125 "/></g></g></g><g fill="#ffffff" fill-opacity="1"><g transform="translate(131.120542, 8.220589)"><g><path d="M 2.4375 0 L 1.859375 0 L 1.859375 -4.5625 L 0.1875 -4.5625 L 0.1875 -5.109375 L 4.125 -5.109375 L 4.125 -4.5625 L 2.4375 -4.5625 Z M 2.4375 0 "/></g></g></g><g fill="#ffffff" fill-opacity="1"><g transform="translate(0.736448, 17.166235)"><g><path d="M 0.515625 0 L 0.515625 -5.109375 L 2.40625 -5.109375 C 2.863281 -5.109375 3.28125 -4.992188 3.65625 -4.765625 C 4.039062 -4.546875 4.34375 -4.238281 4.5625 -3.84375 C 4.78125 -3.457031 4.890625 -3.023438 4.890625 -2.546875 C 4.890625 -2.078125 4.78125 -1.644531 4.5625 -1.25 C 4.34375 -0.863281 4.039062 -0.554688 3.65625 -0.328125 C 3.28125 -0.109375 2.863281 0 2.40625 0 Z M 2.40625 -1.125 C 2.644531 -1.125 2.863281 -1.1875 3.0625 -1.3125 C 3.269531 -1.4375 3.429688 -1.601562 3.546875 -1.8125 C 3.660156 -2.03125 3.71875 -2.273438 3.71875 -2.546875 C 3.71875 -2.828125 3.660156 -3.070312 3.546875 -3.28125 C 3.429688 -3.5 3.269531 -3.671875 3.0625 -3.796875 C 2.863281 -3.921875 2.644531 -3.984375 2.40625 -3.984375 L 1.671875 -3.984375 L 1.671875 -1.125 Z M 2.40625 -1.125 "/></g></g></g><g fill="#ffffff" fill-opacity="1"><g transform="translate(6.374176, 17.166235)"><g><path d="M 4.75 0 L 3.296875 0 L 1.859375 -1.640625 L 1.671875 -1.640625 L 1.671875 0 L 0.515625 0 L 0.515625 -5.109375 L 2.921875 -5.109375 C 3.253906 -5.109375 3.546875 -5.03125 3.796875 -4.875 C 4.046875 -4.726562 4.238281 -4.523438 4.375 -4.265625 C 4.519531 -4.003906 4.59375 -3.695312 4.59375 -3.34375 C 4.59375 -3.039062 4.53125 -2.765625 4.40625 -2.515625 C 4.28125 -2.265625 4.113281 -2.0625 3.90625 -1.90625 C 3.695312 -1.757812 3.46875 -1.679688 3.21875 -1.671875 Z M 1.671875 -2.703125 L 2.859375 -2.703125 C 3.015625 -2.703125 3.144531 -2.765625 3.25 -2.890625 C 3.363281 -3.015625 3.421875 -3.171875 3.421875 -3.359375 C 3.421875 -3.546875 3.363281 -3.703125 3.25 -3.828125 C 3.144531 -3.953125 3.015625 -4.015625 2.859375 -4.015625 L 1.671875 -4.015625 Z M 1.671875 -2.703125 "/></g></g></g><g fill="#ffffff" fill-opacity="1"><g transform="translate(11.79311, 17.166235)"><g><path d="M 1.671875 0 L 0.515625 0 L 0.515625 -5.109375 L 1.671875 -5.109375 Z M 1.671875 0 "/></g></g></g><g fill="#ffffff" fill-opacity="1"><g transform="translate(14.440723, 17.166235)"><g><path d="M 0.515625 0 L 0.515625 -5.109375 L 2.875 -5.109375 C 3.207031 -5.109375 3.5 -5.035156 3.75 -4.890625 C 4.007812 -4.742188 4.207031 -4.535156 4.34375 -4.265625 C 4.488281 -3.992188 4.5625 -3.679688 4.5625 -3.328125 C 4.5625 -2.960938 4.488281 -2.644531 4.34375 -2.375 C 4.207031 -2.101562 4.007812 -1.894531 3.75 -1.75 C 3.5 -1.601562 3.207031 -1.53125 2.875 -1.53125 L 1.671875 -1.53125 L 1.671875 0 Z M 2.8125 -2.65625 C 2.976562 -2.65625 3.113281 -2.710938 3.21875 -2.828125 C 3.332031 -2.953125 3.390625 -3.113281 3.390625 -3.3125 C 3.390625 -3.519531 3.332031 -3.679688 3.21875 -3.796875 C 3.113281 -3.921875 2.976562 -3.984375 2.8125 -3.984375 L 1.671875 -3.984375 L 1.671875 -2.65625 Z M 2.8125 -2.65625 "/></g></g></g><g fill="#ffffff" fill-opacity="1"><g transform="translate(19.713804, 17.166235)"><g/></g></g><g fill="#ffffff" fill-opacity="1"><g transform="translate(22.142632, 17.166235)"><g><path d="M 2.765625 0.078125 C 2.316406 0.078125 1.898438 -0.0351562 1.515625 -0.265625 C 1.140625 -0.492188 0.84375 -0.804688 0.625 -1.203125 C 0.40625 -1.597656 0.296875 -2.046875 0.296875 -2.546875 C 0.296875 -3.054688 0.40625 -3.507812 0.625 -3.90625 C 0.84375 -4.300781 1.140625 -4.613281 1.515625 -4.84375 C 1.898438 -5.070312 2.316406 -5.1875 2.765625 -5.1875 C 3.210938 -5.1875 3.601562 -5.082031 3.9375 -4.875 C 4.269531 -4.675781 4.53125 -4.425781 4.71875 -4.125 C 4.914062 -3.820312 5.046875 -3.515625 5.109375 -3.203125 L 3.9375 -3.203125 C 3.882812 -3.421875 3.753906 -3.613281 3.546875 -3.78125 C 3.347656 -3.957031 3.085938 -4.046875 2.765625 -4.046875 C 2.523438 -4.046875 2.304688 -3.984375 2.109375 -3.859375 C 1.910156 -3.734375 1.75 -3.554688 1.625 -3.328125 C 1.507812 -3.109375 1.453125 -2.847656 1.453125 -2.546875 C 1.453125 -2.253906 1.507812 -1.992188 1.625 -1.765625 C 1.75 -1.546875 1.910156 -1.375 2.109375 -1.25 C 2.304688 -1.125 2.523438 -1.0625 2.765625 -1.0625 C 3.097656 -1.0625 3.363281 -1.148438 3.5625 -1.328125 C 3.769531 -1.503906 3.894531 -1.707031 3.9375 -1.9375 L 5.109375 -1.9375 C 5.054688 -1.613281 4.9375 -1.300781 4.75 -1 C 4.5625 -0.695312 4.296875 -0.441406 3.953125 -0.234375 C 3.617188 -0.0234375 3.222656 0.078125 2.765625 0.078125 Z M 2.765625 0.078125 "/></g></g></g><g fill="#ffffff" fill-opacity="1"><g transform="translate(27.926213, 17.166235)"><g><path d="M 2.765625 0.078125 C 2.316406 0.078125 1.898438 -0.0351562 1.515625 -0.265625 C 1.140625 -0.492188 0.84375 -0.804688 0.625 -1.203125 C 0.40625 -1.597656 0.296875 -2.046875 0.296875 -2.546875 C 0.296875 -3.054688 0.40625 -3.507812 0.625 -3.90625 C 0.84375 -4.300781 1.140625 -4.613281 1.515625 -4.84375 C 1.898438 -5.070312 2.316406 -5.1875 2.765625 -5.1875 C 3.222656 -5.1875 3.640625 -5.070312 4.015625 -4.84375 C 4.398438 -4.613281 4.703125 -4.300781 4.921875 -3.90625 C 5.140625 -3.507812 5.25 -3.054688 5.25 -2.546875 C 5.25 -2.046875 5.140625 -1.597656 4.921875 -1.203125 C 4.703125 -0.804688 4.398438 -0.492188 4.015625 -0.265625 C 3.640625 -0.0351562 3.222656 0.078125 2.765625 0.078125 Z M 2.765625 -1.0625 C 3.015625 -1.0625 3.238281 -1.125 3.4375 -1.25 C 3.632812 -1.375 3.789062 -1.546875 3.90625 -1.765625 C 4.03125 -1.992188 4.09375 -2.253906 4.09375 -2.546875 C 4.09375 -2.847656 4.03125 -3.109375 3.90625 -3.328125 C 3.789062 -3.554688 3.632812 -3.734375 3.4375 -3.859375 C 3.238281 -3.984375 3.015625 -4.046875 2.765625 -4.046875 C 2.523438 -4.046875 2.304688 -3.984375 2.109375 -3.859375 C 1.910156 -3.734375 1.75 -3.554688 1.625 -3.328125 C 1.507812 -3.109375 1.453125 -2.847656 1.453125 -2.546875 C 1.453125 -2.253906 1.507812 -1.992188 1.625 -1.765625 C 1.75 -1.546875 1.910156 -1.375 2.109375 -1.25 C 2.304688 -1.125 2.523438 -1.0625 2.765625 -1.0625 Z M 2.765625 -1.0625 "/></g></g></g><g fill="#ffffff" fill-opacity="1"><g transform="translate(33.928588, 17.166235)"><g><path d="M 1.671875 0 L 0.515625 0 L 0.515625 -5.109375 L 3.984375 -5.109375 L 3.984375 -4.046875 L 1.671875 -4.046875 L 1.671875 -3.03125 L 3.796875 -3.03125 L 3.796875 -2 L 1.671875 -2 Z M 1.671875 0 "/></g></g></g><g fill="#ffffff" fill-opacity="1"><g transform="translate(38.654698, 17.166235)"><g><path d="M 1.671875 0 L 0.515625 0 L 0.515625 -5.109375 L 3.984375 -5.109375 L 3.984375 -4.046875 L 1.671875 -4.046875 L 1.671875 -3.03125 L 3.796875 -3.03125 L 3.796875 -2 L 1.671875 -2 Z M 1.671875 0 "/></g></g></g><g fill="#ffffff" fill-opacity="1"><g transform="translate(43.380808, 17.166235)"><g><path d="M 4.015625 0 L 0.515625 0 L 0.515625 -5.109375 L 4.015625 -5.109375 L 4.015625 -4.046875 L 1.671875 -4.046875 L 1.671875 -3.0625 L 3.875 -3.0625 L 3.875 -2.046875 L 1.671875 -2.046875 L 1.671875 -1.0625 L 4.015625 -1.0625 Z M 4.015625 0 "/></g></g></g><g fill="#ffffff" fill-opacity="1"><g transform="translate(48.216311, 17.166235)"><g><path d="M 4.015625 0 L 0.515625 0 L 0.515625 -5.109375 L 4.015625 -5.109375 L 4.015625 -4.046875 L 1.671875 -4.046875 L 1.671875 -3.0625 L 3.875 -3.0625 L 3.875 -2.046875 L 1.671875 -2.046875 L 1.671875 -1.0625 L 4.015625 -1.0625 Z M 4.015625 0 "/></g></g></g><g fill="#ffffff" fill-opacity="1"><g transform="translate(53.051814, 17.166235)"><g/></g></g><g fill="#ffffff" fill-opacity="1"><g transform="translate(55.480641, 17.166235)"><g><path d="M 1.671875 0 L 0.515625 0 L 0.515625 -5.109375 L 2.296875 -5.109375 L 3.3125 -1.9375 L 3.46875 -1.9375 L 4.484375 -5.109375 L 6.28125 -5.109375 L 6.28125 0 L 5.109375 0 L 5.109375 -3.140625 L 4.96875 -3.140625 L 3.9375 0 L 2.84375 0 L 1.828125 -3.140625 L 1.671875 -3.140625 Z M 1.671875 0 "/></g></g></g><g fill="#ffffff" fill-opacity="1"><g transform="translate(62.722819, 17.166235)"><g><path d="M 5.140625 0 L 3.875 0 L 3.53125 -1.015625 L 1.5625 -1.015625 L 1.234375 0 L -0.03125 0 L 1.71875 -5.109375 L 3.390625 -5.109375 Z M 2.484375 -3.875 L 1.890625 -2.046875 L 3.203125 -2.046875 L 2.625 -3.875 Z M 2.484375 -3.875 "/></g></g></g><g fill="#ffffff" fill-opacity="1"><g transform="translate(68.287615, 17.166235)"><g><path d="M 2.765625 0.078125 C 2.316406 0.078125 1.898438 -0.0351562 1.515625 -0.265625 C 1.140625 -0.492188 0.84375 -0.804688 0.625 -1.203125 C 0.40625 -1.597656 0.296875 -2.046875 0.296875 -2.546875 C 0.296875 -3.054688 0.40625 -3.507812 0.625 -3.90625 C 0.84375 -4.300781 1.140625 -4.613281 1.515625 -4.84375 C 1.898438 -5.070312 2.316406 -5.1875 2.765625 -5.1875 C 3.210938 -5.1875 3.601562 -5.082031 3.9375 -4.875 C 4.269531 -4.675781 4.53125 -4.425781 4.71875 -4.125 C 4.914062 -3.820312 5.046875 -3.515625 5.109375 -3.203125 L 3.9375 -3.203125 C 3.882812 -3.421875 3.753906 -3.613281 3.546875 -3.78125 C 3.347656 -3.957031 3.085938 -4.046875 2.765625 -4.046875 C 2.523438 -4.046875 2.304688 -3.984375 2.109375 -3.859375 C 1.910156 -3.734375 1.75 -3.554688 1.625 -3.328125 C 1.507812 -3.109375 1.453125 -2.847656 1.453125 -2.546875 C 1.453125 -2.253906 1.507812 -1.992188 1.625 -1.765625 C 1.75 -1.546875 1.910156 -1.375 2.109375 -1.25 C 2.304688 -1.125 2.523438 -1.0625 2.765625 -1.0625 C 3.097656 -1.0625 3.363281 -1.148438 3.5625 -1.328125 C 3.769531 -1.503906 3.894531 -1.707031 3.9375 -1.9375 L 5.109375 -1.9375 C 5.054688 -1.613281 4.9375 -1.300781 4.75 -1 C 4.5625 -0.695312 4.296875 -0.441406 3.953125 -0.234375 C 3.617188 -0.0234375 3.222656 0.078125 2.765625 0.078125 Z M 2.765625 0.078125 "/></g></g></g><g fill="#ffffff" fill-opacity="1"><g transform="translate(74.071197, 17.166235)"><g><path d="M 1.671875 0 L 0.515625 0 L 0.515625 -5.109375 L 1.671875 -5.109375 L 1.671875 -3.171875 L 3.640625 -3.171875 L 3.640625 -5.109375 L 4.8125 -5.109375 L 4.8125 0 L 3.640625 0 L 3.640625 -1.96875 L 1.671875 -1.96875 Z M 1.671875 0 "/></g></g></g><g fill="#ffffff" fill-opacity="1"><g transform="translate(79.854779, 17.166235)"><g><path d="M 1.671875 0 L 0.515625 0 L 0.515625 -5.109375 L 1.671875 -5.109375 Z M 1.671875 0 "/></g></g></g><g fill="#ffffff" fill-opacity="1"><g transform="translate(82.502391, 17.166235)"><g><path d="M 1.671875 0 L 0.515625 0 L 0.515625 -5.109375 L 1.9375 -5.109375 L 3.53125 -2.046875 L 3.6875 -2.046875 L 3.6875 -5.109375 L 4.859375 -5.109375 L 4.859375 0 L 3.421875 0 L 1.828125 -3.0625 L 1.671875 -3.0625 Z M 1.671875 0 "/></g></g></g><g fill="#ffffff" fill-opacity="1"><g transform="translate(88.322443, 17.166235)"><g><path d="M 4.015625 0 L 0.515625 0 L 0.515625 -5.109375 L 4.015625 -5.109375 L 4.015625 -4.046875 L 1.671875 -4.046875 L 1.671875 -3.0625 L 3.875 -3.0625 L 3.875 -2.046875 L 1.671875 -2.046875 L 1.671875 -1.0625 L 4.015625 -1.0625 Z M 4.015625 0 "/></g></g></g></g></g></svg>