<svg xmlns="http://www.w3.org/2000/svg" xmlns:xlink="http://www.w3.org/1999/xlink" width="1366" zoomAndPan="magnify" viewBox="0 0 1024.5 843.75" height="1125" preserveAspectRatio="xMidYMid meet" version="1.0"><defs><g/><clipPath id="7391f2b242"><path d="M 0 0.0820312 L 1024 0.0820312 L 1024 843.417969 L 0 843.417969 Z M 0 0.0820312 " clip-rule="nonzero"/></clipPath><clipPath id="e79ac586cd"><path d="M 1.015625 0.75 L 167.070312 0.75 L 167.070312 7.390625 L 1.015625 7.390625 Z M 1.015625 0.75 " clip-rule="nonzero"/></clipPath><clipPath id="994bf1e71b"><path d="M 0.015625 0.75 L 166.070312 0.75 L 166.070312 7.390625 L 0.015625 7.390625 Z M 0.015625 0.75 " clip-rule="nonzero"/></clipPath><clipPath id="42f0c626f2"><rect x="0" width="167" y="0" height="8"/></clipPath><clipPath id="8fdd7fc929"><path d="M 1.015625 0.75 L 108.949219 0.75 L 108.949219 7.390625 L 1.015625 7.390625 Z M 1.015625 0.75 " clip-rule="nonzero"/></clipPath><clipPath id="19b4978753"><path d="M 0.015625 0.75 L 107.949219 0.75 L 107.949219 7.390625 L 0.015625 7.390625 Z M 0.015625 0.75 " clip-rule="nonzero"/></clipPath><clipPath id="16165ce041"><rect x="0" width="108" y="0" height="8"/></clipPath><clipPath id="459c55a4e1"><rect x="0" width="168" y="0" height="8"/></clipPath><clipPath id="47b55f1670"><path d="M 1.015625 1.117188 L 167.070312 1.117188 L 167.070312 7.757812 L 1.015625 7.757812 Z M 1.015625 1.117188 " clip-rule="nonzero"/></clipPath><clipPath id="e448c51377"><path d="M 0.015625 0.117188 L 166.070312 0.117188 L 166.070312 6.757812 L 0.015625 6.757812 Z M 0.015625 0.117188 " clip-rule="nonzero"/></clipPath><clipPath id="60627b9f41"><rect x="0" width="167" y="0" height="7"/></clipPath><clipPath id="ce43912f79"><path d="M 1.015625 1.117188 L 117.253906 1.117188 L 117.253906 7.757812 L 1.015625 7.757812 Z M 1.015625 1.117188 " clip-rule="nonzero"/></clipPath><clipPath id="4bdb3c1c5c"><path d="M 0.015625 0.117188 L 116.253906 0.117188 L 116.253906 6.757812 L 0.015625 6.757812 Z M 0.015625 0.117188 " clip-rule="nonzero"/></clipPath><clipPath id="6638a9ff95"><rect x="0" width="117" y="0" height="7"/></clipPath><clipPath id="5d82531261"><rect x="0" width="168" y="0" height="8"/></clipPath><clipPath id="57ff7f59b4"><path d="M 1.085938 0.613281 L 167.140625 0.613281 L 167.140625 7.257812 L 1.085938 7.257812 Z M 1.085938 0.613281 " clip-rule="nonzero"/></clipPath><clipPath id="164cd7aac6"><path d="M 0.0859375 0.613281 L 166.140625 0.613281 L 166.140625 7.257812 L 0.0859375 7.257812 Z M 0.0859375 0.613281 " clip-rule="nonzero"/></clipPath><clipPath id="8e2e1382b2"><rect x="0" width="167" y="0" height="8"/></clipPath><clipPath id="f2f72ad1e6"><path d="M 1.085938 0.613281 L 125.625 0.613281 L 125.625 7.257812 L 1.085938 7.257812 Z M 1.085938 0.613281 " clip-rule="nonzero"/></clipPath><clipPath id="0effadd7dd"><path d="M 0.0859375 0.613281 L 124.625 0.613281 L 124.625 7.257812 L 0.0859375 7.257812 Z M 0.0859375 0.613281 " clip-rule="nonzero"/></clipPath><clipPath id="a243cabcba"><rect x="0" width="125" y="0" height="8"/></clipPath><clipPath id="63043c452b"><rect x="0" width="168" y="0" height="8"/></clipPath><clipPath id="21b2d0c9c9"><path d="M 1.085938 1.113281 L 167.140625 1.113281 L 167.140625 7.757812 L 1.085938 7.757812 Z M 1.085938 1.113281 " clip-rule="nonzero"/></clipPath><clipPath id="476d8a78b2"><path d="M 0.0859375 0.113281 L 166.140625 0.113281 L 166.140625 6.757812 L 0.0859375 6.757812 Z M 0.0859375 0.113281 " clip-rule="nonzero"/></clipPath><clipPath id="19066af655"><rect x="0" width="167" y="0" height="7"/></clipPath><clipPath id="b34b9d6ced"><path d="M 1.085938 1.113281 L 125.625 1.113281 L 125.625 7.757812 L 1.085938 7.757812 Z M 1.085938 1.113281 " clip-rule="nonzero"/></clipPath><clipPath id="647ac03a3a"><path d="M 0.0859375 0.113281 L 124.625 0.113281 L 124.625 6.757812 L 0.0859375 6.757812 Z M 0.0859375 0.113281 " clip-rule="nonzero"/></clipPath><clipPath id="c274fe3f38"><rect x="0" width="125" y="0" height="7"/></clipPath><clipPath id="0428be6a10"><rect x="0" width="168" y="0" height="8"/></clipPath><clipPath id="53eeef09aa"><path d="M 1.015625 0.265625 L 167.070312 0.265625 L 167.070312 6.90625 L 1.015625 6.90625 Z M 1.015625 0.265625 " clip-rule="nonzero"/></clipPath><clipPath id="bd51b64f03"><path d="M 0.015625 0.265625 L 166.070312 0.265625 L 166.070312 6.90625 L 0.015625 6.90625 Z M 0.015625 0.265625 " clip-rule="nonzero"/></clipPath><clipPath id="69a5dcc7eb"><rect x="0" width="167" y="0" height="7"/></clipPath><clipPath id="60b6f41c3a"><path d="M 1.015625 0.265625 L 150.464844 0.265625 L 150.464844 6.90625 L 1.015625 6.90625 Z M 1.015625 0.265625 " clip-rule="nonzero"/></clipPath><clipPath id="a0cede60cc"><path d="M 0.015625 0.265625 L 149.464844 0.265625 L 149.464844 6.90625 L 0.015625 6.90625 Z M 0.015625 0.265625 " clip-rule="nonzero"/></clipPath><clipPath id="bd52abb9ea"><rect x="0" width="150" y="0" height="7"/></clipPath><clipPath id="25948b36c3"><rect x="0" width="168" y="0" height="8"/></clipPath></defs><g clip-path="url(#7391f2b242)"><path fill="#ffffff" d="M 0 0.0820312 L 1024 0.0820312 L 1024 843.417969 L 0 843.417969 Z M 0 0.0820312 " fill-opacity="1" fill-rule="nonzero"/><path fill="#ffffff" d="M 0 0.0820312 L 1024 0.0820312 L 1024 843.417969 L 0 843.417969 Z M 0 0.0820312 " fill-opacity="1" fill-rule="nonzero"/></g><g transform="matrix(1, 0, 0, 1, 776, 443)"><g clip-path="url(#459c55a4e1)"><g clip-path="url(#e79ac586cd)"><g transform="matrix(1, 0, 0, 1, 1, 0)"><g clip-path="url(#42f0c626f2)"><g clip-path="url(#994bf1e71b)"><path fill="#817b54" d="M 0.015625 0.75 L 166.070312 0.75 L 166.070312 7.390625 L 0.015625 7.390625 Z M 0.015625 0.75 " fill-opacity="1" fill-rule="nonzero"/></g></g></g></g><g clip-path="url(#8fdd7fc929)"><g transform="matrix(1, 0, 0, 1, 1, 0)"><g clip-path="url(#16165ce041)"><g clip-path="url(#19b4978753)"><path fill="#41452f" d="M 0.015625 0.75 L 166.070312 0.75 L 166.070312 7.390625 L 0.015625 7.390625 Z M 0.015625 0.75 " fill-opacity="1" fill-rule="nonzero"/></g></g></g></g></g></g><g transform="matrix(1, 0, 0, 1, 776, 505)"><g clip-path="url(#5d82531261)"><g clip-path="url(#47b55f1670)"><g transform="matrix(1, 0, 0, 1, 1, 1)"><g clip-path="url(#60627b9f41)"><g clip-path="url(#e448c51377)"><path fill="#817b54" d="M 0.015625 0.117188 L 166.070312 0.117188 L 166.070312 6.757812 L 0.015625 6.757812 Z M 0.015625 0.117188 " fill-opacity="1" fill-rule="nonzero"/></g></g></g></g><g clip-path="url(#ce43912f79)"><g transform="matrix(1, 0, 0, 1, 1, 1)"><g clip-path="url(#6638a9ff95)"><g clip-path="url(#4bdb3c1c5c)"><path fill="#41452f" d="M 0.015625 0.117188 L 166.070312 0.117188 L 166.070312 6.757812 L 0.015625 6.757812 Z M 0.015625 0.117188 " fill-opacity="1" fill-rule="nonzero"/></g></g></g></g></g></g><g transform="matrix(1, 0, 0, 1, 777, 571)"><g clip-path="url(#63043c452b)"><g clip-path="url(#57ff7f59b4)"><g transform="matrix(1, 0, 0, 1, 1, 0)"><g clip-path="url(#8e2e1382b2)"><g clip-path="url(#164cd7aac6)"><path fill="#817b54" d="M 0.0859375 0.613281 L 166.140625 0.613281 L 166.140625 7.257812 L 0.0859375 7.257812 Z M 0.0859375 0.613281 " fill-opacity="1" fill-rule="nonzero"/></g></g></g></g><g clip-path="url(#f2f72ad1e6)"><g transform="matrix(1, 0, 0, 1, 1, 0)"><g clip-path="url(#a243cabcba)"><g clip-path="url(#0effadd7dd)"><path fill="#41452f" d="M 0.0859375 0.613281 L 166.140625 0.613281 L 166.140625 7.257812 L 0.0859375 7.257812 Z M 0.0859375 0.613281 " fill-opacity="1" fill-rule="nonzero"/></g></g></g></g></g></g><g transform="matrix(1, 0, 0, 1, 777, 636)"><g clip-path="url(#0428be6a10)"><g clip-path="url(#21b2d0c9c9)"><g transform="matrix(1, 0, 0, 1, 1, 1)"><g clip-path="url(#19066af655)"><g clip-path="url(#476d8a78b2)"><path fill="#817b54" d="M 0.0859375 0.113281 L 166.140625 0.113281 L 166.140625 6.757812 L 0.0859375 6.757812 Z M 0.0859375 0.113281 " fill-opacity="1" fill-rule="nonzero"/></g></g></g></g><g clip-path="url(#b34b9d6ced)"><g transform="matrix(1, 0, 0, 1, 1, 1)"><g clip-path="url(#c274fe3f38)"><g clip-path="url(#647ac03a3a)"><path fill="#41452f" d="M 0.0859375 0.113281 L 166.140625 0.113281 L 166.140625 6.757812 L 0.0859375 6.757812 Z M 0.0859375 0.113281 " fill-opacity="1" fill-rule="nonzero"/></g></g></g></g></g></g><g transform="matrix(1, 0, 0, 1, 776, 700)"><g clip-path="url(#25948b36c3)"><g clip-path="url(#53eeef09aa)"><g transform="matrix(1, 0, 0, 1, 1, 0)"><g clip-path="url(#69a5dcc7eb)"><g clip-path="url(#bd51b64f03)"><path fill="#817b54" d="M 0.015625 0.265625 L 166.070312 0.265625 L 166.070312 6.90625 L 0.015625 6.90625 Z M 0.015625 0.265625 " fill-opacity="1" fill-rule="nonzero"/></g></g></g></g><g clip-path="url(#60b6f41c3a)"><g transform="matrix(1, 0, 0, 1, 1, 0)"><g clip-path="url(#bd52abb9ea)"><g clip-path="url(#a0cede60cc)"><path fill="#41452f" d="M 0.015625 0.265625 L 166.070312 0.265625 L 166.070312 6.90625 L 0.015625 6.90625 Z M 0.015625 0.265625 " fill-opacity="1" fill-rule="nonzero"/></g></g></g></g></g></g><g fill="#000000" fill-opacity="1"><g transform="translate(665.668545, 450.817329)"><g><path d="M 2.765625 0.09375 C 1.929688 0.09375 1.34375 -0.148438 1 -0.640625 C 0.664062 -1.140625 0.5 -1.828125 0.5 -2.703125 L 0.5 -5.671875 C 0.5 -6.597656 0.664062 -7.296875 1 -7.765625 C 1.332031 -8.242188 1.921875 -8.484375 2.765625 -8.484375 C 3.515625 -8.484375 4.054688 -8.28125 4.390625 -7.875 C 4.722656 -7.46875 4.890625 -6.863281 4.890625 -6.0625 L 4.890625 -5.40625 L 3.765625 -5.40625 L 3.765625 -6 C 3.765625 -6.382812 3.75 -6.679688 3.71875 -6.890625 C 3.6875 -7.097656 3.597656 -7.265625 3.453125 -7.390625 C 3.304688 -7.515625 3.082031 -7.578125 2.78125 -7.578125 C 2.457031 -7.578125 2.21875 -7.507812 2.0625 -7.375 C 1.90625 -7.238281 1.800781 -7.050781 1.75 -6.8125 C 1.707031 -6.570312 1.6875 -6.25 1.6875 -5.84375 L 1.6875 -2.515625 C 1.6875 -2.085938 1.71875 -1.75 1.78125 -1.5 C 1.851562 -1.257812 1.96875 -1.085938 2.125 -0.984375 C 2.28125 -0.878906 2.5 -0.828125 2.78125 -0.828125 C 3.070312 -0.828125 3.289062 -0.890625 3.4375 -1.015625 C 3.582031 -1.148438 3.671875 -1.332031 3.703125 -1.5625 C 3.742188 -1.789062 3.765625 -2.101562 3.765625 -2.5 L 3.765625 -3.125 L 4.890625 -3.125 L 4.890625 -2.5 C 4.890625 -1.664062 4.726562 -1.023438 4.40625 -0.578125 C 4.09375 -0.128906 3.546875 0.09375 2.765625 0.09375 Z M 2.765625 0.09375 "/></g></g></g><g fill="#000000" fill-opacity="1"><g transform="translate(671.674003, 450.817329)"><g><path d="M 2.8125 0.09375 C 1.976562 0.09375 1.382812 -0.140625 1.03125 -0.609375 C 0.675781 -1.078125 0.5 -1.753906 0.5 -2.640625 L 0.5 -5.828125 C 0.5 -6.703125 0.675781 -7.363281 1.03125 -7.8125 C 1.394531 -8.257812 1.988281 -8.484375 2.8125 -8.484375 C 3.625 -8.484375 4.207031 -8.253906 4.5625 -7.796875 C 4.925781 -7.347656 5.109375 -6.691406 5.109375 -5.828125 L 5.109375 -2.625 C 5.109375 -1.75 4.925781 -1.078125 4.5625 -0.609375 C 4.195312 -0.140625 3.613281 0.09375 2.8125 0.09375 Z M 2.8125 -0.828125 C 3.238281 -0.828125 3.53125 -0.953125 3.6875 -1.203125 C 3.84375 -1.460938 3.921875 -1.851562 3.921875 -2.375 L 3.921875 -6.0625 C 3.921875 -6.582031 3.84375 -6.960938 3.6875 -7.203125 C 3.53125 -7.453125 3.238281 -7.578125 2.8125 -7.578125 C 2.363281 -7.578125 2.0625 -7.453125 1.90625 -7.203125 C 1.757812 -6.960938 1.6875 -6.582031 1.6875 -6.0625 L 1.6875 -2.375 C 1.6875 -1.851562 1.757812 -1.460938 1.90625 -1.203125 C 2.0625 -0.953125 2.363281 -0.828125 2.8125 -0.828125 Z M 2.8125 -0.828125 "/></g></g></g><g fill="#000000" fill-opacity="1"><g transform="translate(677.928808, 450.817329)"><g><path d="M 0.796875 -8.421875 L 1.9375 -8.421875 L 3.421875 -1.59375 L 4.921875 -8.421875 L 6.0625 -8.421875 L 6.21875 0 L 5.28125 0 L 5.1875 -6.109375 L 3.765625 0 L 3.09375 0 L 1.6875 -6.109375 L 1.59375 0 L 0.640625 0 Z M 0.796875 -8.421875 "/></g></g></g><g fill="#000000" fill-opacity="1"><g transform="translate(685.440729, 450.817329)"><g><path d="M 0.796875 -8.421875 L 1.9375 -8.421875 L 3.421875 -1.59375 L 4.921875 -8.421875 L 6.0625 -8.421875 L 6.21875 0 L 5.28125 0 L 5.1875 -6.109375 L 3.765625 0 L 3.09375 0 L 1.6875 -6.109375 L 1.59375 0 L 0.640625 0 Z M 0.796875 -8.421875 "/></g></g></g><g fill="#000000" fill-opacity="1"><g transform="translate(692.952649, 450.817329)"><g><path d="M 2.828125 0.09375 C 2.234375 0.09375 1.769531 -0.0195312 1.4375 -0.25 C 1.113281 -0.488281 0.890625 -0.816406 0.765625 -1.234375 C 0.640625 -1.660156 0.578125 -2.195312 0.578125 -2.84375 L 0.578125 -8.421875 L 1.703125 -8.421875 L 1.703125 -2.78125 C 1.703125 -2.144531 1.773438 -1.660156 1.921875 -1.328125 C 2.078125 -0.992188 2.378906 -0.828125 2.828125 -0.828125 C 3.273438 -0.828125 3.570312 -0.992188 3.71875 -1.328125 C 3.875 -1.660156 3.953125 -2.144531 3.953125 -2.78125 L 3.953125 -8.421875 L 5.0625 -8.421875 L 5.0625 -2.84375 C 5.0625 -2.195312 5 -1.660156 4.875 -1.234375 C 4.75 -0.816406 4.519531 -0.488281 4.1875 -0.25 C 3.863281 -0.0195312 3.410156 0.09375 2.828125 0.09375 Z M 2.828125 0.09375 "/></g></g></g><g fill="#000000" fill-opacity="1"><g transform="translate(699.24901, 450.817329)"><g><path d="M 0.65625 -8.421875 L 1.453125 -8.421875 L 3.84375 -2.828125 L 3.84375 -8.421875 L 4.828125 -8.421875 L 4.828125 0 L 4.078125 0 L 1.65625 -5.75 L 1.65625 0 L 0.65625 0 Z M 0.65625 -8.421875 "/></g></g></g><g fill="#000000" fill-opacity="1"><g transform="translate(705.389534, 450.817329)"><g><path d="M 0.71875 -8.421875 L 1.875 -8.421875 L 1.875 0 L 0.71875 0 Z M 0.71875 -8.421875 "/></g></g></g><g fill="#000000" fill-opacity="1"><g transform="translate(708.621027, 450.817329)"><g><path d="M 2.765625 0.09375 C 1.929688 0.09375 1.34375 -0.148438 1 -0.640625 C 0.664062 -1.140625 0.5 -1.828125 0.5 -2.703125 L 0.5 -5.671875 C 0.5 -6.597656 0.664062 -7.296875 1 -7.765625 C 1.332031 -8.242188 1.921875 -8.484375 2.765625 -8.484375 C 3.515625 -8.484375 4.054688 -8.28125 4.390625 -7.875 C 4.722656 -7.46875 4.890625 -6.863281 4.890625 -6.0625 L 4.890625 -5.40625 L 3.765625 -5.40625 L 3.765625 -6 C 3.765625 -6.382812 3.75 -6.679688 3.71875 -6.890625 C 3.6875 -7.097656 3.597656 -7.265625 3.453125 -7.390625 C 3.304688 -7.515625 3.082031 -7.578125 2.78125 -7.578125 C 2.457031 -7.578125 2.21875 -7.507812 2.0625 -7.375 C 1.90625 -7.238281 1.800781 -7.050781 1.75 -6.8125 C 1.707031 -6.570312 1.6875 -6.25 1.6875 -5.84375 L 1.6875 -2.515625 C 1.6875 -2.085938 1.71875 -1.75 1.78125 -1.5 C 1.851562 -1.257812 1.96875 -1.085938 2.125 -0.984375 C 2.28125 -0.878906 2.5 -0.828125 2.78125 -0.828125 C 3.070312 -0.828125 3.289062 -0.890625 3.4375 -1.015625 C 3.582031 -1.148438 3.671875 -1.332031 3.703125 -1.5625 C 3.742188 -1.789062 3.765625 -2.101562 3.765625 -2.5 L 3.765625 -3.125 L 4.890625 -3.125 L 4.890625 -2.5 C 4.890625 -1.664062 4.726562 -1.023438 4.40625 -0.578125 C 4.09375 -0.128906 3.546875 0.09375 2.765625 0.09375 Z M 2.765625 0.09375 "/></g></g></g><g fill="#000000" fill-opacity="1"><g transform="translate(714.626484, 450.817329)"><g><path d="M 1.984375 -8.421875 L 3.109375 -8.421875 L 4.921875 0 L 3.796875 0 L 3.421875 -2.125 L 1.703125 -2.125 L 1.296875 0 L 0.203125 0 Z M 3.265625 -2.96875 L 2.5625 -6.75 L 1.859375 -2.96875 Z M 3.265625 -2.96875 "/></g></g></g><g fill="#000000" fill-opacity="1"><g transform="translate(720.39298, 450.817329)"><g><path d="M 1.578125 -7.546875 L 0.15625 -7.546875 L 0.15625 -8.421875 L 4.140625 -8.421875 L 4.140625 -7.546875 L 2.75 -7.546875 L 2.75 0 L 1.578125 0 Z M 1.578125 -7.546875 "/></g></g></g><g fill="#000000" fill-opacity="1"><g transform="translate(725.338716, 450.817329)"><g><path d="M 0.71875 -8.421875 L 1.875 -8.421875 L 1.875 0 L 0.71875 0 Z M 0.71875 -8.421875 "/></g></g></g><g fill="#000000" fill-opacity="1"><g transform="translate(728.57021, 450.817329)"><g><path d="M 2.8125 0.09375 C 1.976562 0.09375 1.382812 -0.140625 1.03125 -0.609375 C 0.675781 -1.078125 0.5 -1.753906 0.5 -2.640625 L 0.5 -5.828125 C 0.5 -6.703125 0.675781 -7.363281 1.03125 -7.8125 C 1.394531 -8.257812 1.988281 -8.484375 2.8125 -8.484375 C 3.625 -8.484375 4.207031 -8.253906 4.5625 -7.796875 C 4.925781 -7.347656 5.109375 -6.691406 5.109375 -5.828125 L 5.109375 -2.625 C 5.109375 -1.75 4.925781 -1.078125 4.5625 -0.609375 C 4.195312 -0.140625 3.613281 0.09375 2.8125 0.09375 Z M 2.8125 -0.828125 C 3.238281 -0.828125 3.53125 -0.953125 3.6875 -1.203125 C 3.84375 -1.460938 3.921875 -1.851562 3.921875 -2.375 L 3.921875 -6.0625 C 3.921875 -6.582031 3.84375 -6.960938 3.6875 -7.203125 C 3.53125 -7.453125 3.238281 -7.578125 2.8125 -7.578125 C 2.363281 -7.578125 2.0625 -7.453125 1.90625 -7.203125 C 1.757812 -6.960938 1.6875 -6.582031 1.6875 -6.0625 L 1.6875 -2.375 C 1.6875 -1.851562 1.757812 -1.460938 1.90625 -1.203125 C 2.0625 -0.953125 2.363281 -0.828125 2.8125 -0.828125 Z M 2.8125 -0.828125 "/></g></g></g><g fill="#000000" fill-opacity="1"><g transform="translate(734.825015, 450.817329)"><g><path d="M 0.65625 -8.421875 L 1.453125 -8.421875 L 3.84375 -2.828125 L 3.84375 -8.421875 L 4.828125 -8.421875 L 4.828125 0 L 4.078125 0 L 1.65625 -5.75 L 1.65625 0 L 0.65625 0 Z M 0.65625 -8.421875 "/></g></g></g><g fill="#000000" fill-opacity="1"><g transform="translate(665.668545, 513.184824)"><g><path d="M 0.71875 -8.421875 L 1.875 -8.421875 L 1.875 0 L 0.71875 0 Z M 0.71875 -8.421875 "/></g></g></g><g fill="#000000" fill-opacity="1"><g transform="translate(668.900039, 513.184824)"><g><path d="M 0.65625 -8.421875 L 1.453125 -8.421875 L 3.84375 -2.828125 L 3.84375 -8.421875 L 4.828125 -8.421875 L 4.828125 0 L 4.078125 0 L 1.65625 -5.75 L 1.65625 0 L 0.65625 0 Z M 0.65625 -8.421875 "/></g></g></g><g fill="#000000" fill-opacity="1"><g transform="translate(675.040562, 513.184824)"><g><path d="M 0.65625 -8.421875 L 1.453125 -8.421875 L 3.84375 -2.828125 L 3.84375 -8.421875 L 4.828125 -8.421875 L 4.828125 0 L 4.078125 0 L 1.65625 -5.75 L 1.65625 0 L 0.65625 0 Z M 0.65625 -8.421875 "/></g></g></g><g fill="#000000" fill-opacity="1"><g transform="translate(681.181085, 513.184824)"><g><path d="M 2.8125 0.09375 C 1.976562 0.09375 1.382812 -0.140625 1.03125 -0.609375 C 0.675781 -1.078125 0.5 -1.753906 0.5 -2.640625 L 0.5 -5.828125 C 0.5 -6.703125 0.675781 -7.363281 1.03125 -7.8125 C 1.394531 -8.257812 1.988281 -8.484375 2.8125 -8.484375 C 3.625 -8.484375 4.207031 -8.253906 4.5625 -7.796875 C 4.925781 -7.347656 5.109375 -6.691406 5.109375 -5.828125 L 5.109375 -2.625 C 5.109375 -1.75 4.925781 -1.078125 4.5625 -0.609375 C 4.195312 -0.140625 3.613281 0.09375 2.8125 0.09375 Z M 2.8125 -0.828125 C 3.238281 -0.828125 3.53125 -0.953125 3.6875 -1.203125 C 3.84375 -1.460938 3.921875 -1.851562 3.921875 -2.375 L 3.921875 -6.0625 C 3.921875 -6.582031 3.84375 -6.960938 3.6875 -7.203125 C 3.53125 -7.453125 3.238281 -7.578125 2.8125 -7.578125 C 2.363281 -7.578125 2.0625 -7.453125 1.90625 -7.203125 C 1.757812 -6.960938 1.6875 -6.582031 1.6875 -6.0625 L 1.6875 -2.375 C 1.6875 -1.851562 1.757812 -1.460938 1.90625 -1.203125 C 2.0625 -0.953125 2.363281 -0.828125 2.8125 -0.828125 Z M 2.8125 -0.828125 "/></g></g></g><g fill="#000000" fill-opacity="1"><g transform="translate(687.43589, 513.184824)"><g><path d="M 0.234375 -8.421875 L 1.34375 -8.421875 L 2.671875 -2.21875 L 3.9375 -8.421875 L 5.015625 -8.421875 L 3.140625 0 L 2.125 0 Z M 0.234375 -8.421875 "/></g></g></g><g fill="#000000" fill-opacity="1"><g transform="translate(693.337452, 513.184824)"><g><path d="M 1.984375 -8.421875 L 3.109375 -8.421875 L 4.921875 0 L 3.796875 0 L 3.421875 -2.125 L 1.703125 -2.125 L 1.296875 0 L 0.203125 0 Z M 3.265625 -2.96875 L 2.5625 -6.75 L 1.859375 -2.96875 Z M 3.265625 -2.96875 "/></g></g></g><g fill="#000000" fill-opacity="1"><g transform="translate(699.103947, 513.184824)"><g><path d="M 1.578125 -7.546875 L 0.15625 -7.546875 L 0.15625 -8.421875 L 4.140625 -8.421875 L 4.140625 -7.546875 L 2.75 -7.546875 L 2.75 0 L 1.578125 0 Z M 1.578125 -7.546875 "/></g></g></g><g fill="#000000" fill-opacity="1"><g transform="translate(704.049684, 513.184824)"><g><path d="M 0.71875 -8.421875 L 1.875 -8.421875 L 1.875 0 L 0.71875 0 Z M 0.71875 -8.421875 "/></g></g></g><g fill="#000000" fill-opacity="1"><g transform="translate(707.281177, 513.184824)"><g><path d="M 0.234375 -8.421875 L 1.34375 -8.421875 L 2.671875 -2.21875 L 3.9375 -8.421875 L 5.015625 -8.421875 L 3.140625 0 L 2.125 0 Z M 0.234375 -8.421875 "/></g></g></g><g fill="#000000" fill-opacity="1"><g transform="translate(713.182738, 513.184824)"><g><path d="M 0.65625 -8.421875 L 3.921875 -8.421875 L 3.921875 -7.546875 L 1.828125 -7.546875 L 1.828125 -4.765625 L 3.515625 -4.765625 L 3.515625 -3.921875 L 1.828125 -3.921875 L 1.828125 -0.84375 L 3.9375 -0.84375 L 3.9375 0 L 0.65625 0 Z M 0.65625 -8.421875 "/></g></g></g><g fill="#000000" fill-opacity="1"><g transform="translate(718.066135, 513.184824)"><g/></g></g><g fill="#000000" fill-opacity="1"><g transform="translate(721.100223, 513.184824)"><g><path d="M 1.578125 -7.546875 L 0.15625 -7.546875 L 0.15625 -8.421875 L 4.140625 -8.421875 L 4.140625 -7.546875 L 2.75 -7.546875 L 2.75 0 L 1.578125 0 Z M 1.578125 -7.546875 "/></g></g></g><g fill="#000000" fill-opacity="1"><g transform="translate(726.045959, 513.184824)"><g><path d="M 0.65625 -8.421875 L 1.828125 -8.421875 L 1.828125 -4.78125 L 3.984375 -4.78125 L 3.984375 -8.421875 L 5.171875 -8.421875 L 5.171875 0 L 3.984375 0 L 3.984375 -3.9375 L 1.828125 -3.9375 L 1.828125 0 L 0.65625 0 Z M 0.65625 -8.421875 "/></g></g></g><g fill="#000000" fill-opacity="1"><g transform="translate(732.529329, 513.184824)"><g><path d="M 0.71875 -8.421875 L 1.875 -8.421875 L 1.875 0 L 0.71875 0 Z M 0.71875 -8.421875 "/></g></g></g><g fill="#000000" fill-opacity="1"><g transform="translate(735.760822, 513.184824)"><g><path d="M 0.65625 -8.421875 L 1.453125 -8.421875 L 3.84375 -2.828125 L 3.84375 -8.421875 L 4.828125 -8.421875 L 4.828125 0 L 4.078125 0 L 1.65625 -5.75 L 1.65625 0 L 0.65625 0 Z M 0.65625 -8.421875 "/></g></g></g><g fill="#000000" fill-opacity="1"><g transform="translate(741.901346, 513.184824)"><g><path d="M 0.65625 -8.421875 L 1.828125 -8.421875 L 1.828125 -4.453125 L 3.765625 -8.421875 L 4.859375 -8.421875 L 3.1875 -4.703125 L 5.125 0 L 3.984375 0 L 2.375 -3.953125 L 1.828125 -2.96875 L 1.828125 0 L 0.65625 0 Z M 0.65625 -8.421875 "/></g></g></g><g fill="#000000" fill-opacity="1"><g transform="translate(747.699011, 513.184824)"><g><path d="M 0.71875 -8.421875 L 1.875 -8.421875 L 1.875 0 L 0.71875 0 Z M 0.71875 -8.421875 "/></g></g></g><g fill="#000000" fill-opacity="1"><g transform="translate(750.930504, 513.184824)"><g><path d="M 0.65625 -8.421875 L 1.453125 -8.421875 L 3.84375 -2.828125 L 3.84375 -8.421875 L 4.828125 -8.421875 L 4.828125 0 L 4.078125 0 L 1.65625 -5.75 L 1.65625 0 L 0.65625 0 Z M 0.65625 -8.421875 "/></g></g></g><g fill="#000000" fill-opacity="1"><g transform="translate(757.071027, 513.184824)"><g><path d="M 2.65625 0.109375 C 1.894531 0.109375 1.34375 -0.128906 1 -0.609375 C 0.664062 -1.097656 0.5 -1.816406 0.5 -2.765625 L 0.5 -5.578125 C 0.5 -6.234375 0.566406 -6.769531 0.703125 -7.1875 C 0.835938 -7.601562 1.066406 -7.921875 1.390625 -8.140625 C 1.722656 -8.367188 2.175781 -8.484375 2.75 -8.484375 C 3.53125 -8.484375 4.09375 -8.285156 4.4375 -7.890625 C 4.78125 -7.492188 4.953125 -6.875 4.953125 -6.03125 L 4.953125 -5.71875 L 3.84375 -5.71875 L 3.84375 -5.984375 C 3.84375 -6.390625 3.816406 -6.703125 3.765625 -6.921875 C 3.722656 -7.140625 3.625 -7.300781 3.46875 -7.40625 C 3.3125 -7.519531 3.082031 -7.578125 2.78125 -7.578125 C 2.445312 -7.578125 2.203125 -7.5 2.046875 -7.34375 C 1.890625 -7.195312 1.785156 -7 1.734375 -6.75 C 1.691406 -6.5 1.671875 -6.164062 1.671875 -5.75 L 1.671875 -2.640625 C 1.671875 -1.992188 1.75 -1.53125 1.90625 -1.25 C 2.0625 -0.96875 2.363281 -0.828125 2.8125 -0.828125 C 3.238281 -0.828125 3.535156 -0.976562 3.703125 -1.28125 C 3.867188 -1.59375 3.953125 -2.082031 3.953125 -2.75 L 3.953125 -3.328125 L 2.875 -3.328125 L 2.875 -4.171875 L 5.015625 -4.171875 L 5.015625 0 L 4.265625 0 L 4.15625 -0.96875 C 3.894531 -0.25 3.394531 0.109375 2.65625 0.109375 Z M 2.65625 0.109375 "/></g></g></g><g fill="#000000" fill-opacity="1"><g transform="translate(666.738399, 578.550808)"><g><path d="M 1.578125 -7.546875 L 0.15625 -7.546875 L 0.15625 -8.421875 L 4.140625 -8.421875 L 4.140625 -7.546875 L 2.75 -7.546875 L 2.75 0 L 1.578125 0 Z M 1.578125 -7.546875 "/></g></g></g><g fill="#000000" fill-opacity="1"><g transform="translate(671.684136, 578.550808)"><g><path d="M 0.65625 -8.421875 L 3.921875 -8.421875 L 3.921875 -7.546875 L 1.828125 -7.546875 L 1.828125 -4.765625 L 3.515625 -4.765625 L 3.515625 -3.921875 L 1.828125 -3.921875 L 1.828125 -0.84375 L 3.9375 -0.84375 L 3.9375 0 L 0.65625 0 Z M 0.65625 -8.421875 "/></g></g></g><g fill="#000000" fill-opacity="1"><g transform="translate(676.567533, 578.550808)"><g><path d="M 1.984375 -8.421875 L 3.109375 -8.421875 L 4.921875 0 L 3.796875 0 L 3.421875 -2.125 L 1.703125 -2.125 L 1.296875 0 L 0.203125 0 Z M 3.265625 -2.96875 L 2.5625 -6.75 L 1.859375 -2.96875 Z M 3.265625 -2.96875 "/></g></g></g><g fill="#000000" fill-opacity="1"><g transform="translate(682.334028, 578.550808)"><g><path d="M 0.796875 -8.421875 L 1.9375 -8.421875 L 3.421875 -1.59375 L 4.921875 -8.421875 L 6.0625 -8.421875 L 6.21875 0 L 5.28125 0 L 5.1875 -6.109375 L 3.765625 0 L 3.09375 0 L 1.6875 -6.109375 L 1.59375 0 L 0.640625 0 Z M 0.796875 -8.421875 "/></g></g></g><g fill="#000000" fill-opacity="1"><g transform="translate(689.845949, 578.550808)"><g><path d="M 0.375 -8.421875 L 1.34375 -8.421875 L 2.25 -2.375 L 3.390625 -8.390625 L 4.21875 -8.390625 L 5.359375 -2.34375 L 6.25 -8.421875 L 7.203125 -8.421875 L 5.84375 0 L 5 0 L 3.828125 -6.234375 L 2.640625 0 L 1.75 0 Z M 0.375 -8.421875 "/></g></g></g><g fill="#000000" fill-opacity="1"><g transform="translate(698.074732, 578.550808)"><g><path d="M 2.8125 0.09375 C 1.976562 0.09375 1.382812 -0.140625 1.03125 -0.609375 C 0.675781 -1.078125 0.5 -1.753906 0.5 -2.640625 L 0.5 -5.828125 C 0.5 -6.703125 0.675781 -7.363281 1.03125 -7.8125 C 1.394531 -8.257812 1.988281 -8.484375 2.8125 -8.484375 C 3.625 -8.484375 4.207031 -8.253906 4.5625 -7.796875 C 4.925781 -7.347656 5.109375 -6.691406 5.109375 -5.828125 L 5.109375 -2.625 C 5.109375 -1.75 4.925781 -1.078125 4.5625 -0.609375 C 4.195312 -0.140625 3.613281 0.09375 2.8125 0.09375 Z M 2.8125 -0.828125 C 3.238281 -0.828125 3.53125 -0.953125 3.6875 -1.203125 C 3.84375 -1.460938 3.921875 -1.851562 3.921875 -2.375 L 3.921875 -6.0625 C 3.921875 -6.582031 3.84375 -6.960938 3.6875 -7.203125 C 3.53125 -7.453125 3.238281 -7.578125 2.8125 -7.578125 C 2.363281 -7.578125 2.0625 -7.453125 1.90625 -7.203125 C 1.757812 -6.960938 1.6875 -6.582031 1.6875 -6.0625 L 1.6875 -2.375 C 1.6875 -1.851562 1.757812 -1.460938 1.90625 -1.203125 C 2.0625 -0.953125 2.363281 -0.828125 2.8125 -0.828125 Z M 2.8125 -0.828125 "/></g></g></g><g fill="#000000" fill-opacity="1"><g transform="translate(704.329537, 578.550808)"><g><path d="M 0.65625 -8.421875 L 2.34375 -8.421875 C 3.195312 -8.421875 3.820312 -8.242188 4.21875 -7.890625 C 4.625 -7.535156 4.828125 -6.96875 4.828125 -6.1875 C 4.828125 -5.101562 4.476562 -4.445312 3.78125 -4.21875 L 4.984375 0 L 3.84375 0 L 2.75 -3.953125 L 1.828125 -3.953125 L 1.828125 0 L 0.65625 0 Z M 2.28125 -4.796875 C 2.78125 -4.796875 3.140625 -4.894531 3.359375 -5.09375 C 3.578125 -5.289062 3.6875 -5.65625 3.6875 -6.1875 C 3.6875 -6.53125 3.644531 -6.800781 3.5625 -7 C 3.488281 -7.195312 3.351562 -7.34375 3.15625 -7.4375 C 2.96875 -7.53125 2.695312 -7.578125 2.34375 -7.578125 L 1.828125 -7.578125 L 1.828125 -4.796875 Z M 2.28125 -4.796875 "/></g></g></g><g fill="#000000" fill-opacity="1"><g transform="translate(710.376551, 578.550808)"><g><path d="M 0.65625 -8.421875 L 1.828125 -8.421875 L 1.828125 -4.453125 L 3.765625 -8.421875 L 4.859375 -8.421875 L 3.1875 -4.703125 L 5.125 0 L 3.984375 0 L 2.375 -3.953125 L 1.828125 -2.96875 L 1.828125 0 L 0.65625 0 Z M 0.65625 -8.421875 "/></g></g></g><g fill="#000000" fill-opacity="1"><g transform="translate(666.738399, 643.916792)"><g><path d="M 0.65625 -8.421875 L 1.828125 -8.421875 L 1.828125 -0.84375 L 3.984375 -0.84375 L 3.984375 0 L 0.65625 0 Z M 0.65625 -8.421875 "/></g></g></g><g fill="#000000" fill-opacity="1"><g transform="translate(671.517912, 643.916792)"><g><path d="M 0.65625 -8.421875 L 3.921875 -8.421875 L 3.921875 -7.546875 L 1.828125 -7.546875 L 1.828125 -4.765625 L 3.515625 -4.765625 L 3.515625 -3.921875 L 1.828125 -3.921875 L 1.828125 -0.84375 L 3.9375 -0.84375 L 3.9375 0 L 0.65625 0 Z M 0.65625 -8.421875 "/></g></g></g><g fill="#000000" fill-opacity="1"><g transform="translate(676.401308, 643.916792)"><g><path d="M 1.984375 -8.421875 L 3.109375 -8.421875 L 4.921875 0 L 3.796875 0 L 3.421875 -2.125 L 1.703125 -2.125 L 1.296875 0 L 0.203125 0 Z M 3.265625 -2.96875 L 2.5625 -6.75 L 1.859375 -2.96875 Z M 3.265625 -2.96875 "/></g></g></g><g fill="#000000" fill-opacity="1"><g transform="translate(682.167804, 643.916792)"><g><path d="M 0.65625 -8.421875 L 2.484375 -8.421875 C 3.390625 -8.421875 4.03125 -8.210938 4.40625 -7.796875 C 4.789062 -7.378906 4.984375 -6.726562 4.984375 -5.84375 L 4.984375 -2.75 C 4.984375 -1.820312 4.796875 -1.128906 4.421875 -0.671875 C 4.046875 -0.222656 3.429688 0 2.578125 0 L 0.65625 0 Z M 2.5 -0.84375 C 2.90625 -0.84375 3.195312 -0.921875 3.375 -1.078125 C 3.5625 -1.234375 3.675781 -1.445312 3.71875 -1.71875 C 3.769531 -2 3.796875 -2.414062 3.796875 -2.96875 L 3.796875 -5.703125 C 3.796875 -6.179688 3.765625 -6.546875 3.703125 -6.796875 C 3.640625 -7.054688 3.515625 -7.242188 3.328125 -7.359375 C 3.148438 -7.484375 2.863281 -7.546875 2.46875 -7.546875 L 1.828125 -7.546875 L 1.828125 -0.84375 Z M 2.5 -0.84375 "/></g></g></g><g fill="#000000" fill-opacity="1"><g transform="translate(688.297929, 643.916792)"><g><path d="M 0.65625 -8.421875 L 3.921875 -8.421875 L 3.921875 -7.546875 L 1.828125 -7.546875 L 1.828125 -4.765625 L 3.515625 -4.765625 L 3.515625 -3.921875 L 1.828125 -3.921875 L 1.828125 -0.84375 L 3.9375 -0.84375 L 3.9375 0 L 0.65625 0 Z M 0.65625 -8.421875 "/></g></g></g><g fill="#000000" fill-opacity="1"><g transform="translate(693.181326, 643.916792)"><g><path d="M 0.65625 -8.421875 L 2.34375 -8.421875 C 3.195312 -8.421875 3.820312 -8.242188 4.21875 -7.890625 C 4.625 -7.535156 4.828125 -6.96875 4.828125 -6.1875 C 4.828125 -5.101562 4.476562 -4.445312 3.78125 -4.21875 L 4.984375 0 L 3.84375 0 L 2.75 -3.953125 L 1.828125 -3.953125 L 1.828125 0 L 0.65625 0 Z M 2.28125 -4.796875 C 2.78125 -4.796875 3.140625 -4.894531 3.359375 -5.09375 C 3.578125 -5.289062 3.6875 -5.65625 3.6875 -6.1875 C 3.6875 -6.53125 3.644531 -6.800781 3.5625 -7 C 3.488281 -7.195312 3.351562 -7.34375 3.15625 -7.4375 C 2.96875 -7.53125 2.695312 -7.578125 2.34375 -7.578125 L 1.828125 -7.578125 L 1.828125 -4.796875 Z M 2.28125 -4.796875 "/></g></g></g><g fill="#000000" fill-opacity="1"><g transform="translate(699.22834, 643.916792)"><g><path d="M 2.640625 0.09375 C 1.929688 0.09375 1.390625 -0.125 1.015625 -0.5625 C 0.648438 -1 0.445312 -1.597656 0.40625 -2.359375 L 1.4375 -2.640625 C 1.476562 -2.097656 1.585938 -1.660156 1.765625 -1.328125 C 1.941406 -0.992188 2.234375 -0.828125 2.640625 -0.828125 C 2.941406 -0.828125 3.171875 -0.910156 3.328125 -1.078125 C 3.484375 -1.253906 3.5625 -1.5 3.5625 -1.8125 C 3.5625 -2.164062 3.488281 -2.457031 3.34375 -2.6875 C 3.195312 -2.914062 2.96875 -3.164062 2.65625 -3.4375 L 1.234375 -4.6875 C 0.953125 -4.9375 0.742188 -5.203125 0.609375 -5.484375 C 0.484375 -5.773438 0.421875 -6.128906 0.421875 -6.546875 C 0.421875 -7.160156 0.597656 -7.632812 0.953125 -7.96875 C 1.304688 -8.3125 1.789062 -8.484375 2.40625 -8.484375 C 3.0625 -8.484375 3.5625 -8.304688 3.90625 -7.953125 C 4.25 -7.597656 4.453125 -7.050781 4.515625 -6.3125 L 3.515625 -6.046875 C 3.484375 -6.535156 3.390625 -6.910156 3.234375 -7.171875 C 3.078125 -7.441406 2.800781 -7.578125 2.40625 -7.578125 C 2.101562 -7.578125 1.867188 -7.5 1.703125 -7.34375 C 1.546875 -7.195312 1.46875 -6.96875 1.46875 -6.65625 C 1.46875 -6.40625 1.507812 -6.195312 1.59375 -6.03125 C 1.675781 -5.863281 1.820312 -5.691406 2.03125 -5.515625 L 3.453125 -4.265625 C 3.816406 -3.941406 4.109375 -3.585938 4.328125 -3.203125 C 4.546875 -2.828125 4.65625 -2.394531 4.65625 -1.90625 C 4.65625 -1.289062 4.46875 -0.800781 4.09375 -0.4375 C 3.71875 -0.0820312 3.234375 0.09375 2.640625 0.09375 Z M 2.640625 0.09375 "/></g></g></g><g fill="#000000" fill-opacity="1"><g transform="translate(704.797441, 643.916792)"><g><path d="M 0.65625 -8.421875 L 1.828125 -8.421875 L 1.828125 -4.78125 L 3.984375 -4.78125 L 3.984375 -8.421875 L 5.171875 -8.421875 L 5.171875 0 L 3.984375 0 L 3.984375 -3.9375 L 1.828125 -3.9375 L 1.828125 0 L 0.65625 0 Z M 0.65625 -8.421875 "/></g></g></g><g fill="#000000" fill-opacity="1"><g transform="translate(711.280811, 643.916792)"><g><path d="M 0.71875 -8.421875 L 1.875 -8.421875 L 1.875 0 L 0.71875 0 Z M 0.71875 -8.421875 "/></g></g></g><g fill="#000000" fill-opacity="1"><g transform="translate(714.512304, 643.916792)"><g><path d="M 0.65625 -8.421875 L 2.75 -8.421875 C 3.46875 -8.421875 3.992188 -8.222656 4.328125 -7.828125 C 4.660156 -7.429688 4.828125 -6.851562 4.828125 -6.09375 C 4.828125 -5.40625 4.648438 -4.867188 4.296875 -4.484375 C 3.941406 -4.109375 3.425781 -3.921875 2.75 -3.921875 L 1.828125 -3.921875 L 1.828125 0 L 0.65625 0 Z M 2.375 -4.765625 C 2.71875 -4.765625 2.984375 -4.800781 3.171875 -4.875 C 3.359375 -4.945312 3.492188 -5.078125 3.578125 -5.265625 C 3.660156 -5.453125 3.703125 -5.722656 3.703125 -6.078125 C 3.703125 -6.503906 3.671875 -6.816406 3.609375 -7.015625 C 3.546875 -7.222656 3.421875 -7.367188 3.234375 -7.453125 C 3.054688 -7.535156 2.769531 -7.578125 2.375 -7.578125 L 1.828125 -7.578125 L 1.828125 -4.765625 Z M 2.375 -4.765625 "/></g></g></g><g fill="#000000" fill-opacity="1"><g transform="translate(665.668545, 706.933315)"><g><path d="M 2.8125 0.09375 C 1.976562 0.09375 1.382812 -0.140625 1.03125 -0.609375 C 0.675781 -1.078125 0.5 -1.753906 0.5 -2.640625 L 0.5 -5.828125 C 0.5 -6.703125 0.675781 -7.363281 1.03125 -7.8125 C 1.394531 -8.257812 1.988281 -8.484375 2.8125 -8.484375 C 3.625 -8.484375 4.207031 -8.253906 4.5625 -7.796875 C 4.925781 -7.347656 5.109375 -6.691406 5.109375 -5.828125 L 5.109375 -2.625 C 5.109375 -1.75 4.925781 -1.078125 4.5625 -0.609375 C 4.195312 -0.140625 3.613281 0.09375 2.8125 0.09375 Z M 2.8125 -0.828125 C 3.238281 -0.828125 3.53125 -0.953125 3.6875 -1.203125 C 3.84375 -1.460938 3.921875 -1.851562 3.921875 -2.375 L 3.921875 -6.0625 C 3.921875 -6.582031 3.84375 -6.960938 3.6875 -7.203125 C 3.53125 -7.453125 3.238281 -7.578125 2.8125 -7.578125 C 2.363281 -7.578125 2.0625 -7.453125 1.90625 -7.203125 C 1.757812 -6.960938 1.6875 -6.582031 1.6875 -6.0625 L 1.6875 -2.375 C 1.6875 -1.851562 1.757812 -1.460938 1.90625 -1.203125 C 2.0625 -0.953125 2.363281 -0.828125 2.8125 -0.828125 Z M 2.8125 -0.828125 "/></g></g></g><g fill="#000000" fill-opacity="1"><g transform="translate(671.923351, 706.933315)"><g><path d="M 0.65625 -8.421875 L 2.34375 -8.421875 C 3.195312 -8.421875 3.820312 -8.242188 4.21875 -7.890625 C 4.625 -7.535156 4.828125 -6.96875 4.828125 -6.1875 C 4.828125 -5.101562 4.476562 -4.445312 3.78125 -4.21875 L 4.984375 0 L 3.84375 0 L 2.75 -3.953125 L 1.828125 -3.953125 L 1.828125 0 L 0.65625 0 Z M 2.28125 -4.796875 C 2.78125 -4.796875 3.140625 -4.894531 3.359375 -5.09375 C 3.578125 -5.289062 3.6875 -5.65625 3.6875 -6.1875 C 3.6875 -6.53125 3.644531 -6.800781 3.5625 -7 C 3.488281 -7.195312 3.351562 -7.34375 3.15625 -7.4375 C 2.96875 -7.53125 2.695312 -7.578125 2.34375 -7.578125 L 1.828125 -7.578125 L 1.828125 -4.796875 Z M 2.28125 -4.796875 "/></g></g></g><g fill="#000000" fill-opacity="1"><g transform="translate(677.970364, 706.933315)"><g><path d="M 2.65625 0.109375 C 1.894531 0.109375 1.34375 -0.128906 1 -0.609375 C 0.664062 -1.097656 0.5 -1.816406 0.5 -2.765625 L 0.5 -5.578125 C 0.5 -6.234375 0.566406 -6.769531 0.703125 -7.1875 C 0.835938 -7.601562 1.066406 -7.921875 1.390625 -8.140625 C 1.722656 -8.367188 2.175781 -8.484375 2.75 -8.484375 C 3.53125 -8.484375 4.09375 -8.285156 4.4375 -7.890625 C 4.78125 -7.492188 4.953125 -6.875 4.953125 -6.03125 L 4.953125 -5.71875 L 3.84375 -5.71875 L 3.84375 -5.984375 C 3.84375 -6.390625 3.816406 -6.703125 3.765625 -6.921875 C 3.722656 -7.140625 3.625 -7.300781 3.46875 -7.40625 C 3.3125 -7.519531 3.082031 -7.578125 2.78125 -7.578125 C 2.445312 -7.578125 2.203125 -7.5 2.046875 -7.34375 C 1.890625 -7.195312 1.785156 -7 1.734375 -6.75 C 1.691406 -6.5 1.671875 -6.164062 1.671875 -5.75 L 1.671875 -2.640625 C 1.671875 -1.992188 1.75 -1.53125 1.90625 -1.25 C 2.0625 -0.96875 2.363281 -0.828125 2.8125 -0.828125 C 3.238281 -0.828125 3.535156 -0.976562 3.703125 -1.28125 C 3.867188 -1.59375 3.953125 -2.082031 3.953125 -2.75 L 3.953125 -3.328125 L 2.875 -3.328125 L 2.875 -4.171875 L 5.015625 -4.171875 L 5.015625 0 L 4.265625 0 L 4.15625 -0.96875 C 3.894531 -0.25 3.394531 0.109375 2.65625 0.109375 Z M 2.65625 0.109375 "/></g></g></g><g fill="#000000" fill-opacity="1"><g transform="translate(684.183602, 706.933315)"><g><path d="M 1.984375 -8.421875 L 3.109375 -8.421875 L 4.921875 0 L 3.796875 0 L 3.421875 -2.125 L 1.703125 -2.125 L 1.296875 0 L 0.203125 0 Z M 3.265625 -2.96875 L 2.5625 -6.75 L 1.859375 -2.96875 Z M 3.265625 -2.96875 "/></g></g></g><g fill="#000000" fill-opacity="1"><g transform="translate(689.950098, 706.933315)"><g><path d="M 0.65625 -8.421875 L 1.453125 -8.421875 L 3.84375 -2.828125 L 3.84375 -8.421875 L 4.828125 -8.421875 L 4.828125 0 L 4.078125 0 L 1.65625 -5.75 L 1.65625 0 L 0.65625 0 Z M 0.65625 -8.421875 "/></g></g></g><g fill="#000000" fill-opacity="1"><g transform="translate(696.090621, 706.933315)"><g><path d="M 0.71875 -8.421875 L 1.875 -8.421875 L 1.875 0 L 0.71875 0 Z M 0.71875 -8.421875 "/></g></g></g><g fill="#000000" fill-opacity="1"><g transform="translate(699.322114, 706.933315)"><g><path d="M 2.640625 0.09375 C 1.929688 0.09375 1.390625 -0.125 1.015625 -0.5625 C 0.648438 -1 0.445312 -1.597656 0.40625 -2.359375 L 1.4375 -2.640625 C 1.476562 -2.097656 1.585938 -1.660156 1.765625 -1.328125 C 1.941406 -0.992188 2.234375 -0.828125 2.640625 -0.828125 C 2.941406 -0.828125 3.171875 -0.910156 3.328125 -1.078125 C 3.484375 -1.253906 3.5625 -1.5 3.5625 -1.8125 C 3.5625 -2.164062 3.488281 -2.457031 3.34375 -2.6875 C 3.195312 -2.914062 2.96875 -3.164062 2.65625 -3.4375 L 1.234375 -4.6875 C 0.953125 -4.9375 0.742188 -5.203125 0.609375 -5.484375 C 0.484375 -5.773438 0.421875 -6.128906 0.421875 -6.546875 C 0.421875 -7.160156 0.597656 -7.632812 0.953125 -7.96875 C 1.304688 -8.3125 1.789062 -8.484375 2.40625 -8.484375 C 3.0625 -8.484375 3.5625 -8.304688 3.90625 -7.953125 C 4.25 -7.597656 4.453125 -7.050781 4.515625 -6.3125 L 3.515625 -6.046875 C 3.484375 -6.535156 3.390625 -6.910156 3.234375 -7.171875 C 3.078125 -7.441406 2.800781 -7.578125 2.40625 -7.578125 C 2.101562 -7.578125 1.867188 -7.5 1.703125 -7.34375 C 1.546875 -7.195312 1.46875 -6.96875 1.46875 -6.65625 C 1.46875 -6.40625 1.507812 -6.195312 1.59375 -6.03125 C 1.675781 -5.863281 1.820312 -5.691406 2.03125 -5.515625 L 3.453125 -4.265625 C 3.816406 -3.941406 4.109375 -3.585938 4.328125 -3.203125 C 4.546875 -2.828125 4.65625 -2.394531 4.65625 -1.90625 C 4.65625 -1.289062 4.46875 -0.800781 4.09375 -0.4375 C 3.71875 -0.0820312 3.234375 0.09375 2.640625 0.09375 Z M 2.640625 0.09375 "/></g></g></g><g fill="#000000" fill-opacity="1"><g transform="translate(704.891215, 706.933315)"><g><path d="M 1.984375 -8.421875 L 3.109375 -8.421875 L 4.921875 0 L 3.796875 0 L 3.421875 -2.125 L 1.703125 -2.125 L 1.296875 0 L 0.203125 0 Z M 3.265625 -2.96875 L 2.5625 -6.75 L 1.859375 -2.96875 Z M 3.265625 -2.96875 "/></g></g></g><g fill="#000000" fill-opacity="1"><g transform="translate(710.657711, 706.933315)"><g><path d="M 1.578125 -7.546875 L 0.15625 -7.546875 L 0.15625 -8.421875 L 4.140625 -8.421875 L 4.140625 -7.546875 L 2.75 -7.546875 L 2.75 0 L 1.578125 0 Z M 1.578125 -7.546875 "/></g></g></g><g fill="#000000" fill-opacity="1"><g transform="translate(715.603447, 706.933315)"><g><path d="M 0.71875 -8.421875 L 1.875 -8.421875 L 1.875 0 L 0.71875 0 Z M 0.71875 -8.421875 "/></g></g></g><g fill="#000000" fill-opacity="1"><g transform="translate(718.83494, 706.933315)"><g><path d="M 2.8125 0.09375 C 1.976562 0.09375 1.382812 -0.140625 1.03125 -0.609375 C 0.675781 -1.078125 0.5 -1.753906 0.5 -2.640625 L 0.5 -5.828125 C 0.5 -6.703125 0.675781 -7.363281 1.03125 -7.8125 C 1.394531 -8.257812 1.988281 -8.484375 2.8125 -8.484375 C 3.625 -8.484375 4.207031 -8.253906 4.5625 -7.796875 C 4.925781 -7.347656 5.109375 -6.691406 5.109375 -5.828125 L 5.109375 -2.625 C 5.109375 -1.75 4.925781 -1.078125 4.5625 -0.609375 C 4.195312 -0.140625 3.613281 0.09375 2.8125 0.09375 Z M 2.8125 -0.828125 C 3.238281 -0.828125 3.53125 -0.953125 3.6875 -1.203125 C 3.84375 -1.460938 3.921875 -1.851562 3.921875 -2.375 L 3.921875 -6.0625 C 3.921875 -6.582031 3.84375 -6.960938 3.6875 -7.203125 C 3.53125 -7.453125 3.238281 -7.578125 2.8125 -7.578125 C 2.363281 -7.578125 2.0625 -7.453125 1.90625 -7.203125 C 1.757812 -6.960938 1.6875 -6.582031 1.6875 -6.0625 L 1.6875 -2.375 C 1.6875 -1.851562 1.757812 -1.460938 1.90625 -1.203125 C 2.0625 -0.953125 2.363281 -0.828125 2.8125 -0.828125 Z M 2.8125 -0.828125 "/></g></g></g><g fill="#000000" fill-opacity="1"><g transform="translate(725.089746, 706.933315)"><g><path d="M 0.65625 -8.421875 L 1.453125 -8.421875 L 3.84375 -2.828125 L 3.84375 -8.421875 L 4.828125 -8.421875 L 4.828125 0 L 4.078125 0 L 1.65625 -5.75 L 1.65625 0 L 0.65625 0 Z M 0.65625 -8.421875 "/></g></g></g></svg>