<svg xmlns="http://www.w3.org/2000/svg" xmlns:xlink="http://www.w3.org/1999/xlink" width="1400" zoomAndPan="magnify" viewBox="0 0 1050 149.999998" height="200" preserveAspectRatio="xMidYMid meet" version="1.0"><defs><filter x="0%" y="0%" width="100%" height="100%" id="0ab220341f"><feColorMatrix values="0 0 0 0 1 0 0 0 0 1 0 0 0 0 1 0 0 0 1 0" color-interpolation-filters="sRGB"/></filter><g/><mask id="f381f4c200"><g filter="url(#0ab220341f)"><rect x="-713" width="1512" fill="#000000" y="-94.999999" height="215.999996" fill-opacity="0.66"/></g></mask><clipPath id="513654a739"><path d="M 0.273438 2.386719 L 9.621094 2.386719 L 9.621094 12.457031 L 0.273438 12.457031 Z M 0.273438 2.386719 " clip-rule="nonzero"/></clipPath><clipPath id="be3559b005"><path d="M 8.523438 9.300781 L 3.527344 12.164062 C 2.855469 12.550781 2.027344 12.546875 1.355469 12.160156 C 0.683594 11.769531 0.273438 11.054688 0.273438 10.28125 L 0.273438 4.59375 C 0.273438 3.820312 0.683594 3.105469 1.355469 2.714844 C 2.027344 2.328125 2.855469 2.324219 3.527344 2.710938 L 8.523438 5.574219 C 9.191406 5.957031 9.605469 6.667969 9.605469 7.4375 C 9.605469 8.207031 9.191406 8.917969 8.523438 9.300781 Z M 8.523438 9.300781 " clip-rule="nonzero"/></clipPath><clipPath id="197c84614d"><path d="M 0.273438 0.386719 L 9.621094 0.386719 L 9.621094 10.457031 L 0.273438 10.457031 Z M 0.273438 0.386719 " clip-rule="nonzero"/></clipPath><clipPath id="6283a91b20"><path d="M 8.523438 7.300781 L 3.527344 10.164062 C 2.855469 10.550781 2.027344 10.546875 1.355469 10.160156 C 0.683594 9.769531 0.273438 9.054688 0.273438 8.28125 L 0.273438 2.59375 C 0.273438 1.820312 0.683594 1.105469 1.355469 0.714844 C 2.027344 0.328125 2.855469 0.324219 3.527344 0.710938 L 8.523438 3.574219 C 9.191406 3.957031 9.605469 4.667969 9.605469 5.4375 C 9.605469 6.207031 9.191406 6.917969 8.523438 7.300781 Z M 8.523438 7.300781 " clip-rule="nonzero"/></clipPath><clipPath id="667078bab9"><rect x="0" width="10" y="0" height="11"/></clipPath><clipPath id="fa6f810776"><rect x="0" width="12" y="0" height="15"/></clipPath><mask id="61c02a9a74"><g filter="url(#0ab220341f)"><rect x="-713" width="1512" fill="#000000" y="-94.999999" height="215.999996" fill-opacity="0.66"/></g></mask><clipPath id="ee8e3877f1"><rect x="0" width="12" y="0" height="20"/></clipPath><clipPath id="fa49ff2873"><rect x="0" width="86" y="0" height="25"/></clipPath></defs><rect x="-105" width="1260" fill="#ffffff" y="-15" height="179.999997" fill-opacity="1"/><rect x="-105" width="1260" fill="#ffffff" y="-15" height="179.999997" fill-opacity="1"/><g transform="matrix(1, 0, 0, 1, 482, 62)"><g clip-path="url(#fa49ff2873)"><g fill="#6e7063" fill-opacity="1"><g transform="translate(1.235627, 19.735026)"><g><path d="M 1.328125 3.78125 L 1.328125 -9.46875 L 2.5625 -9.46875 L 2.75 -8.140625 L 2.84375 -8.140625 C 3.226562 -8.628906 3.664062 -9.003906 4.15625 -9.265625 C 4.65625 -9.523438 5.226562 -9.65625 5.875 -9.65625 C 6.695312 -9.65625 7.4375 -9.445312 8.09375 -9.03125 C 8.757812 -8.613281 9.28125 -8.03125 9.65625 -7.28125 C 10.03125 -6.539062 10.21875 -5.691406 10.21875 -4.734375 C 10.21875 -3.773438 10.03125 -2.921875 9.65625 -2.171875 C 9.28125 -1.429688 8.757812 -0.851562 8.09375 -0.4375 C 7.4375 -0.0195312 6.695312 0.1875 5.875 0.1875 C 5.226562 0.1875 4.65625 0.0546875 4.15625 -0.203125 C 3.664062 -0.460938 3.226562 -0.835938 2.84375 -1.328125 L 2.75 -1.328125 L 2.75 3.78125 Z M 5.78125 -1.140625 C 6.320312 -1.140625 6.820312 -1.289062 7.28125 -1.59375 C 7.738281 -1.894531 8.109375 -2.316406 8.390625 -2.859375 C 8.671875 -3.398438 8.8125 -4.023438 8.8125 -4.734375 C 8.8125 -5.441406 8.671875 -6.066406 8.390625 -6.609375 C 8.109375 -7.148438 7.738281 -7.570312 7.28125 -7.875 C 6.820312 -8.175781 6.320312 -8.328125 5.78125 -8.328125 C 5.238281 -8.328125 4.734375 -8.175781 4.265625 -7.875 C 3.804688 -7.570312 3.4375 -7.148438 3.15625 -6.609375 C 2.882812 -6.066406 2.75 -5.441406 2.75 -4.734375 C 2.75 -4.023438 2.882812 -3.398438 3.15625 -2.859375 C 3.4375 -2.316406 3.804688 -1.894531 4.265625 -1.59375 C 4.734375 -1.289062 5.238281 -1.140625 5.78125 -1.140625 Z M 5.78125 -1.140625 "/></g></g></g><g fill="#6e7063" fill-opacity="1"><g transform="translate(12.026925, 19.735026)"><g><path d="M 5.296875 0.1875 C 4.453125 0.1875 3.679688 -0.0195312 2.984375 -0.4375 C 2.296875 -0.851562 1.75 -1.429688 1.34375 -2.171875 C 0.945312 -2.921875 0.75 -3.773438 0.75 -4.734375 C 0.75 -5.691406 0.945312 -6.539062 1.34375 -7.28125 C 1.75 -8.03125 2.296875 -8.613281 2.984375 -9.03125 C 3.679688 -9.445312 4.453125 -9.65625 5.296875 -9.65625 C 6.148438 -9.65625 6.921875 -9.445312 7.609375 -9.03125 C 8.304688 -8.613281 8.851562 -8.03125 9.25 -7.28125 C 9.644531 -6.539062 9.84375 -5.691406 9.84375 -4.734375 C 9.84375 -3.773438 9.644531 -2.921875 9.25 -2.171875 C 8.851562 -1.429688 8.304688 -0.851562 7.609375 -0.4375 C 6.921875 -0.0195312 6.148438 0.1875 5.296875 0.1875 Z M 5.296875 -1.140625 C 5.867188 -1.140625 6.394531 -1.285156 6.875 -1.578125 C 7.351562 -1.878906 7.726562 -2.300781 8 -2.84375 C 8.28125 -3.394531 8.421875 -4.023438 8.421875 -4.734375 C 8.421875 -5.441406 8.28125 -6.066406 8 -6.609375 C 7.726562 -7.160156 7.351562 -7.582031 6.875 -7.875 C 6.394531 -8.175781 5.867188 -8.328125 5.296875 -8.328125 C 4.734375 -8.328125 4.210938 -8.175781 3.734375 -7.875 C 3.253906 -7.582031 2.875 -7.160156 2.59375 -6.609375 C 2.3125 -6.066406 2.171875 -5.441406 2.171875 -4.734375 C 2.171875 -4.023438 2.3125 -3.394531 2.59375 -2.84375 C 2.875 -2.300781 3.253906 -1.878906 3.734375 -1.578125 C 4.210938 -1.285156 4.734375 -1.140625 5.296875 -1.140625 Z M 5.296875 -1.140625 "/></g></g></g><g fill="#6e7063" fill-opacity="1"><g transform="translate(22.439585, 19.735026)"><g><path d="M 1.328125 0 L 1.328125 -9.46875 L 2.5625 -9.46875 L 2.75 -8.515625 L 2.84375 -8.515625 C 3.050781 -8.847656 3.28125 -9.085938 3.53125 -9.234375 C 3.789062 -9.390625 4.160156 -9.46875 4.640625 -9.46875 L 6.25 -9.46875 L 6.25 -8.140625 L 4.828125 -8.140625 C 4.171875 -8.140625 3.660156 -7.957031 3.296875 -7.59375 C 2.929688 -7.238281 2.75 -6.726562 2.75 -6.0625 L 2.75 0 Z M 1.328125 0 "/></g></g></g><g fill="#6e7063" fill-opacity="1"><g transform="translate(28.687134, 19.735026)"><g><path d="M 3.6875 0 C 3.175781 0 2.765625 -0.144531 2.453125 -0.4375 C 2.140625 -0.738281 1.984375 -1.128906 1.984375 -1.609375 L 1.984375 -8.140625 L 0.46875 -8.140625 L 0.46875 -9.46875 L 1.984375 -9.46875 L 1.984375 -12.125 L 3.40625 -12.125 L 3.40625 -9.46875 L 5.59375 -9.46875 L 5.59375 -8.140625 L 3.40625 -8.140625 L 3.40625 -1.890625 C 3.40625 -1.515625 3.597656 -1.328125 3.984375 -1.328125 L 5.59375 -1.328125 L 5.59375 0 Z M 3.6875 0 "/></g></g></g><g fill="#6e7063" fill-opacity="1"><g transform="translate(34.934683, 19.735026)"><g><path d="M 1.984375 0 L 1.984375 -8.140625 L 0.46875 -8.140625 L 0.46875 -9.46875 L 1.984375 -9.46875 L 1.984375 -11.265625 C 1.984375 -11.742188 2.140625 -12.128906 2.453125 -12.421875 C 2.765625 -12.722656 3.175781 -12.875 3.6875 -12.875 L 5.390625 -12.875 L 5.390625 -11.546875 L 3.984375 -11.546875 C 3.597656 -11.546875 3.40625 -11.359375 3.40625 -10.984375 L 3.40625 -9.46875 L 5.390625 -9.46875 L 5.390625 -8.140625 L 3.40625 -8.140625 L 3.40625 0 Z M 1.984375 0 "/></g></g></g><g fill="#6e7063" fill-opacity="1"><g transform="translate(40.614266, 19.735026)"><g><path d="M 5.296875 0.1875 C 4.453125 0.1875 3.679688 -0.0195312 2.984375 -0.4375 C 2.296875 -0.851562 1.75 -1.429688 1.34375 -2.171875 C 0.945312 -2.921875 0.75 -3.773438 0.75 -4.734375 C 0.75 -5.691406 0.945312 -6.539062 1.34375 -7.28125 C 1.75 -8.03125 2.296875 -8.613281 2.984375 -9.03125 C 3.679688 -9.445312 4.453125 -9.65625 5.296875 -9.65625 C 6.148438 -9.65625 6.921875 -9.445312 7.609375 -9.03125 C 8.304688 -8.613281 8.851562 -8.03125 9.25 -7.28125 C 9.644531 -6.539062 9.84375 -5.691406 9.84375 -4.734375 C 9.84375 -3.773438 9.644531 -2.921875 9.25 -2.171875 C 8.851562 -1.429688 8.304688 -0.851562 7.609375 -0.4375 C 6.921875 -0.0195312 6.148438 0.1875 5.296875 0.1875 Z M 5.296875 -1.140625 C 5.867188 -1.140625 6.394531 -1.285156 6.875 -1.578125 C 7.351562 -1.878906 7.726562 -2.300781 8 -2.84375 C 8.28125 -3.394531 8.421875 -4.023438 8.421875 -4.734375 C 8.421875 -5.441406 8.28125 -6.066406 8 -6.609375 C 7.726562 -7.160156 7.351562 -7.582031 6.875 -7.875 C 6.394531 -8.175781 5.867188 -8.328125 5.296875 -8.328125 C 4.734375 -8.328125 4.210938 -8.175781 3.734375 -7.875 C 3.253906 -7.582031 2.875 -7.160156 2.59375 -6.609375 C 2.3125 -6.066406 2.171875 -5.441406 2.171875 -4.734375 C 2.171875 -4.023438 2.3125 -3.394531 2.59375 -2.84375 C 2.875 -2.300781 3.253906 -1.878906 3.734375 -1.578125 C 4.210938 -1.285156 4.734375 -1.140625 5.296875 -1.140625 Z M 5.296875 -1.140625 "/></g></g></g><g fill="#6e7063" fill-opacity="1"><g transform="translate(51.036713, 19.735026)"><g/></g></g><g fill="#6e7063" fill-opacity="1"><g transform="translate(55.201707, 19.735026)"><g/></g></g><g fill="#6e7063" fill-opacity="1"><g transform="translate(59.3667, 19.735026)"><g/></g></g><g fill="#6e7063" fill-opacity="1"><g transform="translate(63.531694, 19.735026)"><g/></g></g><g fill="#6e7063" fill-opacity="1"><g transform="translate(67.696687, 19.735026)"><g/></g></g><g fill="#6e7063" fill-opacity="1"><g transform="translate(71.861681, 19.735026)"><g/></g></g><g fill="#6e7063" fill-opacity="1"><g transform="translate(76.032469, 19.735026)"><g><path d="M 4.359375 0.1875 C 3.597656 0.1875 2.929688 0.0507812 2.359375 -0.21875 C 1.785156 -0.488281 1.34375 -0.847656 1.03125 -1.296875 C 0.71875 -1.742188 0.5625 -2.226562 0.5625 -2.75 L 1.984375 -2.75 C 1.984375 -2.300781 2.191406 -1.921875 2.609375 -1.609375 C 3.035156 -1.296875 3.617188 -1.140625 4.359375 -1.140625 C 5.078125 -1.140625 5.632812 -1.273438 6.03125 -1.546875 C 6.425781 -1.816406 6.625 -2.15625 6.625 -2.5625 C 6.625 -2.9375 6.492188 -3.238281 6.234375 -3.46875 C 5.984375 -3.707031 5.578125 -3.878906 5.015625 -3.984375 L 3.40625 -4.265625 C 1.632812 -4.566406 0.75 -5.445312 0.75 -6.90625 C 0.75 -7.707031 1.050781 -8.363281 1.65625 -8.875 C 2.257812 -9.394531 3.128906 -9.65625 4.265625 -9.65625 C 4.992188 -9.65625 5.640625 -9.519531 6.203125 -9.25 C 6.765625 -8.976562 7.195312 -8.613281 7.5 -8.15625 C 7.800781 -7.707031 7.953125 -7.226562 7.953125 -6.71875 L 6.53125 -6.71875 C 6.53125 -7.164062 6.320312 -7.546875 5.90625 -7.859375 C 5.488281 -8.171875 4.941406 -8.328125 4.265625 -8.328125 C 3.585938 -8.328125 3.066406 -8.191406 2.703125 -7.921875 C 2.347656 -7.648438 2.171875 -7.3125 2.171875 -6.90625 C 2.171875 -6.550781 2.285156 -6.265625 2.515625 -6.046875 C 2.753906 -5.835938 3.144531 -5.6875 3.6875 -5.59375 L 5.296875 -5.296875 C 6.242188 -5.140625 6.9375 -4.832031 7.375 -4.375 C 7.820312 -3.914062 8.046875 -3.3125 8.046875 -2.5625 C 8.046875 -1.757812 7.726562 -1.097656 7.09375 -0.578125 C 6.457031 -0.0664062 5.546875 0.1875 4.359375 0.1875 Z M 4.359375 0.1875 "/></g></g></g><g mask="url(#f381f4c200)"><g transform="matrix(1, 0, 0, 1, 64, 7)"><g clip-path="url(#fa6f810776)"><g clip-path="url(#513654a739)"><g clip-path="url(#be3559b005)"><g transform="matrix(1, 0, 0, 1, 0.000000000000113687, 2)"><g clip-path="url(#667078bab9)"><g clip-path="url(#197c84614d)"><g clip-path="url(#6283a91b20)"><path fill="#232612" d="M 0.273438 12.03125 L 0.273438 -1.140625 L 11.777344 -1.140625 L 11.777344 12.03125 Z M 0.273438 12.03125 " fill-opacity="1" fill-rule="nonzero"/></g></g></g></g></g></g></g></g></g><g mask="url(#61c02a9a74)"><g transform="matrix(1, 0, 0, 1, 51, 4)"><g clip-path="url(#ee8e3877f1)"><g fill="#232612" fill-opacity="1"><g transform="translate(0.777174, 15.002364)"><g><path d="M 3.546875 0 L 1.078125 0 L 1.078125 -10.78125 L 3.546875 -10.78125 Z M 3.546875 0 "/></g></g></g><g fill="#232612" fill-opacity="1"><g transform="translate(3.933002, 15.002364)"><g/></g></g><g fill="#232612" fill-opacity="1"><g transform="translate(6.627, 15.002364)"><g><path d="M 3.25 0 L 0.921875 0 L 0.921875 -7.84375 L 3.25 -7.84375 Z M 3.296875 -8.984375 L 0.875 -8.984375 L 0.875 -11 L 3.296875 -11 Z M 3.296875 -8.984375 "/></g></g></g></g></g></g></g></g></svg>